/* XPM */
static char *_fd0e631c9464557b56983495413a846VS4OSESuKD7dE2Nn[] = {
/* columns rows colors chars-per-pixel */
"14 16 5 1 ",
"  c None",
". c #5C4E92",
"X c #766DAA",
"o c #DDD5DE",
"O c #F3F2C0",
/* pixels */
" ....     ... ",
".OOO......OOO.",
".OOOOooooOOOO.",
".OOOOOOOOOOOO.",
" .OOOOOOOOOO. ",
"..OOOOOOOOOO..",
" .OOOOOOOOOO. ",
"..OOOOOOOOOO..",
" .OOOOOOOOOO. ",
"  ..XXXXXX..  ",
"   .XXXXXX.   ",
"  .oOO..OOo.  ",
"  .oO.OO.Oo.  ",
"   .OOOOOO.   ",
"   .oo..oo.   ",
"    ..  ..    "
};
