/* XPM */
static char *eaa0d4b44e2d419fc3b1a9021f43968bTCBcU6PhYAIgQcPo[] = {
/* columns rows colors chars-per-pixel */
"14 16 8 1 ",
"  c None",
". c #EAE178",
"X c #5C4E92",
"o c #766DAA",
"O c #E8B5AC",
"+ c #DDD5DE",
"@ c #F3D8C5",
"# c #F3F2C0",
/* pixels */
"  XXX    XXX  ",
" X###X  X###X ",
" XOO#XXXX#OOX ",
" XOO#++++#OOX ",
" X###++++###X ",
" X###++++###X ",
"XX##########XX",
" X#X######X#X ",
"XX##########XX",
" X@@######@@X ",
"  XXooooooXX  ",
" X+#oo.#oo#+X ",
" X+###..###+X ",
"  XX######XX  ",
"   X++XX++X   ",
"    XX  XX    "
};
