/* XPM */
static char *d6592981a2c34a67ee8312457df369f3sSW2ExH5EYcjOkuF[] = {
/* columns rows colors chars-per-pixel */
"10 16 8 1 ",
"  c None",
". c #EAE178",
"X c #5C4E92",
"o c #766DAA",
"O c #E8B5AC",
"+ c #DDD5DE",
"@ c #F3D8C5",
"# c #F3F2C0",
/* pixels */
"  XXX     ",
" X###XXX  ",
"X#OO####X ",
"X#OO####X ",
" X######X ",
"XX######XX",
" X####X##X",
"XX#######X",
" X##@@###X",
"  XoooooX ",
" X+#oooo. ",
" X+####X. ",
"  X####X  ",
"  X####X  ",
"   X++X   ",
"    XX    "
};
