/* XPM */
static char *result[] = {
/* columns rows colors chars-per-pixel */
"32 32 90 1 ",
"  c #767E7A",
". c #749E54",
"X c #76A156",
"o c #78A157",
"O c #77A058",
"+ c #7AA258",
"@ c #778D6B",
"# c #788C6F",
"$ c #769563",
"% c #789566",
"& c #779860",
"* c #7F9D64",
"= c #77906B",
"- c #79916A",
"; c #778476",
": c #798A74",
"> c #77807B",
", c #79827C",
"< c #7C9270",
"1 c #7CA764",
"2 c #7EA969",
"3 c #7FAD72",
"4 c #80A759",
"5 c #85AB5B",
"6 c #8BAF5D",
"7 c #8DB05D",
"8 c #92B55E",
"9 c #96B85F",
"0 c #819F63",
"q c #83957B",
"w c #86A661",
"e c #87A861",
"r c #83AC68",
"t c #90B564",
"y c #96B860",
"u c #9BBB61",
"i c #86B171",
"p c #A5C263",
"a c #AAC666",
"s c #ADC867",
"d c #AFC968",
"f c #B4CC6A",
"g c #B9CF6D",
"h c #BED36F",
"j c #BFD370",
"k c #C0D470",
"l c #7F8980",
"z c #828C83",
"x c #879187",
"c c #889187",
"v c #8B958A",
"b c #90998F",
"n c #959E92",
"m c #86B583",
"M c #97A093",
"N c #99A196",
"B c #9EA69A",
"V c #A3AA9E",
"C c #A4ACA0",
"Z c #ABB3A6",
"A c #AEB5A8",
"S c #B5BCAE",
"D c #B7BEB0",
"F c #BABFB3",
"G c #A9C391",
"H c #94CAAD",
"J c #95CBB1",
"K c #9AD2BE",
"L c #B2C1A4",
"P c #BDC3B5",
"I c #BDD7BA",
"U c #CDDABA",
"Y c #96D2C1",
"T c #9BD4C3",
"R c #AEDBCB",
"E c #BDE1D1",
"W c #C9CDC1",
"Q c #C5D1C4",
"! c #C3E3D3",
"~ c #D7E1D3",
"^ c #D2E9DA",
"/ c #DCECDE",
"( c #DFEEE0",
") c #E5EFE1",
"_ c #E8F0E2",
"` c #F2F3E6",
"' c #F6F6E9",
"] c #F9F7EA",
"[ c #FBF9ED",
"{ c #FDFAF1",
/* pixels */
"TTTTTTTTTTTTTTTTK1XX+oooXmTTTJ++",
"TTTTTTTTTTTTTTTTK1oo++++omTTTJ++",
"TTTTTTTTTTTTJ222ruuuuuuuut222ruu",
"TTTTTTTTTYTTHOOXouapppppa8.OO+pa",
"TTTTTY!//(I3iy98yppppppppuuyyypp",
"TTTTTK^[]{U.4ppppppppupppppppppp",
"TTTT!^QFLGa89ppppppffffgfffffhff",
"TTYY)[Fnq.1apppppppgkkkkkkkkkkkk",
"TTE!QWVx<X5ppppppdfjkkkkkkkkkkkk",
"TT_[Anz #X5ppppppjjjkjkkkkkkkkkk",
"TT)'Cvq#*58ppppssjkkkkkkkkkkkkkk",
"TT)[n $X7apppppkkjkkkkkkkkkkkkkk",
"RR~~n %X7pppppakkkkjkkjkkkkkkkkk",
"``Vnz %O7pppppphkkkkkkkkkkkkkkkk",
"``Cnz %o7appppajkkkkkkkkkkkkjjjj",
"'`Cnz %.7ppppjkkkkkkkkkkkkkfpppp",
"``Vnz,%o6pppahkkjkkkkkkjjhkgpppp",
"``Cnbnz;%+6pakkkkkkkkkkfpaayo+++",
"``CnnMz,-X5pakkkkkkkkkkfpppyOOo+",
"``Cnnnz>@X6pakkkkkksaaapp84w::::",
"``CnMMz,-X5pakkkkkkappppp8O&>>>>",
"``Vncz<&w9ypakkkkkkappp85w::vvvv",
"``Cn,>$X7papakkkkkkappp7X$ lMMMM",
"``Vnz>%X7pppakkkjffpp870=qNMnnnn",
"``Vnl>$O7pppakkkkpppp5X= bPZbMbM",
"``Vnl>%X7pppakhkkppy80$qbBPAbMnM",
"``Vnl>%X8appakkkkpp4X# NPDSAbnnM",
"'`ZBcz-&e99pakkkhap4o# NSAACMMMb",
"'`PSBnz>-X5pakkkhap4X:;NPCbMMnbM",
"`'PDVBx>@X6pakkkkpp4X#>nSCnnnMVV",
"``PSSSb %X5pakkkkpp4X#;xnnnnMV``",
"``PSSDb -X6pakkkhap4X#>xMnMMbV``"
};
