/* XPM */
static char *result[] = {
/* columns rows colors chars-per-pixel */
"32 32 140 2 ",
"   c #F3F4E7",
".  c #F2F3E6",
"X  c #BFC5B7",
"o  c #B4BBAD",
"O  c #B5BCAE",
"+  c #B7BEB0",
"@  c #90998F",
"#  c #767F79",
"$  c #78906A",
"%  c #77A156",
"&  c #87AC5C",
"*  c #A5C363",
"=  c #A4C263",
"-  c #A7C464",
";  c #BFD36F",
":  c #C0D470",
">  c #90988E",
",  c #767F7A",
"<  c #9FA79B",
"1  c #97A094",
"2  c #848E84",
"3  c #77807A",
"4  c #BDC4B6",
"5  c #B3BAAC",
"6  c #9DA699",
"7  c #959E92",
"8  c #848D84",
"9  c #A5ADA1",
"0  c #969F93",
"q  c #A4ACA0",
"w  c #949D91",
"e  c #838E82",
"r  c #778278",
"t  c #799269",
"y  c #79A357",
"u  c #88AD5C",
"i  c #A5C364",
"p  c #A9C565",
"a  c #818B81",
"s  c #79827C",
"d  c #799467",
"f  c #769F58",
"g  c #8BAF5E",
"h  c #A3C163",
"j  c #A2C163",
"k  c #AAC666",
"l  c #808A81",
"z  c #77807B",
"x  c #789566",
"c  c #76A156",
"v  c #8DB05D",
"b  c #A6C363",
"n  c #889188",
"m  c #899288",
"M  c #BED36F",
"N  c #C1D470",
"B  c #B9CF6D",
"V  c #A6C364",
"C  c #8A9389",
"Z  c #78817B",
"A  c #BFD370",
"S  c #B7CE6C",
"D  c #9DA599",
"F  c #C1D570",
"G  c #B2CB69",
"H  c #A5C263",
"J  c #9EA69A",
"K  c #BFD470",
"L  c #B0CA69",
"P  c #A2C062",
"I  c #AEC968",
"U  c #9DBD61",
"Y  c #7BA359",
"T  c #7AA359",
"R  c #ADC867",
"E  c #A3C263",
"W  c #A1C062",
"Q  c #A2C162",
"!  c #9BBB61",
"~  c #79A05A",
"^  c #789F5A",
"/  c #ABC766",
"(  c #93B65F",
")  c #79A258",
"_  c #7AA358",
"`  c #7A9E5E",
"'  c #788478",
"]  c #91B35F",
"[  c #779E5A",
"{  c #78A059",
"}  c #789B5F",
"|  c #7A847B",
" . c #8EB15D",
".. c #799665",
"X. c #788379",
"o. c #788378",
"O. c #7C887C",
"+. c #939C90",
"@. c #939C91",
"#. c #799568",
"$. c #7C847E",
"%. c #7B857C",
"&. c #79837B",
"*. c #7E887F",
"=. c #768178",
"-. c #8F998C",
";. c #A9B1A4",
":. c #86AA5D",
">. c #779F58",
",. c #7A916D",
"<. c #7A827D",
"1. c #929B90",
"2. c #B8BFB0",
"3. c #ACB4A6",
"4. c #83A95B",
"5. c #798E6E",
"6. c #768177",
"7. c #97A093",
"8. c #B6BDAF",
"9. c #81A85A",
"0. c #77A157",
"q. c #788C6F",
"w. c #99A196",
"e. c #ABB3A5",
"r. c #949D92",
"t. c #B8BFB1",
"y. c #A9B1A3",
"u. c #8B948A",
"i. c #7A837D",
"p. c #98A095",
"a. c #A7AFA2",
"s. c #9AA397",
"d. c #B3BAAD",
"f. c #889288",
"g. c #98A195",
"h. c #A3AB9F",
"j. c #ECEEE1",
"k. c #EEEFE2",
"l. c #879187",
"z. c white",
/* pixels */
"  . X o O + @ # $ % & * = = - ; : : : : : : : : : : : : : : : : ",
"  . X o O + @ # $ % & * = = - ; : : : : : : : : : : : : : : : : ",
"  . X o O + @ # $ % & * = = - ; : : : : : : : : : : : : : : : : ",
"  . X o o O > , $ % & * = = - ; : : : : : : : : : : : : : : : : ",
"  . X O < 1 2 3 $ % & * = = - ; : : : : : : : : : : : : : : : : ",
"  . 4 5 6 7 8 3 $ % & * = = - ; : : : : : : : : : : : : : : : : ",
"  . 9 0 7 0 8 3 $ % & * = = - ; : : : : : : : : : : : : : : : : ",
"  . q w w w e r t y u * = i p ; : : : : : : : : : : : : : : : : ",
"  . q w a s d f g h j = k ; ; : : : : : : : : : : : : : : : : : ",
"  . q w l z x c v b = = k : : : : : : : : : : : : : : : : : : : ",
"  . q w l z x c v b = = k : : : : : : : : : : : : : : : : : : : ",
"  . 9 0 l z x c v b = = k : : : : : : : : : : : : : : : : : : : ",
"  . 4 o n 3 x c v b = = k : : : : : : : : : : : : : : : : : : : ",
"  . X O m 3 x c v b = = k : : : : : : : : : : : : : : : M M M M ",
"  . X O m 3 x c v b = = k : : : : : : : : : : : : : N B i V V V ",
"  . X O C Z d f g h j = k : : : : : : : : : : A M M A S = = = = ",
"  . X O D w e r t y u * k : : : : : : : : : F G H V V i = = = = ",
"  . X O J 7 8 3 $ % & * k : : : : : : : : A K L h = = = = = P P ",
"  . X O J 7 8 3 $ % & * k : : : : : : : N I * H = = = = = U Y T ",
"  . X O J 7 8 3 $ % & * k : : : : : : ; A R E = = h W P Q ! ~ ^ ",
"  . X O J 7 8 3 $ % & * k : : : : : : / i H = = * ( ) T _ ` ' ' ",
"  . 4 5 6 7 8 3 $ % & * k : : : : ; ; k = = = h h ] [ ^ { } | | ",
"  . 9 0 7 0 8 3 $ % & * k : : : ; p i = = = b  .y ..X.' o.O.+.@.",
"  . q w w w e r t y u * k : : : ; - = = = j h g f #.$.%.&.*.7 7 ",
"  . q w a s d f g h j = k : : : ; - = = * u y t =.-.o ;.+.w 7 7 ",
"  . q w l z x c v b = = k : : : ; - = j h :.>.,.<.1.2.3.w 7 7 7 ",
"  . q w l z x c v b = = k : : : ; - = 4._ 5.6.7.o 5 8.3.w 7 7 7 ",
"  . 9 0 l z x c v b = = k : : : ; - = 9.0.q.# w.+ o o e.r.7 7 7 ",
"  . 4 o n 3 x c v b = = k : : : ; - = 9.0.q.# w.t.y.0 0 7 7 7 7 ",
"  . X O u.i.#.f g h j = k : : : ; - = 9.0.q.# p.8.a.w 7 7 0 s.s.",
"  . X o 5 d.-.=.t y u * k : : : ; - = 9.0.q.3 f.g.0 7 7 w h.j.k.",
"  . X o O + @ # $ % & * k : : : ; - = 9.0.q.3 l.0 7 7 7 w q .   "
};
