/* XPM */
static char *result[] = {
/* columns rows colors chars-per-pixel */
"32 32 127 2 ",
"   c #F3F4E7",
".  c #F2F3E6",
"X  c #BFC5B7",
"o  c #B4BBAD",
"O  c #B5BCAE",
"+  c #B7BEB0",
"@  c #90998F",
"#  c #767F79",
"$  c #78906A",
"%  c #77A156",
"&  c #87AC5C",
"*  c #A5C363",
"=  c #AAC666",
"-  c #C0D470",
";  c #BFD36F",
":  c #A7C464",
">  c #A4C263",
",  c #81A85A",
"<  c #77A157",
"1  c #788C6F",
"2  c #99A196",
"3  c #C6CBBD",
"4  c #F5F5E8",
"5  c #E5EFE1",
"6  c #9CD5C4",
"7  c #9BD4C3",
"8  c #83A95B",
"9  c #7AA358",
"0  c #798E6E",
"q  c #768177",
"w  c #97A093",
"e  c #B2B9AB",
"r  c #B0B7AA",
"t  c #C2C8BA",
"y  c #F2F2E5",
"u  c #E3EDDF",
"i  c #A1D6C5",
"p  c #A0D6C5",
"a  c #A2C163",
"s  c #A3C163",
"d  c #86AA5D",
"f  c #779F58",
"g  c #7A916D",
"h  c #7C847E",
"j  c #7B857D",
"k  c #7A847C",
"l  c #8C958B",
"z  c #B9C0B1",
"x  c #C1C7B9",
"c  c #EDF1E4",
"v  c #EEF2E5",
"b  c #90988E",
"n  c #767F7A",
"m  c #A9C565",
"M  c #A5C364",
"N  c #88AD5C",
"B  c #79A357",
"V  c #799269",
"C  c #788379",
"Z  c #788478",
"A  c #778277",
"S  c #889385",
"D  c #B2BBA9",
"F  c #BBC3B2",
"G  c #EBEFDE",
"H  c #ECEFDF",
"J  c #9FA79B",
"K  c #97A094",
"L  c #848E84",
"P  c #77807A",
"I  c #8BAF5E",
"U  c #779E5A",
"Y  c #789F5A",
"T  c #79A05B",
"R  c #7BA35D",
"E  c #7CA35D",
"W  c #7FA660",
"Q  c #BDC4B6",
"!  c #B3BAAC",
"~  c #9DA699",
"^  c #959E92",
"/  c #848D84",
"(  c #A6C363",
")  c #8EB15D",
"_  c #79A258",
"`  c #7AA359",
"'  c #A5ADA1",
"]  c #969F93",
"[  c #A1C062",
"{  c #A2C062",
"}  c #A4ACA0",
"|  c #949D91",
" . c #838E82",
".. c #778278",
"X. c #ABC766",
"o. c #A5C263",
"O. c #818B81",
"+. c #79827C",
"@. c #799467",
"#. c #769F58",
"$. c #BFD370",
"%. c #ADC867",
"&. c #A3C263",
"*. c #808A81",
"=. c #77807B",
"-. c #789566",
";. c #76A156",
":. c #8DB05D",
">. c #C1D470",
",. c #AEC968",
"<. c #A6C364",
"1. c #BED36F",
"2. c #B7CE6C",
"3. c #B9CF6D",
"4. c #889188",
"5. c #899288",
"6. c #8A9389",
"7. c #78817B",
"8. c #9DA599",
"9. c #9EA69A",
"0. c #8B948A",
"q. c #7A837D",
"w. c #799568",
"e. c #B3BAAD",
"r. c #8F998C",
"t. c #768178",
"y. c white",
/* pixels */
"  . X o O + @ # $ % & * = - - - ; : > , < 1 # 2 + O o 3 4 5 6 7 ",
"  . X o O + @ # $ % & * = - - - ; : > 8 9 0 q w o e r t y u i p ",
"  . X o O + @ # $ % & * = - - - ; : > a s d f g h j k l z x c v ",
"  . X o o O b n $ % & * = - - - ; m M > * N B V C Z A S D F G H ",
"  . X O J K L P $ % & * = - - - - ; ; = > a s I U Y Y T R E W W ",
"  . Q ! ~ ^ / P $ % & * = - - - - - - = > > ( ) _ ` ` ` ` ` ` ` ",
"  . ' ] ^ ] / P $ % & * = - - - - - - = > > > s [ { { { { { { { ",
"  . } | | |  ...V B N * = - - - - - - X.M o.> > > > > > > > > > ",
"  . } | O.+.@.#.I s a > = - - - - - - ; $.%.&.> > > > > > > > > ",
"  . } | *.=.-.;.:.( > > = - - - - - - - >.,.* <.<.<.<.M > > > > ",
"  . } | *.=.-.;.:.( > > = - - - - - - - - $.1.1.1.1.$.2.> > > > ",
"  . ' ] *.=.-.;.:.( > > = - - - - - - - - - - - - - >.3.M <.<.<.",
"  . Q o 4.P -.;.:.( > > = - - - - - - - - - - - - - - - 1.1.1.1.",
"  . X O 5.P -.;.:.( > > = - - - - - - - - - - - - - - - - - - - ",
"  . X O 5.P -.;.:.( > > = - - - - - - - - - - - - - - - - - - - ",
"  . X O 6.7.@.#.I s a > = ; ; - - - - - - - - - - - - - - - - - ",
"  . X O 8.|  ...V B N * > M m ; - - - - - - - - - - - - - - - - ",
"  . X O 9.^ / P $ % & * > > : ; - - - - - - - - - - - - - - - - ",
"  . X O 9.^ / P $ % & * > > : ; - - - - - - - - - - - - - - - - ",
"  . X O 9.^ / P $ % & * > > : ; - - - - - - - - - - - - - - - - ",
"  . X O 9.^ / P $ % & * > > : ; - - - - - - - - - - - - - - - - ",
"  . Q ! ~ ^ / P $ % & * > M m ; - - - - - - - - - - - - - - - - ",
"  . ' ] ^ ] / P $ % & * = ; ; - - - - - - - - - - - - - - - - - ",
"  . } | | |  ...V B N * = - - - - - - - - - - - - - - - - - - - ",
"  . } | O.+.@.#.I s a > = - - - - - - - - - - - - - - - - - - - ",
"  . } | *.=.-.;.:.( > > = - - - - - - - - - - - - - - - - - - - ",
"  . } | *.=.-.;.:.( > > = - - - - - - - - - - - - - - - - - - - ",
"  . ' ] *.=.-.;.:.( > > = - - - - - - - - - - - - - - - - - - - ",
"  . Q o 4.P -.;.:.( > > = - - - - - - - - - - - - - - - - - - - ",
"  . X O 0.q.w.#.I s a > = - - - - - - - - - - - - - - - - - - - ",
"  . X o ! e.r.t.V B N * = - - - - - - - - - - - - - - - - - - - ",
"  . X o O + @ # $ % & * = - - - - - - - - - - - - - - - - - - - "
};
