/* XPM */
static char *result[] = {
/* columns rows colors chars-per-pixel */
"32 32 254 2 ",
"   c #F3F4E7",
".  c #F2F3E6",
"X  c #A4ACA0",
"o  c #949D91",
"O  c #959E92",
"+  c #969F93",
"@  c #848D84",
"#  c #77807A",
"$  c #78906A",
"%  c #77A156",
"&  c #87AC5C",
"*  c #A5C363",
"=  c #AAC666",
"-  c #C0D470",
";  c #AEB5A9",
":  c #F6F6E9",
">  c #E5EFE1",
",  c #9CD5C4",
"<  c #9BD4C3",
"1  c #77A257",
"2  c #78916A",
"3  c #838D83",
"4  c #939C90",
"5  c #AEB5A8",
"6  c #F4F4E7",
"7  c #E4EDE0",
"8  c #9ED5C4",
"9  c #A8C565",
"0  c #ABC766",
"q  c #BFD370",
"w  c #A4C263",
"e  c #9FBE62",
"r  c #9EBE61",
"t  c #89AB5F",
"y  c #779C5C",
"u  c #7A936A",
"i  c #7C857F",
"p  c #818A81",
"a  c #8B938B",
"s  c #9AA399",
"d  c #767F7A",
"f  c #77A256",
"g  c #87AD5B",
"h  c #A6C464",
"j  c #A5C263",
"k  c #A3C263",
"l  c #A7C464",
"z  c #BFD36F",
"x  c #A3C163",
"c  c #8CB05D",
"v  c #76A156",
"b  c #779465",
"n  c #78807C",
"m  c #77817A",
"M  c #757F78",
"N  c #F4F4E8",
"B  c #F6F6EA",
"V  c #90998E",
"C  c #8E978C",
"Z  c #83917F",
"A  c #778970",
"S  c #7C956A",
"D  c #84AA5A",
"F  c #8BAF5D",
"G  c #BAD06D",
"H  c #B9CF6D",
"J  c #ABC666",
"K  c #9EBD61",
"L  c #99BA60",
"P  c #8BAC60",
"I  c #779861",
"U  c #789961",
"Y  c #789861",
"T  c #7D9E66",
"R  c #99B77E",
"E  c #99B87F",
"W  c #97A093",
"Q  c #889187",
"!  c #777F7B",
"~  c #788C6F",
"^  c #76A057",
"/  c #81A75A",
"(  c #C1D470",
")  c #C1D571",
"_  c #ADC867",
"`  c #A2C162",
"'  c #92B55E",
"]  c #759F56",
"[  c #77A157",
"{  c #76A056",
"}  c #749E54",
"|  c #879187",
" . c #81A85A",
".. c #B5CD6B",
"X. c #ACC767",
"o. c #9DBD61",
"O. c #92B45E",
"+. c #92B55F",
"@. c #A3AB9F",
"#. c #97A094",
"$. c #889188",
"%. c #778B6F",
"&. c #80A75A",
"*. c #C2D571",
"=. c #B1CA69",
"-. c #A6C363",
";. c #B1B7AB",
":. c #A3AB9E",
">. c #99A296",
",. c #8D968B",
"<. c #809179",
"1. c #779069",
"2. c #7F9B66",
"3. c #8DB15D",
"4. c #B8CF6C",
"5. c #C0C6B8",
"6. c #B6BDAF",
"7. c #9EA69A",
"8. c #77A255",
"9. c #C1D570",
"0. c #BFC5B7",
"q. c #B5BCAE",
"w. c #A6C364",
"e. c #B6CE6B",
"r. c #B7CE6C",
"t. c #9DA699",
"y. c #BDD26F",
"u. c #9CA598",
"i. c #869086",
"p. c #BCD16E",
"a. c #B4BBAD",
"s. c #B7BEB0",
"d. c #90998F",
"f. c #767F79",
"g. c #A3C162",
"h. c #BED36F",
"j. c #B0C968",
"k. c #A5C364",
"l. c #EFF3E6",
"z. c #EFF2E5",
"x. c #C0C7B9",
"c. c #919A8F",
"v. c #79906B",
"b. c #77A058",
"n. c #86AB5C",
"m. c #A2C163",
"M. c #A5D8C7",
"N. c #A6D8C7",
"B. c #E1EADD",
"V. c #EEEFE2",
"C. c #C4C9BC",
"Z. c #A0A89C",
"A. c #929B8F",
"S. c #869184",
"D. c #778476",
"F. c #7A906D",
"G. c #7CA558",
"H. c #85AB5B",
"J. c #8AAE5C",
"K. c #7CA459",
"L. c #7DA559",
"P. c #8DB05D",
"I. c #9AD4C3",
"U. c #9CD4C3",
"Y. c #E5EFE2",
"T. c #C6CBBE",
"R. c #A2AA9D",
"E. c #78A158",
"W. c #89AE5C",
"Q. c #F5F5E8",
"!. c #C6CBBD",
"~. c #929B90",
"^. c #8F988D",
"/. c #879384",
"(. c #778872",
"). c #7A8F6E",
"_. c #82A95A",
"`. c #7B936B",
"'. c #788873",
"]. c #788973",
"[. c #788874",
"{. c #7C9569",
"}. c #C6CCBE",
"|. c #B6BDAE",
" X c #8B958A",
".X c #778C6E",
"XX c #77807B",
"oX c #778E6C",
"OX c #B6BDB0",
"+X c #9EA79A",
"@X c #859281",
"#X c #8C958B",
"$X c #84917F",
"%X c #E8F0E2",
"&X c #F9F7EA",
"*X c #ACB3A7",
"=X c #8E988C",
"-X c #8C958A",
";X c #8A9389",
":X c #BDE1D1",
">X c #C4E4D4",
",X c #C6D2C5",
"<X c #C9CDC0",
"1X c #A9B0A4",
"2X c #9BA397",
"3X c #A7AFA2",
"4X c #99A196",
"5X c #8B948A",
"6X c #879086",
"7X c #909A8E",
"8X c #879186",
"9X c #98A196",
"0X c #98D3C2",
"qX c #96D2C1",
"wX c #DFEEE0",
"eX c #FFFCEF",
"rX c #BBC0B4",
"tX c #9FA89B",
"yX c #9BA498",
"uX c #B8BFB0",
"iX c #B8BFB1",
"pX c #C2E2D3",
"aX c #D2E9DA",
"sX c #C3D0C3",
"dX c #AFB6A9",
"fX c #A0A99C",
"gX c #A8B0A3",
"hX c #A6AEA1",
"jX c #A1AA9D",
"kX c #98A195",
"lX c #99D3C2",
"zX c #95D2C0",
"xX c #FEFBEE",
"cX c #D9DCCE",
"vX c #B2BAAB",
"bX c #ADB4A7",
"nX c #DEEDDF",
"mX c #D1DCCE",
"MX c #C5CABC",
"NX c #C5CBBD",
"BX c #AFB6A8",
"VX c #C4E3D4",
"CX c #F8F7EA",
"ZX c #F3F3E6",
"AX c #BCC2B4",
"SX c #B0B7A9",
"DX c #E3EDE0",
"FX c #C3CABC",
"GX c #BBC1B3",
"HX c #9CD4C4",
"JX c #A0D6C5",
"KX c #9FD5C4",
"LX c #E9F0E3",
"PX c white",
/* pixels */
"  . X o O + @ # $ % & * = - - - - - - = * & % $ # @ o ; : > , < ",
"  . X o O + @ # $ % & * = - - - - - - = * & 1 2 # 3 4 5 6 7 8 , ",
"  . X o O + @ # $ % & * * 9 0 q - - - = w e r t y u i p a s 7 > ",
"  . X o O + 3 d $ f g h j k l z - - - = x w h c v b n m M a N B ",
"  . X o O O V C Z A S D F w l z - - - G H J w K L P I U Y T R E ",
"  . X o O O O W Q ! ~ ^ / w l z - - - ( ) _ ` w l ' ] [ [ { } } ",
"  . X o O O O + | # ~ [  .w l z - - - - - H ..X.w o.O.+.+.+.+.+.",
"  . @.4 O O + #.$.! %.{ &.w l z - - - - - ( *.=.` w -.* * * * * ",
"  . ;.:.>.O ,.Q <.1.2.3.O.w l z - - - - - - ( 4.=.X.w w w w w w ",
"  . 5.6.7.O 3 d 1.8.g l * w l - 9.- - - - - - ( *...` x x x x x ",
"  . 0.q.7.O @ # $ % & * w w w.e.r.q - - - - - - ( H _ _ _ _ _ _ ",
"  . 0.q.t.O 3 # $ % & * w w w k w y.( - - - - - - 9.) ) ( 9.9.9.",
"  . 0.q.:.u.i.# $ % & * w w w w * 4.G z - - - y.G G G p.- - - - ",
"  . 0.a.q.s.d.f.$ % & * w w w w w w w G ( - ) =.g.w k X.( - - - ",
"  . 0.a.q.s.d.f.$ % & * w w w w w w w 4.y.y.h.j.x w k J y.y.y.y.",
"  . 0.a.q.s.d.f.$ % & * w w w w w w w * k.k.k.j w w w w k.k.k.k.",
"l.z.x.s.6.s.c.# v.b.n.k x w w w w w w w w x m.m.m.x w w w w w w ",
"M.N.B.V.C.q.Z.A.S.D.F.G.H.w w w w w w w * J.K.L.K.P.* w w w w w ",
"I.U.Y.: T.q.R.O Q # ~ [  .w w w w w w w * & ^ E.^ W.-.w w w w w ",
"< , > Q.!.q.R.o ~.^./.(.). . . . . . . ._.`.'.].[.{._. . . . . .",
"< , > Q.}.|.R.o O +  Xd (.[ [ [ [ [ [ [ f .XXXm XXoXf [ [ [ [ [ ",
"< , > : OX+X>.O O O A. X/.~ ~ ~ ~ ~ ~ ~ .X@X#X X#X$X.X~ ~ ~ ~ ~ ",
"< , %X&X*X=X4 O O O O O C f.f.f.f.f.f.# f.-XW + #.;Xf.# # # f.f.",
"< U.:X>X,X<X1X4 O O 2X3X@.4X4X4X4X4X4X5X6X7XO O O V 8X| | ;X9X4X",
"< < 0XqXwXeXrX=X4 4 tXs.6.s.s.s.s.s.s.u.o o o o o o O O + yXuXiX",
"< < < I.pXaXsXrXdXfXgX|.q.q.q.q.q.q.q.hXjXR.R.R.R.R.R.+XO kXgXgX",
"< < < < lXzXaXxXcXvXa.a.a.a.a.a.a.q.q.6.6.6.6.6.6.6.s.bXo o o o ",
"< < < < < lXpXnXmXMX!.!.!.!.!.!.NXs.q.q.q.q.q.q.q.q.|.BXt.u.O O ",
"< < < < < < I.qXVXCXQ.Q.Q.Q.Q.Q.ZXAXa.a.a.a.a.a.a.a.a.a.q.SXo o ",
"< < < < < < < 0X:X%X> > > > > > DXFX0.0.0.0.0.0.0.0.0.0.0.GXX X ",
"< < < < < < < < U., , , , , , HXJX%XZX. . . . . . . . . . . . . ",
"< < < < < < < < < < < < < < < < KXLX6                           "
};
