/* XPM */
static char *result[] = {
/* columns rows colors chars-per-pixel */
"32 32 178 2 ",
"   c #F3F4E7",
".  c #F2F3E6",
"X  c #BFC5B7",
"o  c #B4BBAD",
"O  c #B5BCAE",
"+  c #B7BEB0",
"@  c #90998F",
"#  c #767F79",
"$  c #78906A",
"%  c #77A156",
"&  c #87AC5C",
"*  c #A5C363",
"=  c #AAC666",
"-  c #C0D470",
";  c #BFD36F",
":  c #A7C464",
">  c #A4C263",
",  c #81A85A",
"<  c #77A157",
"1  c #788C6F",
"2  c #77807A",
"3  c #879187",
"4  c #959E92",
"5  c #A2AA9D",
"6  c #C6CBBD",
"7  c #F5F5E8",
"8  c #E5EFE1",
"9  c #9CD5C4",
"0  c #9BD4C3",
"q  c #889288",
"w  c #97A094",
"e  c #A3AB9E",
"r  c #C5CABD",
"t  c #F2F2E5",
"y  c #E3EDDF",
"u  c #A1D6C5",
"i  c #A0D6C5",
"p  c #98A095",
"a  c #B6BDAF",
"s  c #B8BFB1",
"d  c #C1C7B9",
"f  c #EDF1E4",
"g  c #EEF2E5",
"h  c #90988E",
"j  c #767F7A",
"k  c #83A95B",
"l  c #7AA358",
"z  c #798E6E",
"x  c #768177",
"c  c #98A194",
"v  c #B3BAAC",
"b  c #B3BAAD",
"n  c #B1BAA9",
"m  c #BBC3B2",
"M  c #EBEFDE",
"N  c #ECEFDF",
"B  c #9FA79B",
"V  c #848E84",
"C  c #A2C163",
"Z  c #A3C163",
"A  c #86AA5D",
"S  c #769E58",
"D  c #889F79",
"F  c #98A096",
"G  c #97A095",
"H  c #8FA085",
"J  c #7BA35C",
"K  c #7CA35D",
"L  c #7FA660",
"P  c #BDC4B6",
"I  c #9DA699",
"U  c #848D84",
"Y  c #A9C565",
"T  c #A5C364",
"R  c #88AD5C",
"E  c #78A256",
"W  c #88A076",
"Q  c #949E91",
"!  c #939E8F",
"~  c #949E90",
"^  c #8D9F80",
"/  c #7AA359",
"(  c #A5ADA1",
")  c #969F93",
"_  c #8CAF5F",
"`  c #78A05B",
"'  c #7AA15B",
"]  c #79A05B",
"[  c #84A95D",
"{  c #A2C062",
"}  c #A4ACA0",
"|  c #949D91",
" . c #838E82",
".. c #778278",
"X. c #799269",
"o. c #79A357",
"O. c #ABC766",
"+. c #A5C263",
"@. c #8EB15D",
"#. c #79A258",
"$. c #86AB5B",
"%. c #818B81",
"&. c #79827C",
"*. c #799467",
"=. c #769F58",
"-. c #8BAF5E",
";. c #BFD370",
":. c #ADC867",
">. c #A3C263",
",. c #A1C062",
"<. c #808A81",
"1. c #77807B",
"2. c #789566",
"3. c #76A156",
"4. c #8DB05D",
"5. c #A6C363",
"6. c #C1D470",
"7. c #AEC968",
"8. c #A6C364",
"9. c #BED36F",
"0. c #C1D570",
"q. c #889188",
"w. c #899288",
"e. c #B9CF6D",
"r. c #8A9389",
"t. c #78817B",
"y. c #B7CE6C",
"u. c #9DA599",
"i. c #B2CB69",
"p. c #9EA69A",
"a. c #BFD470",
"s. c #B0CA69",
"d. c #99BA60",
"f. c #7AA258",
"g. c #96B760",
"h. c #779F5A",
"j. c #789F5A",
"k. c #93B65F",
"l. c #79A358",
"z. c #7A9A61",
"x. c #788379",
"c. c #788478",
"v. c #91B35F",
"b. c #779F59",
"n. c #789863",
"m. c #7A837C",
"M. c #7A847B",
"N. c #799665",
"B. c #778279",
"V. c #7F8A7F",
"C. c #939C91",
"Z. c #799568",
"A. c #7B847E",
"S. c #828C83",
"D. c #768178",
"F. c #8F998C",
"G. c #AAB2A4",
"H. c #949E92",
"J. c #779F58",
"K. c #7A916D",
"L. c #7A827D",
"P. c #929B90",
"I. c #B8BFB0",
"U. c #ACB4A6",
"Y. c #97A093",
"T. c #99A196",
"R. c #ABB3A5",
"E. c #949D92",
"W. c #A9B1A3",
"Q. c #8B948A",
"!. c #7A837D",
"~. c #A7AFA2",
"^. c #9AA397",
"/. c #98A195",
"(. c #A3AB9F",
"). c #ECEEE1",
"_. c #EEEFE2",
"`. c white",
/* pixels */
"  . X o O + @ # $ % & * = - - - ; : > , < 1 2 3 4 5 O 6 7 8 9 0 ",
"  . X o O + @ # $ % & * = - - - ; : > , < 1 2 q w e O r t y u i ",
"  . X o O + @ # $ % & * = - - - ; : > , < 1 # p O o O a s d f g ",
"  . X o o O h j $ % & * = - - - ; : > k l z x c O v b v n m M N ",
"  . X O B w V 2 $ % & * = - - - ; : > C Z A S D F w G H J K L L ",
"  . P v I 4 U 2 $ % & * = - - - ; Y T > * R E W Q ! ~ ^ l / / / ",
"  . ( ) 4 ) U 2 $ % & * = - - - - ; ; = > C Z _ ` ' ] [ C { { { ",
"  . } | | |  ...X.o.R * = - - - - - - O.T +.* @.#./ #.$.* > > > ",
"  . } | %.&.*.=.-.Z C > = - - - - - - ; ;.:.>.Z ,.{ ,.C > > > > ",
"  . } | <.1.2.3.4.5.+.T O.- - - - - - - 6.7.* 8.8.8.8.8.8.8.8.8.",
"  . } | <.1.2.3.4.* :.;.; - - - - - - - - ;.9.9.9.9.9.9.9.9.9.9.",
"  . ( ) <.1.2.3.4.* :.0.- - - - - - - - - - - - - - - - - - - - ",
"  . P o q.2 2.3.4.* :.0.- - - - - - - - - - - - - - - - - - - - ",
"  . X O w.2 2.3.4.* :.;.; - - - - - - - - - - - - - - - 9.9.9.9.",
"  . X O w.2 2.3.4.5.+.T O.- - - - - - - - - - - - - 6.e.T 8.8.8.",
"  . X O r.t.*.=.-.Z C > = - - - - - - - - - - ;.9.9.;.y.> > > > ",
"  . X O u.|  ...X.o.R * = - - - - - - - - - 0.i.+.8.8.T > > > > ",
"  . X O p.4 U 2 $ % & * = - - - - - - - - ;.a.s.Z > > >.{ { { { ",
"  . X O p.4 U 2 $ % & * = - - - - - - - 6.7.* +.> > * d.f./ / / ",
"  . X O p.4 U 2 $ % & * = - - - - - - ; ;.:.>.> > Z C g.h.j.j.j.",
"  . X O p.4 U 2 $ % & * = - - - - - - O.T +.> > * k.l.z.x.c.c.c.",
"  . P v I 4 U 2 $ % & * = - - - - - - = > > > Z Z v.b.n.m.M.M.M.",
"  . ( ) 4 ) U 2 $ % & * = - - - - - - = > > 5.@.o.N.B.V.| C.C.C.",
"  . } | | |  ...X.o.R * = - - - - ; ; = > C Z -.=.Z.A.S.4 4 4 4 ",
"  . } | %.&.*.=.-.Z C > = - - - ; Y T > * R o.X.D.F.o G.H.4 4 4 ",
"  . } | <.1.2.3.4.5.> > = - - - ; : > C Z A J.K.L.P.I.U.| 4 4 4 ",
"  . } | <.1.2.3.4.5.> > = - - - ; : > k l z x Y.o v a U.| 4 4 4 ",
"  . ( ) <.1.2.3.4.5.> > = - - - ; : > , < 1 # T.+ o o R.E.4 4 4 ",
"  . P o q.2 2.3.4.5.> > = - - - ; : > , < 1 # T.s W.) ) 4 4 4 4 ",
"  . X O Q.!.Z.=.-.Z C > = - - - ; : > , < 1 # p a ~.| 4 4 ) ^.^.",
"  . X o v b F.D.X.o.R * = - - - ; : > , < 1 2 q /.) 4 4 | (.)._.",
"  . X o O + @ # $ % & * = - - - ; : > , < 1 2 3 ) 4 4 4 | } .   "
};
