/* XPM */
static char *result[] = {
/* columns rows colors chars-per-pixel */
"32 32 120 2 ",
"   c #78A158",
".  c #7AA45E",
"X  c #99D1BD",
"o  c #9BD4C3",
"O  c #79A258",
"+  c #7BA45E",
"@  c #99D0BB",
"#  c #9AD3C1",
"$  c #9DBD61",
"%  c #9BBC62",
"&  c #7FAA69",
"*  c #7EA969",
"=  c #A5C263",
"-  c #A2C062",
";  c #79A257",
":  c #77A057",
">  c #A4C263",
",  c #A3C263",
"<  c #99BA60",
"1  c #98B960",
"2  c #A3C163",
"3  c #A5C363",
"4  c #B4CC6A",
"5  c #B5CD6B",
"6  c #BFD470",
"7  c #C1D570",
"8  c #B1CA69",
"9  c #B2CB69",
"0  c #BFD370",
"q  c #C0D470",
"w  c #B0CA69",
"e  c #AEC968",
"r  c #ADC867",
"t  c #C1D470",
"y  c #BAD06D",
"u  c #BFD36F",
"i  c #A5C364",
"p  c #BDD26F",
"a  c #BBD16E",
"s  c #9FBF62",
"d  c #9FBE62",
"f  c #A7C464",
"g  c #7CA459",
"h  c #7AA258",
"j  c #A2C163",
"k  c #A0BF62",
"l  c #7AA25A",
"z  c #78A059",
"x  c #A9C565",
"c  c #7FA65A",
"v  c #7DA35B",
"b  c #788775",
"n  c #788576",
"m  c #BED36F",
"M  c #7AA358",
"N  c #789F5A",
"B  c #788378",
"V  c #78827A",
"C  c #A6C364",
"Z  c #83A95B",
"A  c #81A65C",
"S  c #798A71",
"D  c #798974",
"F  c #8E978B",
"G  c #8F988D",
"H  c #779F59",
"J  c #778278",
"K  c #79827B",
"L  c #949D91",
"P  c #969E92",
"I  c #88AD5C",
"U  c #86AA5D",
"Y  c #798E6E",
"T  c #798D70",
"R  c #8A9488",
"E  c #8C958A",
"W  c #949D92",
"Q  c #959E92",
"!  c #A1C062",
"~  c #779E5A",
"^  c #788379",
"/  c #7A837C",
"(  c #939C90",
")  c #7AA359",
"_  c #788478",
"`  c #7B847C",
"'  c #A4AC9F",
"]  c #A5ADA0",
"[  c #969F93",
"{  c #7BA458",
"}  c #768276",
"|  c #7A837B",
" . c #B3BAAC",
".. c #B4BBAD",
"X. c #97A094",
"o. c #93B65F",
"O. c #91B35F",
"+. c #799665",
"@. c #799568",
"#. c #8F998C",
"$. c #929B90",
"%. c #7C847E",
"&. c #B7BEB0",
"*. c #B6BDAF",
"=. c #7B857D",
"-. c #B2B9AB",
";. c #B5BCAE",
":. c #ADB4A7",
">. c #ABB3A5",
",. c #AEB6A8",
"<. c #A3AB9F",
"1. c #A4ACA0",
"2. c #7A847B",
"3. c #9AA397",
"4. c #ECEEE1",
"5. c #F2F3E6",
"6. c #939C91",
"7. c #EEEFE2",
"8. c #F3F4E7",
"9. c white",
/* pixels */
"              . X o o X .                 . X o o X .           ",
"O O O O O O O + @ # # @ + O O O O O O O O + @ # # @ + O O O O O ",
"$ $ $ $ $ $ $ % & * * & % $ $ $ $ $ $ $ $ % & * * & % $ $ $ $ $ ",
"= = = = = = = - ; : : ; - = = = = = = = = - ; : : ; - = = = = = ",
"> > > > > > > , < 1 1 < , > > > > > > > > , < 1 1 < , > > > > > ",
"> > 2 2 2 2 > > 3 3 3 3 > > 2 2 2 2 2 2 > > 3 3 3 3 > > 2 2 2 2 ",
"> 3 4 5 5 4 3 > > > > > > 3 4 5 5 5 5 4 3 > > > > > > 3 4 5 5 5 ",
"2 = 6 7 7 6 = 2 > > > > 2 = 6 7 7 7 7 6 = 2 2 2 2 2 2 = 6 7 7 7 ",
"8 9 0 q q 0 9 w = > > = w 9 0 q q q q 0 9 8 8 8 8 8 8 9 0 q q q ",
"7 7 q q q q 7 6 3 2 2 3 6 7 q q q q q q 7 7 7 7 7 7 7 7 q q q q ",
"q q q q q q q 0 e r r e 0 q q q q q q q q q q q q q q q q q q q ",
"q q q q q q q q t 7 7 t q q q q q q q q q q q q q q q q q q q q ",
"q q q q q q q q q q q q q q q q q q q q q q q q q q y y y y y y ",
"q q q q q q q q q q q q q q q q q q q q q q q q q u i > > > > > ",
"q q q q q q q q q q q q q q q q q q q q q q p p p a i > s d d d ",
"q q q q q q q q q q q q q q q q q q q q q u f i i i > - g h h h ",
"q q q q q q q q q q q q q q q q q q q q u p i > > > j k l z z z ",
"q q q q q q q q q q q q q q q q q q q u x f > > > - c v b n n n ",
"q q q q q q q q q q q q q q q q q q q m i > > > > - M N B V V V ",
"q q q q q q q q q q q q q q q q q q q m C > > j Z A S D F G G G ",
"q q q q q q q q q q q q q q q q q q t 0 C > 3 2 M H J K L P P P ",
"q q q q q q q q q q q q q q q q q 0 e r = j I U Y T R E W Q Q Q ",
"q q q q q q q q q q q q q q q q q m 3 , > ! O ~ ^ / ( Q Q Q Q Q ",
"q q q q q q q q q q q q q q q q q m C > > - ) N _ ` ' ] [ Q Q Q ",
"q q q q q q q q q q q q q q q q 7 6 C > 3 2 { z } |  ...X.Q Q Q ",
"q q q q q q q q q q q q q q q 6 5 4 3 2 o.O.+.@.#.$. . .X.Q Q Q ",
"q q q q q q q q q q q q q q q m = 2 > ! O ~ ^ %...&.*...X.Q Q Q ",
"q q q q q q q q q q q q q q q m C > > - ) N _ =.-.;.:.>.[ Q Q Q ",
"q q q q q q q q q q q q q q q m C > > - ) N _ =.-...[ W Q Q L L ",
"q q q q q q q q q q q q q q q m C > > - ) N _ =.:.,.[ Q Q [ <.1.",
"q q q q q q q q q q q q q q q m C > > - ) N _ 2.L Q Q Q Q 3.4.5.",
"q q q q q q q q q q q q q q q m C > > - ) N _ 2.6.Q Q Q Q 3.7.8."
};
