/* XPM */
static char *result[] = {
/* columns rows colors chars-per-pixel */
"32 32 8 1 ",
"  c #C0D470",
". c #A4C263",
"X c #78A158",
"o c #78827A",
"O c #959E92",
"+ c #B5BCAE",
"@ c #F3F4E7",
"# c white",
/* pixels */
"                                ",
"                                ",
"                                ",
"                                ",
"                                ",
"                                ",
"                                ",
"                                ",
"                                ",
"                                ",
"                                ",
"                                ",
"                                ",
"                                ",
"                        ........",
"                        ........",
"                      ......XXXX",
"                      ......XXXX",
"                    ......XXoooo",
"                    ......XXoooo",
"                    ....XXooOOOO",
"                    ....XXooOOOO",
"                  ....XXooOOOOOO",
"                  ....XXooOOOOOO",
"                  ....XXoo++OOOO",
"                  ....XXoo++OOOO",
"                ....XXoo++++OOOO",
"                ....XXoo++++OOOO",
"                ....XXoo++OOOOOO",
"                ....XXoo++OOOOOO",
"                ....XXooOOOOOO@@",
"                ....XXooOOOOOO@@"
};
