/* XPM */
static char *_f53df563fdd47e6fd22f0d19fdac280aVeP7h0Rm6qLycnf[] = {
/* columns rows colors chars-per-pixel */
"32 32 161 2 ",
"   c #C0D470",
".  c #BED36F",
"X  c #A6C364",
"o  c #A4C263",
"O  c #A2C062",
"+  c #7AA359",
"@  c #789F5A",
"#  c #788478",
"$  c #7A847B",
"%  c #939C91",
"&  c #97A094",
"*  c #B3BAAC",
"=  c #B8BFB1",
"-  c #F0F1E4",
";  c #EEF2E5",
":  c #A0D6C5",
">  c #9BD4C3",
",  c #7BA359",
"<  c #79A05A",
"1  c #EEF0E2",
"2  c #ECF1E3",
"3  c #9FD5C3",
"4  c #9AD3C1",
"5  c #9DBD61",
"6  c #9BBB61",
"7  c #7A9E5E",
"8  c #7A9C60",
"9  c #939E8F",
"0  c #959E92",
"q  c #9AA396",
"w  c #99A394",
"e  c #8CAE71",
"r  c #8BAE6E",
"t  c #7EA969",
"y  c #A5C364",
"u  c #A2C162",
"i  c #7AA358",
"p  c #79A15B",
"a  c #949E90",
"s  c #969E93",
"d  c #959E93",
"f  c #779F59",
"g  c #769F56",
"h  c #77A057",
"j  c #B9CF6D",
"k  c #B7CE6C",
"l  c #A3C263",
"z  c #99BA60",
"x  c #97B860",
"c  c #81A267",
"v  c #80A068",
"b  c #98B960",
"n  c #C1D470",
"m  c #BFD370",
"M  c #A5C263",
"N  c #A3C163",
"B  c #A5C363",
"V  c #A2C163",
"C  c #78A257",
"Z  c #76A056",
"A  c #BFD470",
"S  c #B5CD6B",
"D  c #B4CC6A",
"F  c #93B65F",
"G  c #92B55F",
"H  c #C1D570",
"J  c #B2CB69",
"K  c #B0CA69",
"L  c #B1CA69",
"P  c #AEC968",
"I  c #ADC867",
"U  c #BDD26F",
"Y  c #A7C464",
"T  c #BFD36F",
"R  c #7DA559",
"E  c #7FA65A",
"W  c #A9C565",
"Q  c #78A158",
"!  c #788973",
"~  c #798A71",
"^  c #81A65C",
"/  c #83A95B",
"(  c #81A85A",
")  c #84AA5B",
"_  c #A8C465",
"`  c #AAC666",
"'  c #768079",
"]  c #768277",
"[  c #77A157",
"{  c #A1A99D",
"}  c #9EA79A",
"|  c #7A8E71",
" . c #798E6E",
".. c #86AA5D",
"X. c #87AC5C",
"o. c #788C6F",
"O. c #88AD5C",
"+. c #B7BEB0",
"@. c #79827C",
"#. c #768177",
"$. c #779F58",
"%. c #77A156",
"&. c #778278",
"*. c #77807A",
"=. c #79A357",
"-. c #A6C363",
";. c #B5BCAE",
":. c #B3BAAD",
">. c #9AA297",
",. c #97A093",
"<. c #7A916D",
"1. c #78906A",
"2. c #79906C",
"3. c #879185",
"4. c #879187",
"5. c #799269",
"6. c #8BAF5E",
"7. c #8DB05D",
"8. c #B4BBAD",
"9. c #7A827D",
"0. c #767F7A",
"q. c #949D92",
"w. c #969F93",
"e. c #949D91",
"r. c #78817B",
"t. c #768178",
"y. c #769F58",
"u. c #76A156",
"i. c #767F79",
"p. c #929B90",
"a. c #90988E",
"s. c #848E84",
"d. c #848D84",
"f. c #858E84",
"g. c #91998F",
"h. c #8F998C",
"j. c #799568",
"k. c #789566",
"l. c #799467",
"z. c #838E82",
"x. c #90998F",
"c. c #B6BDAF",
"v. c #B8BFB0",
"b. c #98A194",
"n. c #7A837D",
"m. c #ACB4A6",
"M. c #ABB3A5",
"N. c #9DA699",
"B. c #9FA79B",
"V. c #8B948A",
"C. c #899288",
"Z. c #899289",
"A. c #939C90",
"S. c #B2BAAC",
"D. c #A4ACA0",
"F. c #A5ADA1",
"G. c #BDC4B6",
"H. c #BFC5B7",
"J. c #F2F3E6",
"K. c #F3F4E7",
"L. c white",
/* pixels */
"                              . X o o O + @ # $ % & * = - ; : > ",
"                              . X o o O , < # $ % & * = 1 2 3 4 ",
"                              . X o o o 5 6 7 8 9 0 q w e r t t ",
"                              . y o o o o u i p a s d 9 f g h h ",
"                                j k y o o l z x c v v c x b b b ",
"                                n m M N o o B V C Z Z C V B B B ",
"                                  A S D B o o N F G G F N o o o ",
"                                    H A M N o o B B B B N N N N ",
"                                      m J K M o o o o M K L L L ",
"                                        H A B N N N N B A H H H ",
"                                          m P I I I I P m       ",
"                                            n H H H H n         ",
"                                                                ",
"                                                                ",
"U U U U         U U U U                     U U U U U U         ",
"y y y Y T     T Y y y Y T                 T Y y y y y Y T       ",
"V V o y U T T U y o o y U T             T U y o o o o y U T T T ",
"R E O o Y Y Y Y o o o o Y W T         T W Y o o o o o o Y Y Y Y ",
"Q i O o o o o o o o o o o X T         T y o o o o o o o o o o o ",
"! ~ ^ / V o o o o V / ( ( ) _ ` ` ` ` ` o o o V / ( ( / V o o o ",
"' ] f i N B B B B N i [ [ i u B o o o o o o B N i [ [ i N B B B ",
"{ } |  ...X.X.X.X... .o.o. ...O.V o o o o V O... .o.o. ...X.X.X.",
"+.* @.#.$.%.%.%.%.$.&.*.*.&.$.=.N -.-.-.-.N =.$.&.*.*.&.$.%.%.%.",
";.:.>.,.<.1.1.1.1.2.3.4.4.3.2.5.6.7.7.7.7.6.5.2.3.4.4.3.2.1.1.1.",
";.;.+.8.9.0.*.*.*.@.q.w.w.e.r.t.y.u.u.u.u.y.&.@.q.w.w.e.r.i.i.i.",
";.;.;.* p.a.s.d.d.f.e.0 0 0 g.h.j.k.k.k.k.l.z.f.e.0 0 0 g.x.x.x.",
"c.c.c.c.v.c.b.w.w.w.0 0 e.w.;.:.n.*.*.*.*.r.e.w.0 0 0 & ;.+.+.+.",
"m.m.m.m.m.M.w.0 0 0 0 0 N.B.8.* V.C.C.C.C.Z.e.0 0 0 0 & * ;.;.;.",
"A.A.A.A.A.% e.e.e.e.e.w.* ;.8.8.;.;.;.;.;.8.w.e.e.e.e.w.S.8.8.8.",
"D.D.D.D.D.D.D.D.D.D.D.F.G.H.H.H.H.H.H.H.H.G.F.D.D.D.D.F.G.H.H.H.",
"J.J.J.J.J.J.J.J.J.J.J.J.J.J.J.J.J.J.J.J.J.J.J.J.J.J.J.J.J.J.J.J.",
"K.K.K.K.K.K.K.K.K.K.K.K.K.K.K.K.K.K.K.K.K.K.K.K.K.K.K.K.K.K.K.K."
};
