/* XPM */
static char *result[] = {
/* columns rows colors chars-per-pixel */
"32 32 9 1 ",
"  c #C0D470",
". c #A4C263",
"X c #78A158",
"o c #78827A",
"O c #959E92",
"+ c #B5BCAE",
"@ c #F3F4E7",
"# c #9BD4C3",
"$ c white",
/* pixels */
"                ....XXooOO++@@##",
"                ....XXooOO++@@##",
"                  ....XXOOOOXXXX",
"                  ....XXOOOOXXXX",
"                  ......XXXX....",
"                  ......XXXX....",
"                    ............",
"                    ............",
"                      ......    ",
"                      ......    ",
"                                ",
"                                ",
"                                ",
"                                ",
"                            ....",
"                            ....",
"                        ........",
"                        ........",
"                      ........XX",
"                      ........XX",
"                    ....XXXXXXoo",
"                    ....XXXXXXoo",
"                  ....XXooooooOO",
"                  ....XXooooooOO",
"                  ....XXoo++OOOO",
"                  ....XXoo++OOOO",
"                  ..XXoo++++OOOO",
"                  ..XXoo++++OOOO",
"                ....XXoo++OOOOOO",
"                ....XXoo++OOOOOO",
"                ....XXooOOOOOO@@",
"                ....XXooOOOOOO@@"
};
