/* XPM */
static char *result[] = {
/* columns rows colors chars-per-pixel */
"32 32 118 2 ",
"   c #78A158",
".  c #7AA45E",
"X  c #99D1BD",
"o  c #9BD4C3",
"O  c #79A258",
"+  c #7BA45E",
"@  c #99D0BB",
"#  c #9AD3C1",
"$  c #9DBD61",
"%  c #9BBC62",
"&  c #7FAA69",
"*  c #7EA969",
"=  c #A4C263",
"-  c #A5C263",
";  c #A2C062",
":  c #79A257",
">  c #77A057",
",  c #B8CF6C",
"<  c #B7CE6C",
"1  c #A5C364",
"2  c #A3C263",
"3  c #99BA60",
"4  c #98B960",
"5  c #C1D470",
"6  c #BFD370",
"7  c #A3C163",
"8  c #A5C363",
"9  c #C0D470",
"0  c #BFD470",
"q  c #B5CD6B",
"w  c #B4CC6A",
"e  c #C1D570",
"r  c #B2CB69",
"t  c #B1CA69",
"y  c #B0CA69",
"u  c #AEC968",
"i  c #ADC867",
"p  c #BAD06D",
"a  c #BFD36F",
"s  c #BBD16E",
"d  c #BDD26F",
"f  c #A7C464",
"g  c #A2C163",
"h  c #7DA559",
"j  c #7FA65A",
"k  c #A9C565",
"l  c #7AA358",
"z  c #788973",
"x  c #798A71",
"c  c #81A65C",
"v  c #83A95B",
"b  c #AAC666",
"n  c #ABC766",
"m  c #77817A",
"M  c #778278",
"N  c #779F59",
"B  c #8B958A",
"V  c #8A9488",
"C  c #798D70",
"Z  c #798E6E",
"A  c #86AA5D",
"S  c #88AD5C",
"D  c #969F93",
"F  c #949D91",
"G  c #79827B",
"H  c #779F58",
"J  c #79A357",
"K  c #A6C363",
"L  c #BED36F",
"P  c #959E92",
"I  c #889287",
"U  c #879185",
"Y  c #79906C",
"T  c #799269",
"R  c #8BAF5E",
"E  c #8EB15D",
"W  c #A6C364",
"Q  c #939C91",
"!  c #78817B",
"~  c #768178",
"^  c #769F58",
"/  c #A1A99D",
"(  c #A1A99C",
")  c #919A90",
"_  c #8F998C",
"`  c #799568",
"'  c #799665",
"]  c #91B35F",
"[  c #93B65F",
"{  c #B4BBAD",
"}  c #B6BDAF",
"|  c #B7BEB0",
" . c #7C847E",
".. c #788379",
"X. c #779E5A",
"o. c #A1C062",
"O. c #9DA699",
"+. c #9FA79B",
"@. c #B5BCAE",
"#. c #B2B9AB",
"$. c #7B857D",
"%. c #788478",
"&. c #789F5A",
"*. c #7AA359",
"=. c #A4ACA0",
"-. c #A5ACA0",
";. c #AFB7A9",
":. c #B0B7AA",
">. c #ADB4A7",
",. c #F2F3E6",
"<. c #ECEEE1",
"1. c #9BA397",
"2. c #969E92",
"3. c #7A847B",
"4. c #F3F4E7",
"5. c #EEEFE2",
"6. c #9AA397",
"7. c white",
/* pixels */
"              . X o o X .                 . X o o X .           ",
"O O O O O O O + @ # # @ + O O O O O O O O + @ # # @ + O O O O O ",
"$ $ $ $ $ $ $ % & * * & % $ $ $ $ $ $ $ $ % & * * & % $ $ $ $ $ ",
"= = = = = - - ; : > > : ; - - - - - - - - ; : > > : ; - - - - - ",
", , , < 1 = = 2 3 4 4 3 2 = = = = = = = = 2 3 4 4 3 2 = = = = = ",
"5 5 5 6 - 7 = = 8 8 8 8 = = 7 7 7 7 7 7 = = 8 8 8 8 = = 7 7 7 7 ",
"9 9 9 0 q w 8 = = = = = = 8 w q q q q w 8 = = = = = = 8 w q q q ",
"9 9 9 9 e 0 - 7 7 7 7 7 7 - 0 e e e e 0 - 7 = = = = 7 - 0 e e e ",
"9 9 9 9 9 6 r t t t t t t r 6 9 9 9 9 6 r y - = = - y r 6 9 9 9 ",
"9 9 9 9 9 9 e e e e e e e e 9 9 9 9 9 9 e 0 8 7 7 8 0 e 9 9 9 9 ",
"9 9 9 9 9 9 9 9 9 9 9 9 9 9 9 9 9 9 9 9 9 6 u i i u 6 9 9 9 9 9 ",
"9 9 9 9 9 9 9 9 9 9 9 9 9 9 9 9 9 9 9 9 9 9 5 e e 5 9 9 9 9 9 9 ",
"p p p p 9 9 9 9 9 9 9 9 9 9 9 9 9 9 9 9 9 9 9 9 9 9 9 9 9 9 9 9 ",
"= = = 1 a 9 9 9 9 9 9 9 9 9 9 9 9 9 9 9 9 9 9 9 9 9 9 9 9 9 9 9 ",
"= = = 1 s d 9 9 9 9 9 9 9 9 9 9 9 9 9 9 9 9 9 9 9 9 9 9 9 9 9 9 ",
"= = = = 1 f a 9 9 9 9 9 9 9 9 9 9 9 9 9 9 9 9 9 9 9 9 9 9 9 9 9 ",
"g g g g = 1 d a a a 9 9 9 9 9 9 9 9 9 9 9 9 9 9 9 9 9 9 9 9 9 9 ",
"h h h j ; = f f f k a 9 9 9 9 9 9 9 9 9 9 9 9 9 9 9 9 9 9 9 9 9 ",
"      l ; = = = = 1 a 9 9 9 9 9 9 9 9 9 9 9 9 9 9 9 9 9 9 9 9 9 ",
"z z z x c v g = = = b n a 9 9 9 9 9 9 9 9 9 9 9 9 9 9 9 9 9 9 9 ",
"m m m M N l 7 8 = = = 1 6 5 9 9 9 9 9 9 9 9 9 9 9 9 9 9 9 9 9 9 ",
"B B B V C Z A S g = = - i u 6 9 9 9 9 9 9 9 9 9 9 9 9 9 9 9 9 9 ",
"D D D F G M H J 7 K = = 2 8 L 9 9 9 9 9 9 9 9 9 9 9 9 9 9 9 9 9 ",
"P P P F I U Y T R E 7 = = W L 9 9 9 9 9 9 9 9 9 9 9 9 9 9 9 9 9 ",
"P P P P P Q ! ~ ^ J 7 8 = W 0 e 9 9 9 9 9 9 9 9 9 9 9 9 9 9 9 9 ",
"P P P D / ( ) _ ` ' ] [ 7 8 w q 0 9 9 9 9 9 9 9 9 9 9 9 9 9 9 9 ",
"P P F D { } | {  ...X.O o.= 7 - L 9 9 9 9 9 9 9 9 9 9 9 9 9 9 9 ",
"P P O.+.{ @.@.#.$.%.&.*.; = = W L 9 9 9 9 9 9 9 9 9 9 9 9 9 9 9 ",
"F D { } @.@.@.#.$.%.&.*.; = = W L 9 9 9 9 9 9 9 9 9 9 9 9 9 9 9 ",
"=.-.;.:.:.:.:.>.$.%.&.*.; = = W L 9 9 9 9 9 9 9 9 9 9 9 9 9 9 9 ",
",.<.1.2.2.2.2.F 3.%.&.*.; = = W L 9 9 9 9 9 9 9 9 9 9 9 9 9 9 9 ",
"4.5.6.P P P P Q 3.%.&.*.; = = W L 9 9 9 9 9 9 9 9 9 9 9 9 9 9 9 "
};
