/* XPM */
static char *result[] = {
/* columns rows colors chars-per-pixel */
"32 32 152 2 ",
"   c #9BD4C3",
".  c #A0D6C5",
"X  c #EEF2E5",
"o  c #F0F1E4",
"O  c #B8BFB1",
"+  c #B5BCAE",
"@  c #B2B9AB",
"#  c #7B857D",
"$  c #788478",
"%  c #789F5A",
"&  c #7AA359",
"*  c #A2C062",
"=  c #A4C263",
"-  c #A6C364",
";  c #BED36F",
":  c #C0D470",
">  c #9AD3C1",
",  c #9FD5C3",
"<  c #ECF1E3",
"1  c #EEF0E2",
"2  c #7B867C",
"3  c #79A05A",
"4  c #7BA359",
"5  c #7EA969",
"6  c #8BAE6E",
"7  c #8EAF72",
"8  c #B3BBAA",
"9  c #B2BAAA",
"0  c #7B9E62",
"q  c #7A9E5E",
"w  c #9BBB61",
"e  c #9DBD61",
"r  c #A5C364",
"t  c #BAD06D",
"y  c #BCD16E",
"u  c #77A057",
"i  c #769F56",
"p  c #79A15B",
"a  c #B3BBAB",
"s  c #B6BCB0",
"d  c #7BA25C",
"f  c #7AA358",
"g  c #A2C162",
"h  c #BFD36F",
"j  c #98B960",
"k  c #97B861",
"l  c #89A96E",
"z  c #89A86F",
"x  c #99BA60",
"c  c #A3C263",
"v  c #A5C363",
"b  c #A2C163",
"n  c #78A156",
"m  c #759F56",
"M  c #A3C163",
"N  c #A5C263",
"B  c #93B65F",
"V  c #92B55F",
"C  c #B4CC6A",
"Z  c #B5CD6B",
"A  c #BFD470",
"S  c #C1D570",
"D  c #B1CA69",
"F  c #B0CA69",
"G  c #B2CB69",
"H  c #BFD370",
"J  c #AEC968",
"K  c #ADC867",
"L  c #C1D470",
"P  c #BDD26F",
"I  c #A7C464",
"U  c #A9C565",
"Y  c #AAC666",
"T  c #83A95B",
"R  c #81A85A",
"E  c #77A157",
"W  c #88AD5C",
"Q  c #87AC5C",
"!  c #86AA5D",
"~  c #798E6E",
"^  c #788C6F",
"/  c #A6C363",
"(  c #79A357",
")  c #77A156",
"_  c #779F58",
"`  c #788379",
"'  c #78817B",
"]  c #77807A",
"[  c #778278",
"{  c #768177",
"}  c #767F79",
"|  c #8DB05D",
" . c #8BAF5E",
".. c #799269",
"X. c #78906A",
"o. c #78906B",
"O. c #79837B",
"+. c #879086",
"@. c #879185",
"#. c #79906C",
"$. c #7A916D",
"%. c #97A093",
"&. c #99A196",
"*. c #76A156",
"=. c #769F58",
"-. c #768178",
";. c #767F7A",
":. c #778179",
">. c #949D91",
",. c #949D92",
"<. c #79827C",
"1. c #7A827D",
"2. c #B4BBAD",
"3. c #B7BEB0",
"4. c #789566",
"5. c #799568",
"6. c #8F998C",
"7. c #90988E",
"8. c #848E84",
"9. c #848D84",
"0. c #858E84",
"q. c #959E92",
"w. c #91998F",
"e. c #929B90",
"r. c #B3BAAC",
"t. c #77807B",
"y. c #7B847E",
"u. c #B6BDAF",
"i. c #98A194",
"p. c #969F93",
"a. c #B3BAAD",
"s. c #7A837D",
"d. c #B8BFB0",
"f. c #899288",
"g. c #889188",
"h. c #808A81",
"j. c #828C83",
"k. c #AAB2A4",
"l. c #ABB3A5",
"z. c #9DA699",
"x. c #9FA79B",
"c. c #8B948A",
"v. c #ACB4A6",
"b. c #939C91",
"n. c #939C90",
"m. c #BFC5B7",
"M. c #BDC4B6",
"N. c #A5ADA1",
"B. c #A4ACA0",
"V. c #F2F3E6",
"C. c #F3F4E7",
"Z. c white",
/* pixels */
"  . X o O + + @ # $ % & * = = - ; : : : : : : : : : : : : : : : ",
"> , < 1 O + + @ 2 $ 3 4 * = = - ; : : : : : : : : : : : : : : : ",
"5 5 6 7 8 + + 9 0 q w e = r t y : : : : : : : : : : : : : : : : ",
"u u i p a s s a d f g = = - h : : : : : : : : : : : : : : : : : ",
"j j j k l z z l k x c = = - ; : : : : : : : : : : : : : : : : : ",
"v v v b n m m n b v = = M N ; : : : : : : : : : : : : : : : : : ",
"= = = M B V V B M = = v C Z A : : : : : : : : : : : : : : : : : ",
"M M M M v v v v = = M N A S : : : : : : : : : : : : : : : : : : ",
"D D D F N = = = = N F G H : : : : : : : : : : : : : : : : : : : ",
"S S S A v M M M M v A S : : : : : : : : : : : : : : : : : : : : ",
": : : H J K K K K J H : : : : : : : : : : : : : : : : : : : : : ",
": : : : L S S S S L : : : : : : : : : : : : : : : : : : : : : : ",
": : : : : : : : : : : : : : : : : : : : : : : : : : : : : : : : ",
": : : : : : : : : : : : : : : : : : : : : : : : : : : : : : : : ",
": : : : : : P P P P P P : : : : : : : : : : P P P P : : : : P P ",
": : : : : h I r r r r I h : : : : : : : : h I r r I h : : h I r ",
": : : : h P r = = = = r P h : : : : : : h P r = = r P h h P r = ",
": : : h U I = = = = = = I U h : : : : h U I = = = = I I I I = = ",
": : : h r = = = = = = = = r h : : : : h r = = = = = = = = = = = ",
"Y Y Y Y = = = b T R R T b = Y Y Y Y Y Y = b T T b = = = = b T R ",
"= = = = v v v M f E E f M v = = = = = = v M f f M v v v v M f E ",
"= = = b W Q Q ! ~ ^ ^ ~ ! W b = = = = b W ! ~ ~ ! Q Q Q Q ! ~ ^ ",
"/ / / M ( ) ) _ ` ' ] [ _ ( M / / / / M ( _ [ [ _ ) ) ) ) _ { } ",
"| | |  ...X.X.o.` O.+.@.#... .| | | |  ...#.@.@.#.X.X.X.X.$.%.&.",
"*.*.*.=.-.;.] ] :.O.>.>.' -.=.*.*.*.*.=.-.' >.,.<.] ] ] ;.1.2.3.",
"4.4.4.5.6.7.8.9.9.0.>.q.w.6.5.4.4.4.4.5.6.w.q.>.0.9.9.8.7.e.r.+ ",
"] ] t.y.2.u.i.p.p.p.>.p.+ a.s.] ] ] ] s.a.+ p.>.p.p.p.i.u.d.u.u.",
"f.g.h.j.k.l.p.q.q.q.z.x.2.r.c.f.f.f.f.c.r.2.x.z.q.q.q.p.l.v.v.v.",
"+ 2.p.>.b.b.>.>.>.p.r.+ 2.2.+ + + + + + 2.2.+ r.p.>.>.>.b.n.n.n.",
"m.M.N.B.B.B.B.B.B.N.M.m.m.m.m.m.m.m.m.m.m.m.m.M.N.B.B.B.B.B.B.B.",
"V.V.V.V.V.V.V.V.V.V.V.V.V.V.V.V.V.V.V.V.V.V.V.V.V.V.V.V.V.V.V.V.",
"C.C.C.C.C.C.C.C.C.C.C.C.C.C.C.C.C.C.C.C.C.C.C.C.C.C.C.C.C.C.C.C."
};
