/* XPM */
static char *result[] = {
/* columns rows colors chars-per-pixel */
"32 32 86 1 ",
"  c #767F7A",
". c #739E54",
"X c #779C5C",
"o c #76A156",
"O c #78A157",
"+ c #79A258",
"@ c #778E6B",
"# c #788C6F",
"$ c #779365",
"% c #799566",
"& c #779860",
"* c #77906A",
"= c #78916A",
"- c #778773",
"; c #798A74",
": c #77807A",
"> c #7B847E",
", c #7E9175",
"< c #7CA764",
"1 c #7EA969",
"2 c #80A759",
"3 c #84AA5B",
"4 c #89AB5F",
"5 c #8DB15D",
"6 c #93B55E",
"7 c #819F63",
"8 c #818F7D",
"9 c #829B73",
"0 c #85977C",
"q c #83A163",
"w c #92B461",
"e c #96B860",
"r c #9BBB61",
"t c #82AF75",
"y c #86B171",
"u c #A0BE64",
"i c #A4C263",
"p c #AAC666",
"a c #ADC867",
"s c #AFC968",
"d c #B3CC6A",
"f c #B9CF6D",
"g c #BDD26F",
"h c #BFD370",
"j c #C0D470",
"k c #7F8981",
"l c #828C83",
"z c #8B948A",
"x c #8F988E",
"c c #919A8E",
"v c #959E92",
"b c #97A095",
"n c #99A196",
"m c #9DA699",
"M c #A3AA9E",
"N c #A4ACA0",
"B c #ACB3A7",
"V c #AFB6A9",
"C c #B5BCAE",
"Z c #B7BEB0",
"A c #BABFB4",
"S c #A9C391",
"D c #94CAAD",
"F c #95CBB0",
"G c #9AD2BE",
"H c #B2C1A4",
"J c #BEC4B6",
"K c #BDD7BA",
"L c #CDDABA",
"P c #96D2C1",
"I c #9BD4C3",
"U c #AEDBCB",
"Y c #BDE1D1",
"T c #C9CDC1",
"R c #C3E3D3",
"E c #D7E1D3",
"W c #D2E9DA",
"Q c #E1E3D6",
"! c #DFEEE0",
"~ c #E5EFE1",
"^ c #E8F0E2",
"/ c #F2F3E6",
"( c #F7F7EA",
") c #F9F7EA",
"_ c #FCFAED",
"` c #FDFAF1",
/* pixels */
"IIIItOOOOO+OOO<GIIIIIIIIIIIIIIII",
"IIIItOOO+++++O<GIIGIIIIIIIIIIIII",
"1111erruurrrrur1111FIIIIIIIIIIII",
".OO.epiiiiiiiiu+oooDIIPPIIIIIIII",
"eeeeiiiiiiiiiii6ee6yyK!!!YIIIIII",
"iiiiiiiuiiiiiiiiiii2.L```WPPIIII",
"iiiiddddddaiiiiiiiie6pSHJU!YIIII",
"iiiigjjjjjdiiiiiiiiii3X,cA`!IIII",
"dddsggjjjjgsddsiiiiii3o9lMTTRRII",
"jjjjjjjjjjjjjjgiiiiii3o= lcV_^II",
"jjjjjjjjjjjjhjgssiiii3O= lvV(~II",
"jjjjjjjjjjgjjjjjjiiii5O= lvV)^II",
"gfggggjjjjjjjjjjgiiii52%-8xNQEUU",
"iiirggjjjjjjjjjjjiiiiii5O% >vM//",
"iiiidggjjjjjjjjjjpiiiii5o% lvN//",
"iiiiiidjjjjgjjhjjgjsiii5o% lvM//",
"iiiiiidjjjgjjjjjjjjpiii5o% lvN//",
"++++eiiiiisjjjjjjjjpiii4o%:kvN//",
"+OOoepiiiisjjjjjjjjpiip5o% kvN//",
";;-;q2eiiiissjjjjjggge2%-,xvvN//",
"::::Xo6piiiiijjjgjjgjw.= znvvN^(",
"zzzx;-736iiiajjjjjjjjwo= lvvvM//",
"bbbbk &o5iiisjjjjjjjjw.@ lvvvN//",
"cvvvzz,*q56iiddjjjjjju6q$8lzvN//",
"bvbvvb8 *o3iiiijjjjjjsi5o%:>bM//",
"vvvvmMbc0$766iijjjjgdsi5o%:lvM//",
"vbcvBZCJn #o2iijjgjiiii5o%:>bM//",
"bcmmVCCCn #o2iijjjjpiii5o%:lmB//",
"vvVZCCCJn:@o3iijjjjiiii5.= zHL^/",
"NNCVCCCCb:#o2iijjjjsiiu4X;>zZJ//",
"//LVCCCCn:@O3iijjjjpi3O@ lvmVL//",
"//JCCCCZn:;O2iigjjgai3O@ zvmVA//"
};
