/* XPM */
static char *result[] = {
/* columns rows colors chars-per-pixel */
"32 32 131 2 ",
"   c #C0D470",
".  c #BFD36F",
"X  c #A7C464",
"o  c #A4C263",
"O  c #A5C363",
"+  c #87AC5C",
"@  c #77A156",
"#  c #78906A",
"$  c #767F79",
"%  c #90998F",
"&  c #B7BEB0",
"*  c #B5BCAE",
"=  c #B4BBAD",
"-  c #BFC5B7",
";  c #F2F3E6",
":  c #F3F4E7",
">  c #767F7A",
",  c #90988E",
"<  c #77807A",
"1  c #848E84",
"2  c #97A094",
"3  c #9FA79B",
"4  c #A9C565",
"5  c #A5C364",
"6  c #848D84",
"7  c #959E92",
"8  c #9DA699",
"9  c #B3BAAC",
"0  c #BDC4B6",
"q  c #AAC666",
"w  c #969F93",
"e  c #A5ADA1",
"r  c #88AD5C",
"t  c #79A357",
"y  c #799269",
"u  c #778278",
"i  c #838E82",
"p  c #949D91",
"a  c #A4ACA0",
"s  c #A2C163",
"d  c #A3C163",
"f  c #8BAF5E",
"g  c #769F58",
"h  c #799467",
"j  c #79827C",
"k  c #818B81",
"l  c #A6C363",
"z  c #8DB05D",
"x  c #76A156",
"c  c #789566",
"v  c #77807B",
"b  c #808A81",
"n  c #889188",
"m  c #BED36F",
"M  c #78817B",
"N  c #8A9389",
"B  c #A6C364",
"V  c #B9CF6D",
"C  c #C1D470",
"Z  c #9DA599",
"A  c #B7CE6C",
"S  c #BFD370",
"D  c #9EA69A",
"F  c #A5C263",
"G  c #B2CB69",
"H  c #C1D570",
"J  c #A2C062",
"K  c #A3C263",
"L  c #B0CA69",
"P  c #BFD470",
"I  c #7AA359",
"U  c #7AA258",
"Y  c #99BA60",
"T  c #AEC968",
"R  c #789F5A",
"E  c #779F5A",
"W  c #96B760",
"Q  c #ADC867",
"!  c #788478",
"~  c #788379",
"^  c #7A9A61",
"/  c #79A358",
"(  c #93B65F",
")  c #ABC766",
"_  c #7A847B",
"`  c #7B857D",
"'  c #7B857E",
"]  c #799863",
"[  c #779F59",
"{  c #91B35F",
"}  c #939C91",
"|  c #ADB4A7",
" . c #889286",
".. c #778178",
"X. c #799665",
"o. c #8EB15D",
"O. c #969E92",
"+. c #B0B7AA",
"@. c #B6BDAF",
"#. c #8B948A",
"$. c #7A837D",
"%. c #799568",
"&. c #9CA598",
"*. c #B3BAAD",
"=. c #8F998C",
"-. c #768178",
";. c #828B82",
":. c #929B90",
">. c #7A827D",
",. c #7A916D",
"<. c #779F58",
"1. c #86AA5D",
"2. c #97A093",
"3. c #768177",
"4. c #798E6E",
"5. c #7AA358",
"6. c #83A95B",
"7. c #99A196",
"8. c #788C6F",
"9. c #77A157",
"0. c #81A85A",
"q. c #9AA397",
"w. c #9BA397",
"e. c #AFB7A9",
"r. c #B3BBAD",
"t. c #EEEFE2",
"y. c #ECEEE1",
"u. c #A5ACA0",
"i. c #939C90",
"p. c #ACB4A6",
"a. c white",
/* pixels */
"                                . X o o O + @ # $ % & * = - ; : ",
"                                . X o o O + @ # $ % & * = - ; : ",
"                                . X o o O + @ # $ % & * = - ; : ",
"                                . X o o O + @ # > , * = = - ; : ",
"                                . X o o O + @ # < 1 2 3 * - ; : ",
"                                . 4 5 o O + @ # < 6 7 8 9 0 ; : ",
"                                  . . q O + @ # < 6 w 7 w e ; : ",
"                                      q O r t y u i p p p a ; : ",
"                                      q o s d f g h j k p a ; : ",
"                                      q o o l z x c v b p a ; : ",
"                                      q o o l z x c v b p a ; : ",
"                                      q o o l z x c v b w e ; : ",
"                                      q o o l z x c < n = 0 ; : ",
"m m m m                               q o s d f g h M N * - ; : ",
"B B B 5 V C                           q O r t y u i p Z * - ; : ",
"o o o o A S m m S                     q O + @ # < 6 7 D * - ; : ",
"o o o o 5 B B F G H                   q O + @ # < 6 7 D * - ; : ",
"J J J J K o o d L P S                 q O + @ # < 6 7 D * - ; : ",
"I I I U Y O o o F O T C               q O + @ # < 6 7 D * - ; : ",
"R R R E W s d o o K Q S .             q O + @ # < 6 7 D * - ; : ",
"! ! ! ~ ^ / ( O o o F 5 )             q O + @ # < 6 7 D * - ; : ",
"_ _ ` ' ] [ { d d o o o q             q O + @ # < 6 7 D * - ; : ",
"} p | 9  ...X.t o.l o o q             q O + @ # < 6 7 D * - ; : ",
"7 O.+.@.#.$.%.g f d s o q . .         q O r t y u i p &.9 0 ; : ",
"7 O.+.* 9 *.=.-.y t r O o 5 4 .       q o s d f g h j ;.w e ; : ",
"7 O.+.* * & :.>.,.<.1.d s o X .       q o o l z x c v b p a ; : ",
"7 O.+.* * * 9 = 2.3.4.5.6.o X .       q o o l z x c v b p a ; : ",
"7 O.+.* * * * & 7.$ 8.9.0.o X .       q o o l z x c v b w e ; : ",
"7 O.+.* * * * & 7.$ 8.9.0.o X .       q o o l z x c < n = 0 ; : ",
"q.w.e.r.* * * & 7.$ 8.9.0.o X .       q o s d f g %.$.#.* - ; : ",
"t.y.u.7 | @.* & 7.$ 8.9.0.o X .       q O r t y -.=.*.9 = - ; : ",
": ; a i.p.@.* & 7.$ 8.9.0.o X .       q O + @ # $ % & * = - ; : "
};
