/* XPM */
static char *result[] = {
/* columns rows colors chars-per-pixel */
"32 32 117 2 ",
"   c #9BD4C3",
".  c #9CD5C4",
"X  c #E5EFE1",
"o  c #F5F5E8",
"O  c #C6CBBD",
"+  c #B6BDAE",
"@  c #90998F",
"#  c #767F79",
"$  c #78906A",
"%  c #77A156",
"&  c #87AC5C",
"*  c #A5C363",
"=  c #A4C263",
"-  c #A7C464",
";  c #BFD36F",
":  c #C0D470",
">  c #AAC666",
",  c #B7BEB0",
"<  c #B5BCAE",
"1  c #B4BBAD",
"2  c #BFC5B7",
"3  c #F2F3E6",
"4  c #F3F4E7",
"5  c #A0D6C5",
"6  c #A1D6C5",
"7  c #E3EDDF",
"8  c #F2F2E5",
"9  c #C2C8BA",
"0  c #B2B9AB",
"q  c #8F998C",
"w  c #768178",
"e  c #799269",
"r  c #79A357",
"t  c #88AD5C",
"y  c #A5C364",
"u  c #A9C565",
"i  c #EEF2E5",
"p  c #EDF1E4",
"a  c #C1C7B9",
"s  c #B9C0B1",
"d  c #8C958B",
"f  c #7A837D",
"g  c #799568",
"h  c #769F58",
"j  c #8BAF5E",
"k  c #A3C163",
"l  c #A2C163",
"z  c #ECEFDF",
"x  c #EBEFDE",
"c  c #BBC3B2",
"v  c #B2BBA9",
"b  c #889385",
"n  c #778178",
"m  c #799665",
"M  c #8EB15D",
"N  c #A6C363",
"B  c #767F7A",
"V  c #90988E",
"C  c #7FA660",
"Z  c #7CA35D",
"A  c #7BA35D",
"S  c #79A05B",
"D  c #779E5A",
"F  c #91B35F",
"G  c #77807A",
"H  c #848E84",
"J  c #97A094",
"K  c #9FA79B",
"L  c #7AA359",
"P  c #79A258",
"I  c #93B65F",
"U  c #A5C263",
"Y  c #ABC766",
"T  c #848D84",
"R  c #959E92",
"E  c #9DA699",
"W  c #B3BAAC",
"Q  c #BDC4B6",
"!  c #A2C062",
"~  c #A1C062",
"^  c #A3C263",
"/  c #ADC867",
"(  c #BFD370",
")  c #969F93",
"_  c #A5ADA1",
"`  c #A6C364",
"'  c #AEC968",
"]  c #C1D470",
"[  c #778278",
"{  c #838E82",
"}  c #949D91",
"|  c #A4ACA0",
" . c #B4CC6A",
".. c #BFD470",
"X. c #BED36F",
"o. c #799467",
"O. c #79827C",
"+. c #818B81",
"@. c #B5CD6B",
"#. c #C1D570",
"$. c #8DB05D",
"%. c #76A156",
"&. c #789566",
"*. c #77807B",
"=. c #808A81",
"-. c #B7CE6C",
";. c #B9CF6D",
":. c #889188",
">. c #78817B",
",. c #8A9389",
"<. c #9DA599",
"1. c #9EA69A",
"2. c #9CA598",
"3. c #828B82",
"4. c #8B948A",
"5. c #B3BAAD",
"6. c white",
/* pixels */
"  . X o O + @ # $ % & * = = - ; : : : > * & % $ # @ , < 1 2 3 4 ",
"5 6 7 8 9 0 q w e r t * = y u ; : : : > * & % $ # @ , < 1 2 3 4 ",
"i p a s d f g h j k l = > ; ; : : : : > * & % $ # @ , < 1 2 3 4 ",
"z x c v b n m r M N = = > : : : : : : > * & % $ B V < 1 1 2 3 4 ",
"C C Z A S D F k k = = = > : : : : : : > * & % $ G H J K < 2 3 4 ",
"L L L L L P I * = = U y Y : : : : : : > * & % $ G T R E W Q 3 4 ",
"! ! ! ! ! ~ k = = ^ / ( ; : : : : : : > * & % $ G T ) R ) _ 3 4 ",
"= = = = = = * ` ` * ' ] : : : : : : : > * t r e [ { } } } | 3 4 ",
"= = = = = k  ...X.X.( : : : : : : : : > = l k j h o.O.+.} | 3 4 ",
"= = = = y U @.#.: : : : : : : : : : : > = = N $.%.&.*.=.} | 3 4 ",
"= = = = -.( ..: : : : : : : : : : : : > = = N $.%.&.*.=.} | 3 4 ",
"` ` ` y ;.] : : : : : : : : : : : : : > = = N $.%.&.*.=.) _ 3 4 ",
"X.X.X.X.: : : : : : : : : : : : : : : > = = N $.%.&.G :.1 Q 3 4 ",
": : : : : : : : : : : : : : : : : : : > = l k j h o.>.,.< 2 3 4 ",
": : : : : : : : : : : : : : : : : : : > * t r e [ { } <.< 2 3 4 ",
": : : : : : : : : : : : : : : : : : : > * & % $ G T R 1.< 2 3 4 ",
": : : : : : : : : : : : : : : : : : : > * & % $ G T R 1.< 2 3 4 ",
": : : : : : : : : : : : : : : : : : : > * & % $ G T R 1.< 2 3 4 ",
": : : : : : : : : : : : : : : : : : : > * & % $ G T R 1.< 2 3 4 ",
": : : : : : : : : : : : : : : : : ; ; > * & % $ G T R 1.< 2 3 4 ",
": : : : : : : : : : : : : : : : ; u y = * & % $ G T R 1.< 2 3 4 ",
": : : : : : : : : : : : : : : : ; - = = * & % $ G T R 1.< 2 3 4 ",
": : : : : : : : : : : : : : : : ; - = = * & % $ G T R 1.< 2 3 4 ",
": : : : : : : : : : : : : : : : ; - = = * t r e [ { } 2.W Q 3 4 ",
": : : : : : : : : : : : : : : : ; - = = = l k j h o.O.3.) _ 3 4 ",
": : : : : : : : : : : : : : : : ; u y = = = N $.%.&.*.=.} | 3 4 ",
": : : : : : : : : : : : : : : : : ; ; > = = N $.%.&.*.=.} | 3 4 ",
": : : : : : : : : : : : : : : : : : : > = = N $.%.&.*.=.) _ 3 4 ",
": : : : : : : : : : : : : : : : : : : > = = N $.%.&.G :.1 Q 3 4 ",
": : : : : : : : : : : : : : : : : ; ; > = l k j h g f 4.< 2 3 4 ",
": : : : : : : : : : : : : : : : ; u y = * t r e w q 5.W 1 2 3 4 ",
": : : : : : : : : : : : : : : : ; - = = * & % $ # @ , < 1 2 3 4 "
};
