/* XPM */
static char *result[] = {
/* columns rows colors chars-per-pixel */
"32 32 252 2 ",
"   c #F3F4E7",
".  c #F2F3E6",
"X  c #BFC5B7",
"o  c #B4BBAD",
"O  c #B5BCAE",
"+  c #B7BEB0",
"@  c #90998F",
"#  c #767F79",
"$  c #78906A",
"%  c #77A156",
"&  c #87AC5C",
"*  c #A5C363",
"=  c #A4C263",
"-  c #A7C464",
";  c #BFD36F",
":  c #C0D470",
">  c #AAC666",
",  c #F1F3E5",
"<  c #F0F2E4",
"1  c #BEC4B6",
"2  c #B3BBAC",
"3  c #B4BCAD",
"4  c #B6BDAE",
"5  c #90998E",
"6  c #78916A",
"7  c #77A257",
"8  c #A8C465",
"9  c #767F7A",
"0  c #B7BDAF",
"q  c #8CAE6F",
"w  c #8BAE6F",
"e  c #83A767",
"r  c #82A566",
"t  c #82A666",
"y  c #7CA061",
"u  c #769B5D",
"i  c #89AB5F",
"p  c #9EBE61",
"a  c #9FBE62",
"s  c #A9C565",
"d  c #BCD16E",
"f  c #BFD370",
"g  c #ABC766",
"h  c #A8C565",
"j  c #77807A",
"k  c #868F85",
"l  c #9BA397",
"z  c #A1AA9D",
"x  c #769F56",
"c  c #76A057",
"v  c #77A057",
"b  c #8CB05D",
"n  c #A6C464",
"m  c #A3C163",
"M  c #A3C263",
"N  c #A5C263",
"B  c #87AD5B",
"V  c #77A256",
"C  c #838D83",
"Z  c #959E92",
"A  c #9DA699",
"S  c #98B960",
"D  c #9EBD61",
"F  c #ABC666",
"G  c #B9CF6D",
"H  c #BAD06D",
"J  c #8BAF5D",
"K  c #84AA5A",
"L  c #7C956A",
"P  c #778970",
"I  c #83917F",
"U  c #8E978C",
"Y  c #9EA69A",
"T  c #A2C162",
"R  c #ADC867",
"E  c #C1D571",
"W  c #C1D470",
"Q  c #81A75A",
"!  c #788C6F",
"~  c #777F7B",
"^  c #889187",
"/  c #97A093",
"(  c #949D91",
")  c #ACC767",
"_  c #B5CD6B",
"`  c #81A85A",
"'  c #77A157",
"]  c #879187",
"[  c #969F93",
"{  c #B1CA69",
"}  c #C2D571",
"|  c #B6BDAF",
" . c #C0C6B8",
".. c #B8CF6C",
"X. c #9AA296",
"o. c #A5ADA0",
"O. c #B2B9AC",
"+. c #C1D570",
"@. c #80A75A",
"#. c #76A056",
"$. c #788B6F",
"%. c #889188",
"&. c #97A094",
"*. c #969E92",
"=. c #939C90",
"-. c #A3AB9F",
";. c #B7CE6C",
":. c #B6CE6B",
">. c #A6C364",
",. c #8DB15D",
"<. c #7D9768",
"1. c #778B6E",
"2. c #82917D",
"3. c #8C958B",
"4. c #8F988D",
"5. c #A4ACA0",
"6. c #BDD26F",
"7. c #77A255",
"8. c #789069",
"9. c #848D84",
"0. c #A5C364",
"q. c #A2C163",
"w. c #86AB5C",
"e. c #77A058",
"r. c #79906B",
"t. c #78817B",
"y. c #848E84",
"u. c #98A195",
"i. c #A7AEA2",
"p. c #EEF1E4",
"a. c #EFF3E6",
"s. c #7DA559",
"d. c #7EA559",
"f. c #92B45E",
"g. c #7CA459",
"h. c #85AB5B",
"j. c #7CA558",
"k. c #7A906D",
"l. c #778476",
"z. c #869184",
"x. c #ACB3A6",
"c. c #EBECDF",
"v. c #DEE7DA",
"b. c #A6D8C7",
"n. c #A5D8C7",
"m. c #78A158",
"M. c #9DBD61",
"N. c #A6C363",
"B. c #8FB35E",
"V. c #AFB5A9",
"C. c #F6F7EA",
"Z. c #E5EFE2",
"A. c #9CD4C3",
"S. c #9AD4C3",
"D. c #788973",
"F. c #788972",
"G. c #80A35E",
"H. c #82A959",
"J. c #7D9966",
"K. c #788774",
"L. c #788873",
"P. c #7A8F6E",
"I. c #778872",
"U. c #879384",
"Y. c #929B90",
"T. c #9FA79B",
"R. c #ADB5A7",
"E. c #C1C7B9",
"W. c #F5F6E9",
"Q. c #E5EFE1",
"!. c #9CD5C4",
"~. c #9BD4C3",
"^. c #77817A",
"/. c #778179",
"(. c #779C5C",
"). c #779267",
"_. c #77807B",
"`. c #8B958A",
"'. c #A2AB9E",
"]. c #C7CCBE",
"[. c #F5F5E8",
"{. c #7B8E73",
"}. c #788C6E",
"|. c #778C6E",
" X c #81907B",
".X c #8C958A",
"XX c #929B8F",
"oX c #99A296",
"OX c #9EA79A",
"+X c #B6BDB0",
"@X c #F6F6E9",
"#X c #7C857E",
"$X c #858E86",
"%X c #949D92",
"&X c #8E988C",
"*X c #ACB3A7",
"=X c #F9F7EA",
"-X c #E8F0E2",
";X c #8A9389",
":X c #879086",
">X c #889287",
",X c #979F94",
"<X c #99A196",
"1X c #A6AEA1",
"2X c #A7AFA1",
"3X c #9DA599",
"4X c #A9B0A4",
"5X c #C9CDC0",
"6X c #C6D2C5",
"7X c #C4E4D4",
"8X c #BDE1D1",
"9X c #969F92",
"0X c #B3BAAD",
"qX c #A3AB9E",
"wX c #8D978B",
"eX c #BBC0B4",
"rX c #FFFCEF",
"tX c #DFEEE0",
"yX c #96D2C1",
"uX c #98D3C2",
"iX c #A2AA9D",
"pX c #A1A99D",
"aX c #B3BAAC",
"sX c #B8BEB1",
"dX c #BABFB3",
"fX c #C3D0C3",
"gX c #D2E9DA",
"hX c #C2E2D3",
"jX c #B1B8AA",
"kX c #D8DBCE",
"lX c #FEFBEE",
"zX c #95D2C0",
"xX c #99D3C2",
"cX c #ACB4A6",
"vX c #A0A89C",
"bX c #9EA699",
"nX c #A0A99C",
"mX c #C4C9BC",
"MX c #C6CBBE",
"NX c #C6CBBD",
"BX c #C5CABC",
"VX c #D1DCCE",
"CX c #DEEDDF",
"ZX c #B0B7A9",
"AX c #EEEFE2",
"SX c #F8F7EA",
"DX c #C4E3D4",
"FX c #BBC1B3",
"GX c #C0C7B9",
"HX c #E1EADD",
"JX c #EFF2E5",
"KX c white",
/* pixels */
"  . X o O + @ # $ % & * = = - ; : : : > * & % $ # @ + O o X .   ",
", < 1 2 3 4 5 # 6 7 & * = = 8 ; : : : > * & % $ 9 @ 0 O o X .   ",
"q w e r r t y u i p a = s d d : f g h * * & % $ j k l z O X .   ",
"x x c c c c v c b n = m > : : : ; - M N n B V $ 9 C Z A O X .   ",
"S S S S S S S S D = F G H : : : ; - = J K L P I U 5 Z Y O X .   ",
"* * * * * * * * = T R E W : : : ; - = Q c ! ~ ^ / Z ( Y O X .   ",
"= = = = = = = M ) _ G : : : : : ; - = ` ' ! j ] [ Z ( Y O X .   ",
"m m m m m m m T { } W : : : : : ; - = ` ' ! j ] [ Z ( Y |  ..   ",
"{ { { { { { { { ..W : : : : : : ; - = ` ' ! j ] [ Z Z X.o.O..   ",
"+.+.+.+.+.+.+.+.W : : : : : : +.: - = @.#.$.~ %.&.*.Z Z =.-..   ",
": : : : : : : : : : : : : : f ;.:.>.= ,.B <.1.2.3.4.Z Z ( 5..   ",
": : : : : W : : : : : : : W 6.= M = = * - B 7.8.9 C [ Z ( 5..   ",
": : : : d H H H H H H H H H ..* = = = = * & % $ j 9.[ Z ( 5..   ",
": : : W ) M = = = = = = = = = = = = = = * & % $ j 9.[ Z ( 5..   ",
"6.6.6.6.F M = = = = = = = = = = = = = = * & % $ j 9.[ Z ( 5..   ",
"0.0.0.0.= = = = = = = = = = = = = = = = * & % $ j 9.[ Z ( 5..   ",
"q.q.= = = = = = m q.q.q.m = = = = = = m M w.e.r.t.y.[ [ u.i.p.a.",
"s.d.D = = = = * f.g.s.g.h.= = = = = = h.j.k.l.z.=.=.=.x.c.v.b.n.",
"m.m.M.* = = = N.B.c m.e.` = = = = = = ` ' ! j ^ [ Z =.V.C.Z.A.S.",
"D.F.G.` ` ` ` H.J.K.D.L.P.` ` ` ` ` ` P.I.U.4.Y.( T.R.E.W.Q.!.~.",
"^./.(.V ' ' ' V ).~ ^._.I.' ' ' ' ' ' I.9 `.[ Z ( '.| ].[.Q.!.~.",
"`.`.{.}.! ! ! |. X3.`..XU.! ! ! ! ! ! U.`.XXZ Z Z oXOX+X@XQ.!.~.",
"[ Z #Xj j j j # $X&.[ [ 4.j j j j # # U Z ( ( %XZ =.&X*X=X-X!.~.",
"Z Z ;X] ] ] ] :XU Z Z Z Y.] ] ] >X,X<X-.1X1X2X3X=.4X5X6X7X8XA.~.",
"( ( [ [ [ [ [ [ 9XZ Z Z Z [ [ Z [ 0X+ | | | + qXwXeXrXtXyXuX~.~.",
"iXiX&.Z Z Z Z Z Z Z Z Z Z Z [ pXqXaXO O O O O sXdXfXgXhXS.~.~.~.",
"+ | X.( ( ( ( ( ( ( ( ( ( ( u.O | o o o o o jXkXlXgXzXxX~.~.~.~.",
"cXcXvXbXY Y Y Y Y Y Y Y Y bXnXo | mXMXNXNXNXBXVXCXhXxX~.~.~.~.~.",
"=.( ZXO O O O O O O O O O O O o + AX@X[.[.[.SXDXyXS.~.~.~.~.~.~.",
"5.5.FXX X X X X X X X X X X X X GXHXZ.Q.Q.Q.-X8XuX~.~.~.~.~.~.~.",
". . . . . . . . . . . . . . . . JXb.A.!.!.!.!.A.~.~.~.~.~.~.~.~.",
"                                a.n.S.~.~.~.~.~.~.~.~.~.~.~.~.~."
};
