/* XPM */
static char *result[] = {
/* columns rows colors chars-per-pixel */
"32 32 166 2 ",
"   c #9BD4C3",
".  c #9CD5C4",
"X  c #E5EFE1",
"o  c #F5F5E8",
"O  c #C6CBBD",
"+  c #B4BBAD",
"@  c #B5BCAE",
"#  c #B7BEB0",
"$  c #99A196",
"%  c #767F79",
"&  c #788C6F",
"*  c #77A157",
"=  c #81A85A",
"-  c #A4C263",
";  c #A7C464",
":  c #BFD36F",
">  c #C0D470",
",  c #AAC666",
"<  c #A5C363",
"1  c #87AC5C",
"2  c #77A156",
"3  c #78906A",
"4  c #90998F",
"5  c #BFC5B7",
"6  c #F2F3E6",
"7  c #F3F4E7",
"8  c #99D1BD",
"9  c #9AD2BE",
"0  c #DFEBDA",
"q  c #EEF1E0",
"w  c #C4CABB",
"e  c #99A295",
"r  c #768177",
"t  c #798E6E",
"y  c #7AA358",
"u  c #83A95B",
"i  c #7AA45E",
"p  c #7EA560",
"a  c #7EA55F",
"s  c #A6B699",
"d  c #B6BDB0",
"f  c #B7BDB1",
"g  c #99AF87",
"h  c #759D57",
"j  c #86AA5D",
"k  c #A3C163",
"l  c #A2C163",
"z  c #7AA359",
"x  c #79A257",
"c  c #A3B493",
"v  c #B3BBAB",
"b  c #B2BBA9",
"n  c #B4BBAC",
"m  c #98AF84",
"M  c #77A155",
"N  c #88AD5C",
"B  c #767F7A",
"V  c #90988E",
"C  c #A2C062",
"Z  c #A2C162",
"A  c #86AB5E",
"S  c #7AA25D",
"D  c #7BA35D",
"F  c #7AA15D",
"G  c #8DB05F",
"H  c #77807A",
"J  c #848E84",
"K  c #97A094",
"L  c #9FA79B",
"P  c #86AB5B",
"I  c #79A258",
"U  c #8EB15D",
"Y  c #A6C363",
"T  c #A5C364",
"R  c #A9C565",
"E  c #848D84",
"W  c #959E92",
"Q  c #9DA699",
"!  c #B3BAAC",
"~  c #BDC4B6",
"^  c #A1C062",
"/  c #969F93",
"(  c #A5ADA1",
")  c #A6C364",
"_  c #A5C263",
"`  c #ABC766",
"'  c #79A357",
"]  c #799269",
"[  c #778278",
"{  c #838E82",
"}  c #949D91",
"|  c #A4ACA0",
" . c #BED36F",
".. c #A3C263",
"X. c #ADC867",
"o. c #BFD370",
"O. c #8BAF5E",
"+. c #769F58",
"@. c #799467",
"#. c #79827C",
"$. c #818B81",
"%. c #AEC968",
"&. c #C1D470",
"*. c #8DB05D",
"=. c #76A156",
"-. c #789566",
";. c #77807B",
":. c #808A81",
">. c #889188",
",. c #78817B",
"<. c #8A9389",
"1. c #9DA599",
"2. c #BFD470",
"3. c #9EA69A",
"4. c #B5CD6B",
"5. c #C1D570",
"6. c #B4CC6A",
"7. c #7AA258",
"8. c #99BA60",
"9. c #789F5A",
"0. c #779F5A",
"q. c #96B760",
"w. c #788478",
"e. c #788379",
"r. c #7A9A61",
"t. c #79A358",
"y. c #93B65F",
"u. c #7A847B",
"i. c #7A837C",
"p. c #789863",
"a. c #779F59",
"s. c #91B35F",
"d. c #939C91",
"f. c #7F8A7F",
"g. c #778279",
"h. c #799665",
"j. c #9CA598",
"k. c #828B82",
"l. c #98A194",
"z. c #869086",
"x. c #7B837D",
"c. c #7A916D",
"v. c #779F58",
"b. c #949D92",
"n. c #ABB3A5",
"m. c #B2B9AC",
"M. c #97A093",
"N. c #ADB4A7",
"B. c #B6BDAF",
"V. c #AEB6A8",
"C. c #9AA397",
"Z. c #9BA397",
"A. c #AFB7A9",
"S. c #98A095",
"D. c #799568",
"F. c #7A837D",
"G. c #8B948A",
"H. c #EEEFE2",
"J. c #ECEEE1",
"K. c #A5ACA0",
"L. c #889288",
"P. c #768178",
"I. c #8F998C",
"U. c #B3BAAD",
"Y. c #879187",
"T. c white",
/* pixels */
"  . X o O + @ # $ % & * = - ; : > > > , < 1 2 3 % 4 # @ + 5 6 7 ",
"8 9 0 q w + @ # e r t y u - ; : > > > , < 1 2 3 % 4 # @ + 5 6 7 ",
"i i p a s d @ f g h j k l - ; : > > > , < 1 2 3 % 4 # @ + 5 6 7 ",
"z z z x c v b n m M N < - - ; : > > > , < 1 2 3 B V @ + + 5 6 7 ",
"C C C Z A S D F G k l - - - ; : > > > , < 1 2 3 H J K L @ 5 6 7 ",
"- - - < P I z I U Y - - - T R : > > > , < 1 2 3 H E W Q ! ~ 6 7 ",
"- - - - l ^ C ^ k - - - , : : > > > > , < 1 2 3 H E / W / ( 6 7 ",
") ) ) ) - - - - - - _ T ` > > > > > > , < N ' ] [ { } } } | 6 7 ",
" . . .: ` ..- - - ..X.o.: > > > > > > , - l k O.+.@.#.$.} | 6 7 ",
"> > > > X.< ) ) ) < %.&.> > > > > > > , - - Y *.=.-.;.:.} | 6 7 ",
"> > > > :  . . . . .o.> > > > > > > > , - - Y *.=.-.;.:.} | 6 7 ",
"> > > > > > > > > > > > > > > > > > > , - - Y *.=.-.;.:./ ( 6 7 ",
"> > > > > > > > > > > > > > > > > > > , - - Y *.=.-.H >.+ ~ 6 7 ",
"> > > > > > > > > > > > > > > > > > > , - l k O.+.@.,.<.@ 5 6 7 ",
"> > > > > > > > > > > > > > > > > > > , < N ' ] [ { } 1.@ 5 6 7 ",
" . . . . . .2.> > > > > > > > > > > > , < 1 2 3 H E W 3.@ 5 6 7 ",
") ) ) ) ) _ 4.5.> > > > > > > > > > > , < 1 2 3 H E W 3.@ 5 6 7 ",
"C C C C ..k 6.2. . .o.> > > > > > > > , < 1 2 3 H E W 3.@ 5 6 7 ",
"z z z 7.8.< < ) ) < %.&.> > > > > > > , < 1 2 3 H E W 3.@ 5 6 7 ",
"9.9.9.0.q.l k - - ..X.o.: > > > > > > , < 1 2 3 H E W 3.@ 5 6 7 ",
"w.w.w.e.r.t.y.< - - _ T ` > > > > > > , < 1 2 3 H E W 3.@ 5 6 7 ",
"u.u.u.i.p.a.s.k k - - - , > > > > > > , < 1 2 3 H E W 3.@ 5 6 7 ",
"d.d.d.} f.g.h.' U Y - - , > > > > > > , < 1 2 3 H E W 3.@ 5 6 7 ",
"W W W W $.#.@.+.O.k l - , : : > > > > , < N ' ] [ { } j.! ~ 6 7 ",
"W W W W } } { [ ] ' N < - T R : > > > , - l k O.+.@.#.k./ ( 6 7 ",
"W W W W / l.z.x.c.v.j k l - ; : > > > , - - Y *.=.-.;.:.} | 6 7 ",
"W W W b.n.+ m.+ M.r t y u - ; : > > > , - - Y *.=.-.;.:.} | 6 7 ",
"W W / / N.B.@ # $ % & * = - ; : > > > , - - Y *.=.-.;.:./ ( 6 7 ",
"W W V.+ @ @ @ # $ % & * = - ; : > > > , - - Y *.=.-.H >.+ ~ 6 7 ",
"C.Z.A.+ ! ! ! @ S.% & * = - ; : > > > , - l k O.+.D.F.G.@ 5 6 7 ",
"H.J.K./ K K K l.L.H & * = - ; : > > > , < N ' ] P.I.U.! + 5 6 7 ",
"7 6 | } W W W / Y.H & * = - ; : > > > , < 1 2 3 % 4 # @ + 5 6 7 "
};
