/* XPM */
static char *result[] = {
/* columns rows colors chars-per-pixel */
"32 32 138 2 ",
"   c #78A158",
".  c #7AA45E",
"X  c #99D1BD",
"o  c #9BD4C3",
"O  c #79A258",
"+  c #7BA45E",
"@  c #99D0BB",
"#  c #9AD3C1",
"$  c #9DBD61",
"%  c #9BBC62",
"&  c #7FAA69",
"*  c #7EA969",
"=  c #A4C263",
"-  c #A5C263",
";  c #A2C062",
":  c #79A257",
">  c #77A057",
",  c #B8CF6C",
"<  c #B7CE6C",
"1  c #A5C364",
"2  c #A3C263",
"3  c #99BA60",
"4  c #98B960",
"5  c #C1D470",
"6  c #BFD370",
"7  c #A3C163",
"8  c #A5C363",
"9  c #C0D470",
"0  c #BFD470",
"q  c #B5CD6B",
"w  c #B4CC6A",
"e  c #C1D570",
"r  c #B2CB69",
"t  c #B1CA69",
"y  c #B0CA69",
"u  c #AEC968",
"i  c #ADC867",
"p  c #BAD06D",
"a  c #BFD36F",
"s  c #BBD16E",
"d  c #BDD26F",
"f  c #A7C464",
"g  c #A2C163",
"h  c #7DA559",
"j  c #7FA65A",
"k  c #A9C565",
"l  c #7AA358",
"z  c #788973",
"x  c #798A71",
"c  c #81A65C",
"v  c #81A85A",
"b  c #83A95B",
"n  c #AAC666",
"m  c #ABC766",
"M  c #77817A",
"N  c #768079",
"B  c #768277",
"V  c #779F59",
"C  c #77A157",
"Z  c #778278",
"A  c #8B958A",
"S  c #8D968B",
"D  c #9FA89C",
"F  c #9EA79A",
"G  c #7A8E71",
"H  c #788C6F",
"J  c #798E6E",
"K  c #86AA5D",
"L  c #88AD5C",
"P  c #798D70",
"I  c #8A9488",
"U  c #969F93",
"Y  c #98A194",
"T  c #B5BCAE",
"R  c #B3BAAC",
"E  c #79827C",
"W  c #767F79",
"Q  c #768177",
"!  c #779F58",
"~  c #79A357",
"^  c #BED36F",
"/  c #A6C363",
"(  c #77807A",
")  c #79827B",
"_  c #949D91",
"`  c #959E92",
"'  c #97A094",
"]  c #B3BAAD",
"[  c #9AA297",
"{  c #99A196",
"}  c #97A093",
"|  c #7A916D",
" . c #799269",
".. c #8BAF5E",
"X. c #8EB15D",
"o. c #A6C364",
"O. c #98A095",
"+. c #889288",
"@. c #889287",
"#. c #B7BEB0",
"$. c #B4BBAD",
"%. c #7C847E",
"&. c #788379",
"*. c #779E5A",
"=. c #A1C062",
"-. c #769F58",
";. c #768178",
":. c #7A827D",
">. c #B2B9AB",
",. c #7B857D",
"<. c #788478",
"1. c #789F5A",
"2. c #7AA359",
"3. c #93B65F",
"4. c #91B35F",
"5. c #799665",
"6. c #799568",
"7. c #8F998C",
"8. c #929B90",
"9. c #B6BDAF",
"0. c #ADB4A7",
"q. c #ABB3A5",
"w. c #949D92",
"e. c #A4ACA0",
"r. c #A5ACA0",
"t. c #AFB7A9",
"y. c #B0B7AA",
"u. c #AEB6A8",
"i. c #A3AB9F",
"p. c #F2F3E6",
"a. c #ECEEE1",
"s. c #9BA397",
"d. c #7A847B",
"f. c #9AA397",
"g. c #F3F4E7",
"h. c #EEEFE2",
"j. c #939C91",
"k. c white",
/* pixels */
"              . X o o X .                 . X o o X .           ",
"O O O O O O O + @ # # @ + O O O O O O O O + @ # # @ + O O O O O ",
"$ $ $ $ $ $ $ % & * * & % $ $ $ $ $ $ $ $ % & * * & % $ $ $ $ $ ",
"= = = = = - - ; : > > : ; - - - - - - - - ; : > > : ; - - - - - ",
", , , < 1 = = 2 3 4 4 3 2 = = = = = = = = 2 3 4 4 3 2 = = = = = ",
"5 5 5 6 - 7 = = 8 8 8 8 = = 7 7 7 7 7 7 = = 8 8 8 8 = = 7 7 7 7 ",
"9 9 9 0 q w 8 = = = = = = 8 w q q q q w 8 = = = = = = 8 w q q q ",
"9 9 9 9 e 0 - 7 7 7 7 7 7 - 0 e e e e 0 - 7 = = = = 7 - 0 e e e ",
"9 9 9 9 9 6 r t t t t t t r 6 9 9 9 9 6 r y - = = - y r 6 9 9 9 ",
"9 9 9 9 9 9 e e e e e e e e 9 9 9 9 9 9 e 0 8 7 7 8 0 e 9 9 9 9 ",
"9 9 9 9 9 9 9 9 9 9 9 9 9 9 9 9 9 9 9 9 9 6 u i i u 6 9 9 9 9 9 ",
"9 9 9 9 9 9 9 9 9 9 9 9 9 9 9 9 9 9 9 9 9 9 5 e e 5 9 9 9 9 9 9 ",
"p p p p 9 9 9 9 9 9 9 9 9 9 9 9 9 9 9 9 9 9 9 9 9 9 9 9 p p p p ",
"= = = 1 a 9 9 9 9 9 9 9 9 9 9 9 9 9 9 9 9 9 9 9 9 9 9 a 1 = = = ",
"= = = 1 s d 9 9 9 9 9 9 9 9 9 9 9 9 9 9 9 9 9 9 d d d s 1 = = = ",
"= = = = 1 f a 9 9 9 9 9 9 9 9 9 9 9 9 9 9 9 9 a f 1 1 1 = = = = ",
"g g g g = 1 d a a a 9 9 9 9 9 9 9 9 9 9 9 9 a d 1 = = = = = g g ",
"h h h j ; = f f f k a 9 9 9 9 9 9 9 9 9 9 a k f = = = = = ; j h ",
"      l ; = = = = 1 a 9 9 9 9 9 9 9 9 9 9 a 1 = = = = = = ; l   ",
"z z z x c v v b g = n m a 9 9 9 9 9 9 a m n = = = g b v v c x z ",
"M M N B V C C l 7 8 = 1 6 5 9 9 9 9 5 6 1 = = = 8 7 l C C V Z M ",
"A S D F G H H J K L g - i u 6 9 9 6 u i - = = g L K J H H P I A ",
"U Y T R E W W Q ! ~ 7 8 2 8 ^ 9 9 ^ 8 2 = = / 7 ~ ! Q W ( ) _ U ",
"` ' R ] [ { { } |  ...X.7 o.^ 9 9 ^ o.= = 7 X... .| } O.+.@._ ` ",
"` ' R T #.#.#.$.%.&.*.O =.o.^ 9 9 ^ o.= 8 7 ~ -.;.:.$.T Y U ` ` ",
"` ' R T T T T >.,.<.1.2.; o.^ 9 9 ^ o.7 3.4.5.6.7.8.R R ' ` ` ` ",
"` ' R T T T T >.,.<.1.2.; o.^ 9 9 ^ o.=.O *.&.%.$.#.9.$.' ` ` ` ",
"` ' R T T T T >.,.<.1.2.; o.^ 9 9 ^ o.; 2.1.<.,.>.T 0.q.U ` ` ` ",
"_ U $.T T T T >.,.<.1.2.; o.^ 9 9 ^ o.; 2.1.<.,.>.$.U w.` ` _ _ ",
"e.r.t.y.T T T >.,.<.1.2.; o.^ 9 9 ^ o.; 2.1.<.,.0.u.U ` ` U i.e.",
"p.a.s.' R T T >.,.<.1.2.; o.^ 9 9 ^ o.; 2.1.<.d._ ` ` ` ` f.a.p.",
"g.h.f.' R T T >.,.<.1.2.; o.^ 9 9 ^ o.; 2.1.<.d.j.` ` ` ` f.h.g."
};
