/* XPM */
static char *result[] = {
/* columns rows colors chars-per-pixel */
"32 32 189 2 ",
"   c #9BD4C3",
".  c #A0D6C5",
"X  c #EEF2E5",
"o  c #F0F1E4",
"O  c #B8BFB1",
"+  c #B2B9AB",
"@  c #7B857D",
"#  c #788478",
"$  c #789F5A",
"%  c #7AA359",
"&  c #A2C062",
"*  c #A4C263",
"=  c #A6C364",
"-  c #BED36F",
";  c #C0D470",
":  c #B5BCAE",
">  c #9AD3C1",
",  c #9FD5C3",
"<  c #ECF1E3",
"1  c #EEF0E2",
"2  c #B7BFB0",
"3  c #B1B8AA",
"4  c #7B867C",
"5  c #79A05A",
"6  c #7BA359",
"7  c #B4BBAD",
"8  c #B7BEB0",
"9  c #EFF0E3",
"0  c #EDF1E4",
"q  c #A1D6C5",
"w  c #9CD5C4",
"e  c #7EA969",
"r  c #8BAE6E",
"t  c #82A666",
"y  c #81A565",
"u  c #799D5E",
"i  c #7A9E5E",
"p  c #9BBB61",
"a  c #9DBD61",
"s  c #A5C364",
"d  c #BAD06D",
"f  c #BCD16E",
"g  c #799B5F",
"h  c #818C80",
"j  c #828B82",
"k  c #858E85",
"l  c #BBC2B4",
"z  c #C1C7B9",
"x  c #E3EDDF",
"c  c #E5EFE1",
"v  c #77A057",
"b  c #769F56",
"n  c #76A057",
"m  c #77A157",
"M  c #7AA358",
"N  c #A2C162",
"B  c #BFD36F",
"V  c #779F59",
"C  c #778378",
"Z  c #77817A",
"A  c #7B847D",
"S  c #B2B9AC",
"D  c #B9BFB2",
"F  c #F3F3E7",
"G  c #F6F6EA",
"H  c #98B960",
"J  c #99BA60",
"K  c #A3C263",
"L  c #96B760",
"P  c #7A9A61",
"I  c #789961",
"U  c #799962",
"Y  c #88A76F",
"T  c #89A970",
"R  c #98B77E",
"E  c #99B87F",
"W  c #A5C363",
"Q  c #A3C163",
"!  c #A5C263",
"~  c #A2C163",
"^  c #79A358",
"/  c #76A157",
"(  c #759F56",
")  c #749E54",
"_  c #B4CC6A",
"`  c #B5CD6B",
"'  c #BFD470",
"]  c #93B65F",
"[  c #92B55F",
"{  c #C1D570",
"}  c #B1CA69",
"|  c #B2CB69",
" . c #BFD370",
".. c #B0CA69",
"X. c #AEC968",
"o. c #ADC867",
"O. c #C1D470",
"+. c #BDD26F",
"@. c #A7C464",
"#. c #7DA559",
"$. c #7FA65A",
"%. c #A9C565",
"&. c #78A158",
"*. c #788973",
"=. c #798A71",
"-. c #81A65C",
";. c #83A95B",
":. c #81A85A",
">. c #84AA5B",
",. c #A8C465",
"<. c #AAC666",
"1. c #768079",
"2. c #768277",
"3. c #A1A99D",
"4. c #9EA79A",
"5. c #7A8E71",
"6. c #798E6E",
"7. c #86AA5D",
"8. c #87AC5C",
"9. c #788C6F",
"0. c #88AD5C",
"q. c #B3BAAC",
"w. c #79827C",
"e. c #768177",
"r. c #779F58",
"t. c #77A156",
"y. c #778278",
"u. c #77807A",
"i. c #79A357",
"p. c #A6C363",
"a. c #767F79",
"s. c #B3BAAD",
"d. c #9AA297",
"f. c #97A093",
"g. c #7A916D",
"h. c #78906A",
"j. c #79906C",
"k. c #879185",
"l. c #879187",
"z. c #799269",
"x. c #8BAF5E",
"c. c #8DB05D",
"v. c #889288",
"b. c #98A095",
"n. c #99A196",
"m. c #7A827D",
"M. c #767F7A",
"N. c #949D92",
"B. c #969F93",
"V. c #949D91",
"C. c #78817B",
"Z. c #768178",
"A. c #769F58",
"S. c #76A156",
"D. c #98A195",
"F. c #B6BDAF",
"G. c #929B90",
"H. c #90988E",
"J. c #848E84",
"K. c #848D84",
"L. c #858E84",
"P. c #959E92",
"I. c #91998F",
"U. c #8F998C",
"Y. c #799568",
"T. c #789566",
"R. c #799467",
"E. c #838E82",
"W. c #A7AFA2",
"Q. c #A9B1A3",
"!. c #B8BFB0",
"~. c #98A194",
"^. c #7A837D",
"/. c #ACB4A6",
"(. c #ABB3A5",
"). c #9DA699",
"_. c #9FA79B",
"`. c #8B948A",
"'. c #899288",
"]. c #899289",
"[. c #939C90",
"{. c #939C91",
"}. c #A4ACA0",
"|. c #A5ADA1",
" X c #BDC4B6",
".X c #BFC5B7",
"XX c #F2F3E6",
"oX c #F3F4E7",
"OX c white",
/* pixels */
"  . X o O + @ # $ % & * * = - ; ; - = & % $ # @ + : : O o X .   ",
"> , < 1 2 3 4 # 5 6 & * * = - ; ; - = & 6 5 # 4 3 7 7 8 9 0 q w ",
"e e r r t y u i p a * s d f ; ; ; - = * a p i g h j j k l z x c ",
"v v b b n v m M N * * = B ; ; ; ; - = * * N M V C Z Z A S D F G ",
"H H H H H H H J K * * = - ; ; ; ; - = * * K J L P I I U Y T R E ",
"W W W W W W W W * * Q ! - ; ; ; ; - ! Q * * W ~ ^ m m / ( ( ) ) ",
"* * * * * * * * * W _ ` ' ; ; ; ; ' ` _ W * * Q ] [ [ [ [ [ [ [ ",
"Q Q Q Q Q Q Q Q Q ! ' { ; ; ; ; ; ; { ' ! Q Q Q * ! W W W W W W ",
"} } } } } } } } } |  .; ; ; ; ; ; ; ;  .| } } } } ..! * * * * * ",
"{ { { { { { { { { { ; ; ; ; ; ; ; ; ; ; { { { { { ' W Q Q Q Q Q ",
"; ; ; ; ; ; ; ; ; ; ; ; ; ; ; ; ; ; ; ; ; ; ; ; ;  .X.o.o.o.o.o.",
"; ; ; ; ; ; ; ; ; ; ; ; ; ; ; ; ; ; ; ; ; ; ; ; ; ; O.{ { { { { ",
"; ; ; ; ; ; ; ; ; ; ; ; ; ; ; ; ; ; ; ; ; ; ; ; ; ; ; ; ; ; ; ; ",
"; ; ; ; ; ; ; ; ; ; ; ; ; ; ; ; ; ; ; ; ; ; ; ; ; ; ; ; ; ; ; ; ",
"+.+.+.+.; ; ; ; +.+.+.+.; ; ; ; ; ; ; ; ; ; +.+.+.+.+.+.; ; +.+.",
"s s s @.B ; ; B @.s s @.B ; ; ; ; ; ; ; ; B @.s s s s @.B B @.s ",
"~ ~ * s +.B B +.s * * s +.B ; ; ; ; ; ; B +.s * * * * s +.+.s * ",
"#.$.& * @.@.@.@.* * * * @.%.B ; ; ; ; B %.@.* * * * * * @.@.* * ",
"&.M & * * * * * * * * * * = B ; ; ; ; B s * * * * * * * * * * * ",
"*.=.-.;.~ * * * * ~ ;.:.:.>.,.<.<.<.<.<.* * * ~ ;.:.:.:.:.:.:.:.",
"1.2.V M Q W W W W Q M m m M N W * * * * * * W Q M m m m m m m m ",
"3.4.5.6.7.8.8.8.8.7.6.9.9.6.7.0.~ * * * * ~ 0.7.6.9.9.9.9.9.9.9.",
"8 q.w.e.r.t.t.t.t.r.y.u.u.y.r.i.Q p.p.p.p.Q i.r.y.u.u.u.a.a.a.a.",
": s.d.f.g.h.h.h.h.j.k.l.l.k.j.z.x.c.c.c.c.x.z.j.k.l.l.v.b.n.n.n.",
": : 8 7 m.M.u.u.u.w.N.B.B.V.C.Z.A.S.S.S.S.A.y.w.N.B.B.D.F.O 8 8 ",
": : : q.G.H.J.K.K.L.V.P.P.P.I.U.Y.T.T.T.T.R.E.L.V.P.P.B.W.Q.7 : ",
"F.F.F.F.!.F.~.B.B.B.P.P.V.B.: s.^.u.u.u.u.C.V.B.P.P.P.P.V.B.7 F.",
"/././././.(.B.P.P.P.P.P.)._.7 q.`.'.'.'.'.].V.P.P.P.P.P.P.B.(./.",
"[.[.[.[.[.{.V.V.V.V.V.B.q.: 7 7 : : : : : 7 B.V.V.V.V.V.V.V.{.[.",
"}.}.}.}.}.}.}.}.}.}.}.|. X.X.X.X.X.X.X.X.X X|.}.}.}.}.}.}.}.}.}.",
"XXXXXXXXXXXXXXXXXXXXXXXXXXXXXXXXXXXXXXXXXXXXXXXXXXXXXXXXXXXXXXXX",
"oXoXoXoXoXoXoXoXoXoXoXoXoXoXoXoXoXoXoXoXoXoXoXoXoXoXoXoXoXoXoXoX"
};
