/* XPM */
static char *result[] = {
/* columns rows colors chars-per-pixel */
"32 32 9 1 ",
"  c #9BD4C3",
". c #F3F4E7",
"X c #B5BCAE",
"o c #959E92",
"O c #78A158",
"+ c #A4C263",
"@ c #C0D470",
"# c #78827A",
"$ c white",
/* pixels */
"  ..XXXXooOO++@@@@++OO##XXXX..  ",
"  ..XXXXooOO++@@@@++OO##XXXX..  ",
"OOOOXXXXOO++++@@@@++++OOooooXX..",
"OOOOXXXXOO++++@@@@++++OOooooXX..",
"++++OOOO++++++@@@@@@++++OOOOOOOO",
"++++OOOO++++++@@@@@@++++OOOOOOOO",
"++++++++++++@@@@@@@@++++++++++++",
"++++++++++++@@@@@@@@++++++++++++",
"@@@@++++++@@@@@@@@@@@@++++++++++",
"@@@@++++++@@@@@@@@@@@@++++++++++",
"@@@@@@@@@@@@@@@@@@@@@@@@@@@@@@@@",
"@@@@@@@@@@@@@@@@@@@@@@@@@@@@@@@@",
"@@@@@@@@@@@@@@@@@@@@@@@@@@@@@@@@",
"@@@@@@@@@@@@@@@@@@@@@@@@@@@@@@@@",
"@@@@@@@@@@@@@@@@@@@@@@@@@@@@@@@@",
"@@@@@@@@@@@@@@@@@@@@@@@@@@@@@@@@",
"++++++@@@@@@@@@@@@@@@@@@++++++++",
"++++++@@@@@@@@@@@@@@@@@@++++++++",
"OOOO++++++@@@@@@@@@@@@++++++OOOO",
"OOOO++++++@@@@@@@@@@@@++++++OOOO",
"####OO++++++@@@@@@@@@@++++OO####",
"####OO++++++@@@@@@@@@@++++OO####",
"oooo##OO++++@@@@@@@@++++OO##oooo",
"oooo##OO++++@@@@@@@@++++OO##oooo",
"oooooo##OO++++@@@@++++OO##XXoooo",
"oooooo##OO++++@@@@++++OO##XXoooo",
"ooooXXXX##OO++@@@@++OO##XXXXoooo",
"ooooXXXX##OO++@@@@++OO##XXXXoooo",
"ooooXXXX##OO++@@@@++OO##XXoooooo",
"ooooXXXX##OO++@@@@++OO##XXoooooo",
"..oooooo##OO++@@@@++OO##oooooo..",
"..oooooo##OO++@@@@++OO##oooooo.."
};
