/* XPM */
static char *e7a453f732364bf4969eb5d679fbe215INEqro3p884RlDc4[] = {
/* columns rows colors chars-per-pixel */
"32 32 256 2 ",
"   c #F3F4E7",
".  c #C3C9BB",
"X  c #B4BBAD",
"o  c #B5BCAE",
"O  c #B7BEB0",
"+  c #9EA69A",
"@  c #768079",
"#  c #788873",
"$  c #78A158",
"%  c #7BA359",
"&  c #A0BF62",
"*  c #A4C263",
"=  c #A3C263",
"-  c #B6CE6B",
";  c #C1D570",
":  c #C0D470",
">  c #B6BDAF",
",  c #B8BFB1",
"<  c #757F78",
"1  c #778872",
"2  c #78A257",
"3  c #7BA458",
"4  c #A1C062",
"5  c #A5C263",
"6  c #AAB2A4",
"7  c #A3AB9E",
"8  c #99A195",
"9  c #899288",
"0  c #869282",
"q  c #788F6C",
"w  c #79916B",
"e  c #89AC5E",
"r  c #C4C9BC",
"t  c #A2AA9D",
"y  c #939C90",
"u  c #959E92",
"i  c #97A093",
"p  c #90998E",
"a  c #78817C",
"s  c #788379",
"d  c #789D5B",
"f  c #9CBC61",
"g  c #B7CE6C",
"h  c #C2D571",
"j  c #C1D470",
"k  c #BAC0B3",
"l  c #A8B0A2",
"z  c #9DA699",
"x  c #949D91",
"c  c #969F92",
"v  c #8F988D",
"b  c #78827A",
"n  c #788478",
"m  c #799F5C",
"M  c #9CBD61",
"N  c #AFC968",
"B  c #B5CD6B",
"V  c #BAD06D",
"C  c #AAB1A5",
"Z  c #929B8F",
"A  c #969F93",
"S  c #78827B",
"D  c #788378",
"F  c #789E5C",
"G  c #A5C363",
"H  c #A2C162",
"J  c #B0CA69",
"K  c #AAB2A5",
"L  c #8B9588",
"P  c #788874",
"I  c #798A72",
"U  c #81A55D",
"Y  c #9EBE61",
"T  c #A3C163",
"R  c #B1CA69",
"E  c #8A9389",
"W  c #77817A",
"Q  c #78A059",
"!  c #9FBE62",
"~  c #ACB3A7",
"^  c #B0CA68",
"/  c #BFD370",
"(  c #BFD36F",
")  c #C1C6B9",
"_  c #B1B9AB",
"`  c #A1A99C",
"'  c #A5C364",
"]  c #A6C364",
"[  c #ADC867",
"{  c #A2AA9E",
"}  c #ABC766",
"|  c #B0B8AA",
" . c #AEB6A8",
".. c #99A196",
"X. c #ABC666",
"o. c #B8CF6C",
"O. c #9EA69B",
"+. c #B6CD6B",
"@. c #ACC767",
"#. c #F6F5E8",
"$. c #C2C8BA",
"%. c #9DA599",
"&. c #747E77",
"*. c #768772",
"=. c #D4E9DA",
"-. c #CDD5C7",
";. c #CBD0C2",
":. c #BEC4B6",
">. c #B6BDAE",
",. c #A6AEA1",
"<. c #8D958C",
"1. c #899684",
"2. c #789664",
"3. c #7A9864",
"4. c #92B360",
"5. c #A2C062",
"6. c #A2C163",
"7. c #96B75F",
"8. c #95B65F",
"9. c #94B65F",
"0. c #9EBE62",
"q. c #99D3C2",
"w. c #E0EEE0",
"e. c #F9F8EB",
"r. c #CFD4C6",
"t. c #B3BAAC",
"y. c #78817B",
"u. c #778378",
"i. c #789E5B",
"p. c #9DBD61",
"a. c #7AA358",
"s. c #77A157",
"d. c #76A057",
"f. c #93B65F",
"g. c #A6C464",
"h. c #9BD4C3",
"j. c #DFEDDF",
"k. c #F7F7EA",
"l. c #CFD3C6",
"z. c #A5ADA1",
"x. c #7E877F",
"c. c #7D887C",
"v. c #799A61",
"b. c #96B760",
"n. c #99B961",
"m. c #7A9E5E",
"M. c #789C5E",
"N. c #779B5E",
"B. c #8EB060",
"V. c #9EBD61",
"C. c #A9B1A4",
"Z. c #949E92",
"A. c #7B867B",
"S. c #799C5E",
"D. c #79A258",
"F. c #788577",
"G. c #799665",
"H. c #79A357",
"J. c #CED2C5",
"K. c #B2BAAC",
"L. c #939C91",
"P. c #7C877D",
"I. c #789A5F",
"U. c #78A05A",
"Y. c #789D5D",
"T. c #798579",
"R. c #79837B",
"E. c #79837C",
"W. c #799566",
"Q. c #78A058",
"!. c #F8F7EA",
"~. c #BEC4B7",
"^. c #97A094",
"/. c #919A8F",
"(. c #7C897A",
"). c #788575",
"_. c #788676",
"`. c #7B8878",
"'. c #90998D",
"]. c #919B8F",
"[. c #929B90",
"{. c #828E7F",
"}. c #778575",
"|. c #E0EDDF",
" X c #BCC1B5",
".X c #7C867E",
"XX c #778079",
"oX c #78817A",
"OX c #7B847C",
"+X c #838C83",
"@X c #AEDBCB",
"#X c #B4DDCD",
"$X c #C9DCCE",
"%X c #DCDDD1",
"&X c #A5ADA0",
"*X c #A4ACA0",
"=X c #959D92",
"-X c #8C958A",
";X c #8D968B",
":X c #8E978C",
">X c #949D92",
",X c #8C968B",
"<X c #A4AB9F",
"1X c #95D2C1",
"2X c #D1E8DA",
"3X c #FFFCEF",
"4X c #D1D4C8",
"5X c #8F988C",
"6X c #B8BEB0",
"7X c #9EA699",
"8X c #B8BFB0",
"9X c #9AD3C2",
"0X c #C7E5D6",
"qX c #C7DACC",
"wX c #CACBBF",
"eX c #C1C5B9",
"rX c #A4AC9F",
"tX c #A9B1A3",
"yX c #A3AC9E",
"uX c #A6AEA0",
"iX c #9EA79A",
"pX c #98A094",
"aX c #96D2C1",
"sX c #AEDCCB",
"dX c #D4EBDC",
"fX c #D1E6D7",
"gX c #D0D5C7",
"hX c #D0D4C7",
"jX c #D0D4C6",
"kX c #D2D6C9",
"lX c #B5BCAF",
"zX c #A1AA9D",
"xX c #B2B9AC",
"cX c #B7BDAF",
"vX c #AEB5A8",
"bX c #9FA79B",
"nX c #9AD4C3",
"mX c #ABDACA",
"MX c #F6F6E9",
"NX c #FBFAED",
"BX c #CACEC1",
"VX c #8F998D",
"CX c #ADB5A7",
"ZX c #9AD4C2",
"AX c #A9D9C9",
"SX c #DEECDF",
"DX c #E1EFE1",
"FX c #C7D2C5",
"GX c #A8AFA3",
"HX c #ADB4A7",
"JX c #C1C7BA",
"KX c #C4C9BB",
"LX c #BDC3B6",
"PX c #98D3C2",
"IX c #C3E2D3",
"UX c white",
/* pixels */
"    . X o O + @ # $ % & * = - ; : : : : : : : : : : : : : : : : ",
"    . X o O + @ # $ % & * = - ; : : : : : : : : : : : : : : : : ",
"    . X o O + @ # $ % & * = - ; : : : : : : : : : : : : : : : : ",
"    . X > , + < 1 2 3 4 5 = - ; : : : : : : : : : : : : : : : : ",
"    . X 6 7 8 9 0 q w e & * - ; : : : : : : : : : : : : : : : : ",
"    r > t y u i p a s d f * g h j : : : : : : : : : : : : : : : ",
"    k l z x u c v b n m M * N B V : : : : : : : : : : : : : : : ",
"    C Z u u u A p S D F f G = H J ; : : : : : : : : : : : : : : ",
"    K y u u y p L P I U Y 5 * T R ; : : : : : : : : : : : : : : ",
"    C y u A E W P Q % ! * * * T R ; : : : : : : : : : : : : : : ",
"    ~ u A A E W # $ % & * * * T ^ / ( : : : : : : : : : : : : : ",
"    ) _ ` u E W # $ % & * * * * ' ] [ : : : : : : : : : : : : : ",
"    . o { u E W # $ % & * * * * * T } : : : : : : : : : : : : : ",
"    . X |  ...@ # $ % & * * * * * * ] } } } } } X.o.j : : : : : ",
"    . X o , O.@ # $ % & * * * * * * * = = = = = H +.h ; ; ; ; ; ",
"    . X o O + @ # $ % & * * * * * * * * * * * * * @.R R R R R R ",
"#.#.$._ X O %.&.*.2 3 4 5 * * * * * * * * G G G G * T T T T T T ",
"=.=.-.;.:.>.,.<.1.2.3.4.5.* * * * * * * 6.7.8.8.9.0.5 * * * * * ",
"q.q.w.e.r.t.> , K y.u.i.p.G G G G G G G & a.s.s.d.f.g.G G G G G ",
"h.h.j.k.l.t.t.| z.x.c.v.b.p.f f f f f p.n.m.M.M.N.B.V.f f f f f ",
"h.h.j.k.l.X C.u u Z.y A.S.D.D.D.D.D.D.D.m F.s s b G.H.D.D.D.D.D.",
"h.h.j.k.J.K.l x u u L.P.I.Q U.U.U.U.U.Q Y.T.R.R.E.W.Q.U.U.U.U.U.",
"h.h.j.!.~.A ^.u u u u /.(.)._._._._._._.`.'.Z ].[.{.}._._._._._.",
"h.h.|.e. X'.x u u u u x .XXXW oXoXoXoXW OXL.u u A +XXXoXoXW W W ",
"h.h.@X#X$X%X~.y u u A C.&X*X=X-X;X;X;X;X:X>Xu u u p ,X;X,X[.<X<X",
"h.h.q.1X2X3X4X5XZ x A K.O 6X` x u A A A A u u x x x u u u 7X8X8X",
"h.h.h.9X#X0XqXwXeXrXrX_ t.t.tXyX%.u u u u x x t ,.uX,.iXy pX*X*X",
"h.h.h.h.q.aXsXdXfXgXhXl.l.l.jXkXlXy u u A zX7 xXcX> O vXt bXx x ",
"h.h.h.h.h.h.nXaXmXMXk.k.k.k.k.NXBXVXy y A t.o X X X X X o CXy y ",
"h.h.h.h.h.h.h.ZXAXSXj.j.j.j.j.DXFXGXK C HXJX. . . . . . KXLXK K ",
"h.h.h.h.h.h.h.h.h.h.h.h.h.h.h.PXIX#.                            ",
"h.h.h.h.h.h.h.h.h.h.h.h.h.h.h.PXIX#.                            "
};
