/* XPM */
static char *_6b3047d3ff74ef183cd10796655732392sMzdtzL3oUlc9z[] = {
/* columns rows colors chars-per-pixel */
"32 32 198 2 ",
"   c #C0D470",
".  c #C1D570",
"X  c #C1D470",
"o  c #B1CA69",
"O  c #BED36F",
"+  c #B4CC6A",
"@  c #B0CA69",
"#  c #BBD16D",
"$  c #BBD16E",
"%  c #A4C263",
"&  c #A3C163",
"*  c #A3C263",
"=  c #BDD26E",
"-  c #C1D571",
";  c #AAC666",
":  c #A3C162",
">  c #A2C162",
",  c #B6CE6C",
"<  c #C2D571",
"1  c #B7CE6C",
"2  c #A9C565",
"3  c #95B65F",
"4  c #95B75F",
"5  c #A2C163",
"6  c #A8C565",
"7  c #B0CA68",
"8  c #BCD16E",
"9  c #BCD26E",
"0  c #A8C465",
"q  c #B6CE6B",
"w  c #B4CD6B",
"e  c #A5C263",
"r  c #77A157",
"t  c #78A258",
"y  c #A0BF62",
"u  c #A5C363",
"i  c #B4CC6B",
"p  c #B5CD6B",
"a  c #789C5E",
"s  c #799D5E",
"d  c #99B961",
"f  c #9DBC61",
"g  c #9FBE62",
"h  c #9CBC61",
"j  c #A1C062",
"k  c #B2CB69",
"l  c #B2CB6A",
"z  c #A2C062",
"x  c #9EBE62",
"c  c #9DBD61",
"v  c #788379",
"b  c #788478",
"n  c #799F5C",
"m  c #79A258",
"M  c #9EBD61",
"N  c #85AB5B",
"B  c #77A058",
"V  c #96B860",
"C  c #84AA5B",
"Z  c #7AA359",
"A  c #7B857C",
"S  c #7B867B",
"D  c #789D5D",
"F  c #78A05A",
"G  c #84A95C",
"H  c #769E59",
"J  c #93B55F",
"K  c #95B660",
"L  c #83A85C",
"P  c #9EBD62",
"I  c #79A15A",
"U  c #ADB5A8",
"Y  c #ACB3A6",
"T  c #7D8B7B",
"R  c #788675",
"E  c #7DA05E",
"W  c #7DA559",
"Q  c #7EA659",
"!  c #7A8F6E",
"~  c #788477",
"^  c #7C9A63",
"/  c #7CA558",
"(  c #94B65F",
")  c #7C9B62",
"_  c #798E6F",
"`  c #7DA25C",
"'  c #788775",
"]  c #788676",
"[  c #B6BDAF",
"{  c #B4BBAD",
"}  c #7D877F",
"|  c #778179",
" . c #779C5C",
".. c #78A157",
"X. c #78A256",
"o. c #788A70",
"O. c #78807C",
"+. c #789663",
"@. c #76A156",
"#. c #92B55E",
"$. c #A6C464",
"%. c #A6C364",
"&. c #93B65F",
"*. c #789762",
"=. c #788971",
"-. c #78A257",
";. c #779E5B",
":. c #778278",
">. c #77817A",
",. c #B5BCAE",
"<. c #A5ADA1",
"1. c #A3AB9F",
"2. c #7E9077",
"3. c #788B70",
"4. c #778B70",
"5. c #879383",
"6. c #8E978D",
"7. c #7F8F7A",
"8. c #778970",
"9. c #7F9D64",
"0. c #85AB5A",
"q. c #85AA5B",
"w. c #809E63",
"e. c #778A70",
"r. c #7F8E79",
"t. c #8E978C",
"y. c #879384",
"u. c #7C8E75",
"i. c #A2AA9E",
"p. c #A4AB9F",
"a. c #B7BDAF",
"s. c #7F8881",
"d. c #757F79",
"f. c #767F79",
"g. c #77807A",
"h. c #8D968C",
"j. c #98A094",
"k. c #818A82",
"l. c #757D7A",
"z. c #769365",
"x. c #77A255",
"c. c #77A156",
"v. c #769464",
"b. c #808981",
"n. c #97A094",
"m. c #76807A",
"M. c #7C857F",
"N. c #B4BBAE",
"B. c #B7BEAF",
"V. c #9DA59A",
"C. c #98A196",
"Z. c #99A196",
"A. c #8B948A",
"S. c #869086",
"D. c #90998E",
"F. c #949D91",
"G. c #969F94",
"H. c #99A197",
"J. c #84967B",
"K. c #758E66",
"L. c #768F68",
"P. c #839579",
"I. c #919A8E",
"U. c #879086",
"Y. c #8A9389",
"T. c #9CA498",
"R. c #A8B0A2",
"E. c #AAB1A4",
"W. c #AAB2A4",
"Q. c #AAB2A5",
"!. c #9BA397",
"~. c #959E92",
"^. c #9FA79B",
"/. c #A2AA9D",
"(. c #B0B7AA",
"). c #B9C0B2",
"_. c #A1A89E",
"`. c #909890",
"'. c #919991",
"]. c #A0A79D",
"[. c #B9C0B1",
"{. c #B1B8AA",
"}. c #9FA89B",
"|. c #969F93",
" X c #99A295",
".X c #929B8F",
"XX c #939C90",
"oX c #ABB3A5",
"OX c #B6BDAE",
"+X c #ACB4A6",
"@X c #929B90",
"#X c #AAB1A5",
"$X c #BCC2B5",
"%X c #C4C9BB",
"&X c #C3C9BB",
"*X c #BDC3B5",
"=X c #F3F4E7",
"-X c white",
/* pixels */
"                                                                ",
"                                                                ",
"                                                                ",
"                                                                ",
"                                                                ",
"                                                                ",
"                                                                ",
"                                                                ",
"                                                                ",
"                                                                ",
"                                                                ",
"                                                                ",
"                                                                ",
"                                                                ",
". . . .       X . . .                       . . . X         . . ",
"o o o o O     + @ o @ #                   $ @ o @ +       O o o ",
"% % & * = - - ; : & > , <               < 1 > & : 2 - . . O % & ",
"3 4 5 % + , , 6 % % * 7 , 8           9 , @ * % % 0 , q q w e % ",
"r t y u * * * % % e u % > i -       - p > % u e % % * * * * u u ",
"a s d f & % % % % g h j * k 8 $ $ $ 8 l * z h x % % % % % & c h ",
"v b n m M % % % u N B 4 u % e e e e e % u V B C u % % % % y Z m ",
"A S D F h 5 z z & G H J & & % % % % % & & K H L & z z z 5 P I F ",
"U Y T R E W W W Q ! ~ ^ / ( u % % % u 4 / ) ~ _ Q W W W W ` ' ] ",
"[ { } |  .......X.o.O.+.@.#.$.e e e %.&.@.*.O.=.-.........;.:.>.",
",.{ <.1.2.3.3.3.4.5.6.7.8.9.0.q.q.q.N w.e.r.t.y.3.3.3.3.3.u.i.p.",
",.,.a.[ s.d.f.g.f.h.j.k.l.z.x.c.c.c.x.v.l.b.n.t.m.g.g.g.f.M.N.B.",
"[ [ [ [ V.C.Z.A.S.D.F.G.H.J.K.L.L.L.K.P.H.G.F.I.U.U.U.Y.C.T.,.[ ",
"R.R.R.R.E.W.Q.!.~.^./.(.)._.`.'.'.'.`.].[.{./.}.|.|.|. XE.E.R.R.",
".X.X.X.X.X.X.XXX.XoX,.{ { ,.OXOXOXOXOX,.{ { ,.+X@XXXXXXX.X.X.X.X",
"Q.Q.Q.Q.Q.Q.Q.Q.#X$X%X&X&X&X&X&X&X&X&X&X&X&X%X*X#XQ.Q.Q.Q.Q.Q.Q.",
"=X=X=X=X=X=X=X=X=X=X=X=X=X=X=X=X=X=X=X=X=X=X=X=X=X=X=X=X=X=X=X=X",
"=X=X=X=X=X=X=X=X=X=X=X=X=X=X=X=X=X=X=X=X=X=X=X=X=X=X=X=X=X=X=X=X"
};
