/* XPM */
static char *_b254a2441794fcddcf0106e4850b02fpdrsV0nnShnIjdcT[] = {
/* columns rows colors chars-per-pixel */
"32 32 247 2 ",
"   c #C0D470",
".  c #C1D570",
"X  c #B6CE6B",
"o  c #A3C263",
"O  c #A4C263",
"+  c #A2C062",
"@  c #7DA559",
"#  c #78A157",
"$  c #788B70",
"%  c #767F79",
"&  c #98A095",
"*  c #B7BEB0",
"=  c #B4BBAD",
"-  c #C3C9BB",
";  c #F3F4E7",
":  c #A5C363",
">  c #A3C163",
",  c #7EA658",
"<  c #78A256",
"1  c #778B6F",
"2  c #757E78",
"3  c #97A095",
"4  c #A0BF62",
"5  c #8BAF5D",
"6  c #89AD5D",
"7  c #7A936A",
"8  c #788F6C",
"9  c #849180",
"0  c #889187",
"q  c #A0A89C",
"w  c #B7BEAF",
"e  c #9CBC61",
"r  c #77A158",
"t  c #779E59",
"y  c #788577",
"u  c #78807B",
"i  c #8D968C",
"p  c #969F92",
"a  c #A7AFA1",
"s  c #79A258",
"d  c #78A05A",
"f  c #788676",
"g  c #78817A",
"h  c #8D968B",
"j  c #959E92",
"k  c #9FA89B",
"l  c #A9B1A4",
"z  c #ABB3A5",
"x  c #C1D571",
"c  c #B7CE6C",
"v  c #969F93",
"b  c #939C90",
"n  c #9DA699",
"m  c #C4CABC",
"M  c #BDD26F",
"N  c #BBD16E",
"B  c #B3CB6A",
"V  c #949D91",
"C  c #9CA498",
"Z  c #BFC5B7",
"A  c #B1CA69",
"S  c #789F5A",
"D  c #ABB2A6",
"F  c #9DBD61",
"G  c #7CA459",
"H  c #7BA25A",
"J  c #788874",
"K  c #788378",
"L  c #8B9589",
"P  c #97A094",
"I  c #AAB1A5",
"U  c #9EBD62",
"Y  c #7DA25C",
"T  c #789E5B",
"R  c #7A8C73",
"E  c #79827C",
"W  c #B5BCAE",
"Q  c #A7AEA1",
"!  c #A2C163",
"~  c #B8BFB1",
"^  c #A9B1A3",
"/  c #A9B1A5",
"(  c #C1D470",
")  c #B8CF6C",
"_  c #ABC666",
"`  c #ABC766",
"'  c #A7C464",
"]  c #B1B8AA",
"[  c #BDC3B5",
"{  c #C2D571",
"}  c #B6CD6B",
"|  c #A2C162",
" . c #C4C9BB",
".. c #ACC767",
"X. c #778A6F",
"o. c #747D77",
"O. c #979F94",
"+. c #B3BAAC",
"@. c #C2C8BA",
"#. c #F6F6E8",
"$. c #95B65F",
"%. c #A1BF62",
"&. c #A1C062",
"*. c #95B75F",
"=. c #94B65F",
"-. c #93B55F",
";. c #7C9A63",
":. c #779663",
">. c #879681",
",. c #8D958C",
"<. c #A2AA9E",
"1. c #B6BDAF",
"2. c #BCC2B4",
"3. c #CCD4C8",
"4. c #CFE1DA",
"5. c #77A157",
"6. c #9ABB60",
"7. c #A6C363",
"8. c #77A057",
"9. c #99BA60",
"0. c #779F59",
"q. c #778576",
"w. c #77807A",
"e. c #A5ACA1",
"r. c #B9C0B1",
"t. c #CCCFC1",
"y. c #DEEAE1",
"u. c #89BEC1",
"i. c #789C5E",
"p. c #94B560",
"a. c #95B660",
"s. c #789B5E",
"d. c #93B460",
"f. c #96B761",
"g. c #799C5E",
"h. c #789B5F",
"j. c #7C897A",
"k. c #7C867E",
"l. c #A1A99D",
"z. c #B2BAAC",
"x. c #B3BBAC",
"c. c #CBCFC1",
"v. c #DDE9E0",
"b. c #8CBFC2",
"n. c #788379",
"m. c #799B60",
"M. c #79A257",
"N. c #799C5F",
"B. c #788279",
"V. c #799A61",
"C. c #79A357",
"Z. c #79847A",
"A. c #919A8E",
"S. c #A6AEA1",
"D. c #7B857C",
"F. c #799962",
"G. c #78A059",
"H. c #789A60",
"J. c #79847B",
"K. c #79837B",
"L. c #789862",
"P. c #929B8F",
"I. c #A5ADA0",
"U. c #CACEC0",
"Y. c #ADB5A8",
"T. c #849081",
"R. c #778575",
"E. c #788575",
"W. c #7D8A7B",
"Q. c #919A8F",
"!. c #919B8F",
"~. c #7F8B7C",
"^. c #B8BDB0",
"/. c #DEEAE0",
"(. c #858E86",
"). c #767F78",
"_. c #77817A",
"`. c #7D877F",
"'. c #7F8980",
"]. c #778179",
"[. c #778079",
"{. c #909A8E",
"}. c #B4BAAD",
"|. c #DFEAE1",
" X c #A7AFA2",
".X c #A3AB9F",
"XX c #A4AB9F",
"oX c #A4ACA0",
"OX c #9BA397",
"+X c #8C958A",
"@X c #8E988C",
"#X c #8F988D",
"$X c #8C968B",
"%X c #959D92",
"&X c #ACB3A6",
"*X c #ACB4A6",
"=X c #B8BEB1",
"-X c #DCDED1",
";X c #CAD8CE",
":X c #A2CACA",
">X c #ABB2A5",
",X c #A1A99C",
"<X c #B8BEB0",
"1X c #B7BDAF",
"2X c #9CA598",
"3X c #8D978B",
"4X c #C7CBBE",
"5X c #FFFDEF",
"6X c #D6E6DD",
"7X c #87BDC0",
"8X c #A4AC9F",
"9X c #9FA79A",
"0X c #A6AEA0",
"qX c #AAB2A5",
"wX c #C3C7BA",
"eX c #CACCBF",
"rX c #C3D3CA",
"tX c #BFDAD5",
"yX c #AED0CE",
"uX c #8BBEC2",
"iX c #A8B0A2",
"pX c #A8B0A3",
"aX c #B1B8AB",
"sX c #CFD4C6",
"dX c #CFD3C6",
"fX c #CFD3C5",
"gX c #CDDDD5",
"hX c #CEE3DC",
"jX c #A9CECD",
"kX c #86BCC0",
"lX c #929C90",
"zX c #B1B9AB",
"xX c #CBD0C2",
"cX c #F9F9EB",
"vX c #F7F7EA",
"bX c #F9F8EA",
"nX c #A8CECD",
"mX c #85BCC0",
"MX c #8ABEC1",
"NX c #ACB3A7",
"BX c #C1C6B9",
"VX c #CCD4C7",
"CX c #DCE9E0",
"ZX c #DCE8DF",
"AX c #DDE9DF",
"SX c #A3CBCA",
"DX c white",
/* pixels */
"                                . X o O O + @ # $ % & * = - ; ; ",
"                                . X o O O + @ # $ % & * = - ; ; ",
"                                . X o O O + @ # $ % & * = - ; ; ",
"                                . X o O : > , < 1 2 3 * = - ; ; ",
"                                . X O 4 5 6 7 8 9 0 q w = - ; ; ",
"                                . X O e r t y u i p a * = - ; ; ",
"                                . X O e s d f g h j k l z - ; ; ",
"                                x c O e s d f g h v j b n m ; ; ",
"                              M N B O e s d f g h v j V C Z ; ; ",
"                            . A o O : e s S f g h v j j b D ; ; ",
"                            . A > O : F G H J K L V j P V I ; ; ",
"                            . A > O O > 4 U Y T R E 3 W Q I ; ; ",
"                            x A > O O O O ! @ # $ % & ~ ^ / ; ; ",
"          ( ) _ ` ` ` ` ` ` ` ' O O O O O + @ # $ % & * ] [ ; ; ",
". . . . . { } | o o o o o o o O O O O O O + @ # $ % & * =  .; ; ",
"A A A A A A ..O O O O O O O O O O O O O O + @ # $ % & * = - ; ; ",
"O O o > > > o O O : : : : O O O O O O O : > , < X.o.O.* +.@.#.#.",
"$.$.%.O O O O O &.*.$.$.=.4 O O O O O &.*.-.;.:.>.,.<.1.2.3.4.4.",
"5.5.6.7.: : : 7.e 5.5.5.8.9.7.: : : : F # 0.q.w.e.r.1.+.t.y.SXSX",
"i.i.p.F e e e F a.i.i.i.s.d.F e e e F f.g.h.j.k.l.] z.x.c.v.SXSX",
"n.n.m.M.s s s s N.n.n.n.B.V.C.s s s s g.K Z.A.j j j S.= c.v.SXSX",
"D.D.F.G.d d d G.H.J.K.K.K.L.G.d d d G.h.Z.D.P.j j V I.+.U.v.SXSX",
"Y.Y.T.R.f f f E.W.Q.!.!.P.~.R.f f f E.j.A.P.j j j j P v ^./.SXSX",
"1.1.(.)._._._._.`.j j j p '.].g g _.[.k.V j j j j j V {.}.|.SXSX",
"W W  X.XXXoXOX+X@Xj j j j #X$Xh +X%XoXI.&X&X&X*XC P.=X-X;XSXSXSX",
"W W 1.w * r.>Xj v j j j j j j j V ,X<X1X1.1.1.1.2X3X4X5XSXSXSXSX",
"1.1.1.w &X8X9Xj j j j V V l.S.0XI.qX+.+.+.+.+.z.wXeXrXSXSXSXSXSX",
"iXiXiXpX2Xb V j j j v ,X<.aXw 1.W Z sXdXdXdXdXfXgXSXSXSXSXSXSXSX",
"P.P.P.P.lXb b b b b j zXW = = = zXxXcXvXvXvXvXbXSXSXSXSXSXSXSXSX",
"qXqXqXqXqXqXqXqXqXI NXBX- - - - @.VXCXZXZXZXZXAXSXSXSXSXSXSXSXSX",
"; ; ; ; ; ; ; ; ; ; ; ; ; ; ; ; #.4.SXSXSXSXSXSXSXSXSXSXSXSXSXSX",
"; ; ; ; ; ; ; ; ; ; ; ; ; ; ; ; #.4.SXSXSXSXSXSXSXSXSXSXSXSXSXSX"
};
