/* XPM */
static char *c47dbd1baf5e4e21897eee6e9af6cf2dOS2mhtsoIbnRDgX4[] = {
/* columns rows colors chars-per-pixel */
"32 32 130 2 ",
"   c #F3F4E7",
".  c #C3C9BB",
"X  c #B4BBAD",
"o  c #B5BCAE",
"O  c #B7BEB0",
"+  c #9EA69A",
"@  c #768079",
"#  c #788873",
"$  c #78A158",
"%  c #7BA359",
"&  c #A0BF62",
"*  c #A4C263",
"=  c #A3C263",
"-  c #B6CE6B",
";  c #C1D570",
":  c #C0D470",
">  c #B6BDAF",
",  c #9DA59A",
"<  c #A5ADA0",
"1  c #99A296",
"2  c #8C968B",
"3  c #77807A",
"4  c #A2AA9E",
"5  c #959E92",
"6  c #8A9389",
"7  c #77817A",
"8  c #AFB5A9",
"9  c #99A295",
"0  c #97A094",
"q  c #969F93",
"w  c #AAB1A5",
"e  c #939C90",
"r  c #788874",
"t  c #77A058",
"y  c #7AA359",
"u  c #9FBF62",
"i  c #A3C162",
"p  c #AAB2A5",
"a  c #949D91",
"s  c #889187",
"d  c #7E8780",
"f  c #7C8F73",
"g  c #779A5F",
"h  c #7FA060",
"j  c #9ABA60",
"k  c #9BBB61",
"l  c #BAD06D",
"z  c #BED36F",
"x  c #848D84",
"c  c #767F7A",
"v  c #788E6D",
"b  c #77A256",
"n  c #81A85A",
"m  c #A5C363",
"M  c #A5C263",
"N  c #BCD16E",
"B  c #848E84",
"V  c #77A157",
"C  c #BBD16E",
"Z  c #838C83",
"A  c #757E78",
"S  c #778D6B",
"D  c #81A959",
"F  c #C2D571",
"G  c #969F94",
"H  c #99A196",
"J  c #8B9A84",
"K  c #779069",
"L  c #7C9767",
"P  c #8DB15D",
"I  c #8FB25E",
"U  c #A2C063",
"Y  c #AFC968",
"T  c #B1CB69",
"R  c #A9B1A5",
"E  c #919A8E",
"W  c #A9B0A3",
"Q  c #BBC1B3",
"!  c #9FA79C",
"~  c #788774",
"^  c #769F58",
"/  c #79A258",
"(  c #A2C162",
")  c #B6CD6B",
"_  c #B5BCAF",
"`  c #A1A99C",
"'  c #AEB5A8",
"]  c #B8BFB0",
"[  c #C4CABC",
"{  c #C4C9BB",
"}  c #B4BCAD",
"|  c #BBC1B4",
" . c #A9B1A3",
".. c #B1B8AA",
"X. c #ACC767",
"o. c #ADC767",
"O. c #B9D06D",
"+. c #C1D470",
"@. c #A8B0A3",
"#. c #B9C0B2",
"$. c #9EA69B",
"%. c #BCD26E",
"&. c #C1D571",
"*. c #929C90",
"=. c #9FA79B",
"-. c #A7AFA3",
";. c #94A08F",
":. c #768870",
">. c #7A906D",
",. c #83A95B",
"<. c #85AB5B",
"1. c #A1C062",
"2. c #838D83",
"3. c #767F79",
"4. c #778D6C",
"5. c #868F86",
"6. c #C3C8BB",
"7. c #919A8F",
"8. c #959E93",
"9. c #7C857F",
"0. c #7C9072",
"q. c #779E5A",
"w. c #80A45D",
"e. c #9FBE62",
"r. c #9CA599",
"t. c #768178",
"y. c #788972",
"u. c #79A259",
"i. c #7CA459",
"p. c white",
/* pixels */
"    . X o O + @ # $ % & * = - ; : : : : : : : : : : : : : : : : ",
"    . X o O + @ # $ % & * = - ; : : : : : : : : : : : : : : : : ",
"    . X o > , @ # $ % & * = - ; : : : : : : : : : : : : : : : : ",
"    . o < 1 2 3 # $ % & * = - ; : : : : : : : : : : : : : : : : ",
"    . o 4 5 6 7 # $ % & * = - ; : : : : : : : : : : : : : : : : ",
"    8 9 0 q 6 7 # $ % & * = - ; : : : : : : : : : : : : : : : : ",
"    w e 5 q 6 3 r t y u * i - ; : : : : : : : : : : : : : : : : ",
"    p a s d f g h j k = - l z : : : : : : : : : : : : : : : : : ",
"    p a x c v b n * m M N ; : : : : : : : : : : : : : : : : : : ",
"    p a B 3 v V n * * M C : : : : : : : : : : : : : : : : : : : ",
"    p a B 3 v V n * * M C : : : : : : : : : : : : : : : : : : : ",
"    p a B 3 v V n * * M C : : : : : : : : : : : : : : : : : : : ",
"    p a B 3 v V n * * M C : : : : : : : : : : : : : : : : : : : ",
"    p a B 3 v V n * * M C : : : : : : : : : : : : : : : : : : : ",
"    p a Z A S b D m m m N F : : : : : : : : : : : : : : : : : : ",
"    p e G H J K L P I U Y T C : : : : : : : : : : : : : : : : : ",
"    R E W Q ! c ~ ^ / u * ( ) ; : : : : : : : : : : : : : : : : ",
"    _ ` ' ] + @ # $ % & * = - ; : : : : : : : : : : : : : : : : ",
"    [ o o O + @ # $ % & * = - ; : : : : : : : : : : : : : : : : ",
"    . X o O + @ # $ % & * = - ; : : : : : : : : : : : : : : : : ",
"    { } o O + @ # $ % & * i - ; : : : : : : : : : : : : : : : : ",
"    |  ...O + @ # $ % & X.o.O.+.: : : : : : : : : : : : : : : : ",
"    w E @.#.$.c r t y & %.&.: : : : : : : : : : : : : : : : : : ",
"    p *.=.-.;.:.>.,.<.1.C : : : : : : : : : : : : : : : : : : : ",
"    p a 2.3.4.b n * m M C : : : : : : : : : : : : : : : : : : : ",
"    p a B 3 v V n * * M C : : : : : : : : : : : : : : : : : : : ",
"    w a B 3 v V n * * M C : : : : : : : : : : : : : : : : : : : ",
"    ' 9 5.3 v V n * * M C : : : : : : : : : : : : : : : : : : : ",
"    6.o 7.3.v V n * * M C : : : : : : : : : : : : : : : : : : : ",
"    . o 8.9.0.q.w.e.& * C : : : : : : : : : : : : : : : : : : : ",
"    . X X o r.t.y.u.i.& N : : : : : : : : : : : : : : : : : : : ",
"    . X o O + @ # $ % & N : : : : : : : : : : : : : : : : : : : "
};
