/* XPM */
static char *de585744ed7b4af5e0109dc9200ff7b5YT9ILYyW2T2ETiXU[] = {
/* columns rows colors chars-per-pixel */
"32 32 130 2 ",
"   c #C0D470",
".  c #C1D570",
"X  c #B6CE6B",
"o  c #A3C263",
"O  c #A4C263",
"+  c #A2C062",
"@  c #7DA559",
"#  c #78A157",
"$  c #788B70",
"%  c #767F79",
"&  c #98A095",
"*  c #B7BEB0",
"=  c #B4BBAD",
"-  c #C3C9BB",
";  c #F3F4E7",
":  c #97A095",
">  c #B6BDAF",
",  c #B3BAAC",
"<  c #77807A",
"1  c #899288",
"2  c #99A296",
"3  c #A0A99C",
"4  c #C4C9BB",
"5  c #879086",
"6  c #959E92",
"7  c #9EA69A",
"8  c #C4C9BC",
"9  c #BED36F",
"0  c #BBD16E",
"q  c #B7CE6C",
"w  c #A5C263",
"e  c #969F93",
"r  c #AFB6A9",
"t  c #C1D470",
"y  c #77A157",
"u  c #788A71",
"i  c #77807B",
"p  c #879087",
"a  c #979F93",
"s  c #939C90",
"d  c #AAB1A5",
"f  c #9BBB61",
"g  c #9ABB60",
"h  c #82A360",
"j  c #779A5F",
"k  c #7B9170",
"l  c #7E8780",
"z  c #848D83",
"x  c #ABB2A6",
"c  c #A5C363",
"v  c #85AB5B",
"b  c #77A256",
"n  c #789169",
"m  c #7F897F",
"M  c #85AA5B",
"N  c #77A156",
"B  c #78916A",
"V  c #7F8980",
"C  c #A6C464",
"Z  c #85AC5A",
"A  c #77A255",
"S  c #779068",
"D  c #757E79",
"F  c #7E887E",
"G  c #A3C163",
"H  c #8DB15D",
"J  c #8AAF5C",
"K  c #7D9867",
"L  c #768D6B",
"P  c #8A9A83",
"I  c #9DA59A",
"U  c #97A094",
"Y  c #7CA459",
"T  c #76A057",
"R  c #767E7A",
"E  c #99A096",
"W  c #BAC1B3",
"Q  c #AAB1A4",
"!  c #A9B0A4",
"~  c #B8BFB0",
"^  c #AEB6A8",
"/  c #B7BDB0",
"(  c #C4CABC",
")  c #C1D571",
"_  c #BCD16E",
"`  c #BCD26E",
"'  c #B5CD6B",
"]  c #B2CB6A",
"[  c #B8BEB0",
"{  c #AFB7A9",
"}  c #B9C0B2",
"|  c #B6CD6B",
" . c #A2C162",
".. c #A9B1A3",
"X. c #929B90",
"o. c #ADB5A7",
"O. c #A2AA9D",
"+. c #77A057",
"@. c #969F92",
"#. c #AAB2A5",
"$. c #A2C163",
"%. c #87AC5C",
"&. c #83AA5A",
"*. c #7B936B",
"=. c #778971",
"-. c #83917F",
";. c #8E978D",
":. c #8E978C",
">. c #A3C162",
",. c #A6C363",
"<. c #767F7A",
"1. c #B8CF6C",
"2. c #A9C565",
"3. c #818A81",
"4. c #8A9389",
"5. c #BFD370",
"6. c #BDD26F",
"7. c #B9CF6D",
"8. c #A0BF62",
"9. c #83A75D",
"0. c #779E5A",
"q. c #7B926E",
"w. c #7D867F",
"e. c #7FA65A",
"r. c #79A258",
"t. c #788C70",
"y. c #768078",
"u. c #B5BCAE",
"i. c #B2B9AC",
"p. c white",
/* pixels */
"                                . X o O O + @ # $ % & * = - ; ; ",
"                                . X o O O + @ # $ % & * = - ; ; ",
"                                . X o O O + @ # $ % : > , - ; ; ",
"                                . X o O O + @ # $ < 1 2 3 4 ; ; ",
"                                . X o O O + @ # $ < 5 6 7 8 ; ; ",
"                                  9 0 q w + @ # $ < 5 e 6 r ; ; ",
"                                    t 0 w + @ y u i p a s d ; ; ",
"                                      0 w O f g h j k l z x ; ; ",
"                                      0 w O w c v b n < m x ; ; ",
"                                      0 w O O w M N B i V x ; ; ",
"                                      0 w O O w M N B i V x ; ; ",
"                                      0 w O O w M N B i V x ; ; ",
"                                      0 w O c C Z A S D F x ; ; ",
"                                      0 w G H J K L P I U d ; ; ",
"                                      0 w + Y T u R E W Q ! ; ; ",
"                                      0 w + @ # $ % & ~ ^ / ; ; ",
"                                      0 w + @ # $ % & * = ( ; ; ",
"                                      0 w + @ # $ % & * = - ; ; ",
"                                    ) _ w + @ # $ % & * = 8 ; ; ",
"                                  ` ' ] O + @ # $ % & [ { } ; ; ",
"                                . |  .G O + @ # $ % & } ..! ; ; ",
"                                . X o O O + @ # $ % X.o.O.d ; ; ",
"                                . X o O O + @ +.u i p @.s #.; ; ",
"                                . X o O O $.%.&.*.=.-.;.:.#.; ; ",
"                                . X >.O O O c ,.v b n <.m x ; ; ",
"                                t 1.2.2.O O O w M N B i V x ; ; ",
"                                    t 0 w O O w M N B i V x ; ; ",
"                                      0 w O O w M N B < 3.r ; ; ",
"                                    t 0 w O O c v N n % 4.( ; ; ",
"                                  5.6.7.w O 8.8.9.0.q.w.;.( ; ; ",
"                                . q O c O + e.r.t.y.e u.i.- ; ; ",
"                                . X o O O + @ # $ % & * = - ; ; "
};
