/* XPM */
static char *c5a816e83c1f46b5bd4242b5800edafbCWZm8Als61NTSqkZ[] = {
/* columns rows colors chars-per-pixel */
"32 32 227 2 ",
"   c #9BD4C3",
".  c #A2D8C1",
"X  c #9ED6C2",
"o  c #9FD6C2",
"O  c #A1D8C2",
"+  c #9DD5C2",
"@  c #9CD6C7",
"#  c #8BBD93",
"$  c #779F54",
"%  c #78A158",
"&  c #779F55",
"*  c #8DC09A",
"=  c #A1D8C6",
"-  c #A0D7C2",
";  c #9BD5C5",
":  c #93C8AB",
">  c #9CD5C3",
",  c #9CD4C3",
"<  c #A0D8C6",
"1  c #77A055",
"2  c #8EC09A",
"3  c #9DD6C6",
"4  c #9CD5C5",
"5  c #9DD5C3",
"6  c #A1D7C2",
"7  c #9BD3C1",
"8  c #84B37F",
"9  c #7FAC6F",
"0  c #81AD70",
"q  c #80AD71",
"w  c #8CB369",
"e  c #9BBB60",
"r  c #9ABB61",
"t  c #8AB26A",
"y  c #7FAC71",
"u  c #80AD70",
"i  c #86B06D",
"p  c #9AD4C3",
"a  c #99D3C2",
"s  c #9BD4C1",
"d  c #98D3C2",
"f  c #9BD4C4",
"g  c #7CA869",
"h  c #759E53",
"j  c #769F55",
"k  c #749D55",
"l  c #8BAF5C",
"z  c #A7C464",
"x  c #A5C363",
"c  c #A6C464",
"v  c #88AD5B",
"b  c #749E55",
"n  c #759E55",
"m  c #80A758",
"M  c #9CD5C2",
"N  c #AEDBCB",
"B  c #D0E7D9",
"V  c #CEE7D8",
"C  c #CFE7D8",
"Z  c #CAE4D3",
"A  c #8EBB8C",
"S  c #8FB464",
"D  c #92B45E",
"F  c #91B45E",
"G  c #9ABA60",
"H  c #A5C263",
"J  c #A4C263",
"K  c #99BA60",
"L  c #96B75F",
"P  c #97D3C0",
"I  c #BDE1D2",
"U  c #FCF9EC",
"Y  c #FAF8EC",
"T  c #FBF8EE",
"R  c #F2F2E3",
"E  c #84A864",
"W  c #9CBC60",
"Q  c #A6C363",
"!  c #C4DBCD",
"~  c #D0D3C7",
"^  c #CDD3C2",
"/  c #C4D4B1",
"(  c #C0D2AB",
")  c #8FB265",
"_  c #9FBE61",
"`  c #9BD4C2",
"'  c #96D2C1",
"]  c #D0E8D9",
"[  c #FEFBEE",
"{  c #D1D4C7",
"}  c #90998E",
"|  c #8D9C84",
" . c #759E54",
".. c #77A155",
"X. c #A0BF62",
"o. c #A3C263",
"O. c #A8D9C9",
"+. c #ABDACA",
"@. c #CBE0D1",
"#. c #E5E6D9",
"$. c #C1C6BB",
"%. c #8D968C",
"&. c #8B9A83",
"*. c #78A058",
"=. c #7AA359",
"-. c #9FBF62",
";. c #A8C565",
":. c #AAC666",
">. c #DEECDF",
",. c #F7F7EA",
"<. c #BAC0B4",
"1. c #889386",
"2. c #778576",
"3. c #798C70",
"4. c #7DA55A",
"5. c #80A75A",
"6. c #A6C364",
"7. c #A8C465",
"8. c #A7C465",
"9. c #BBD16E",
"0. c #C0D470",
"q. c #DFEDDF",
"w. c #F9F8EB",
"e. c #ACB2A8",
"r. c #757E78",
"t. c #798E6E",
"y. c #77A058",
"u. c #80A65B",
"i. c #A1C062",
"p. c #A2C163",
"a. c #A3C163",
"s. c #B0CA69",
"d. c #BFD36F",
"f. c #9DD5C4",
"g. c #DEEBDE",
"h. c #F7F6E9",
"j. c #AAB1A7",
"k. c #747D77",
"l. c #788E6D",
"z. c #77A157",
"x. c #81A85A",
"c. c #B1CA69",
"v. c #C1D570",
"b. c #E4EEE1",
"n. c #B3BCAF",
"m. c #A5ADA0",
"M. c #8B948A",
"N. c #767F7A",
"B. c #B3CC6A",
"V. c #BCD16E",
"C. c #BDD26F",
"Z. c #F4F5E8",
"A. c #F4F4E8",
"S. c #A9B1A4",
"D. c #929C8F",
"F. c #838D83",
"G. c #77807A",
"H. c #B7CE6C",
"J. c #C1D571",
"K. c #F3F4E7",
"L. c #AAB2A5",
"P. c #949D91",
"I. c #848E84",
"U. c #B6CE6B",
"Y. c #767F79",
"T. c #778E6C",
"R. c #77A256",
"E. c #81A959",
"W. c #939D91",
"Q. c #8C958A",
"!. c #858E85",
"~. c #809079",
"^. c #779367",
"/. c #7D9965",
"(. c #90B35E",
"). c #A2C062",
"_. c #939C90",
"`. c #969F92",
"'. c #97A094",
"]. c #8B938A",
"[. c #777F7B",
"{. c #788774",
"}. c #769F58",
"|. c #79A258",
" X c #959E92",
".X c #969F93",
"XX c #8A9389",
"oX c #77817A",
"OX c #788873",
"+X c #7BA359",
"@X c #939C91",
"#X c #778476",
"$X c #798B71",
"%X c #7CA459",
"&X c #7FA65A",
"*X c #858F85",
"=X c #79827C",
"-X c #798E6F",
";X c #779F59",
":X c #80A65C",
">X c #BAD06D",
",X c #BFD470",
"<X c #C1D470",
"1X c #A9B1A5",
"2X c #B5BBAE",
"3X c #A1AA9D",
"4X c #919A8F",
"5X c #838C84",
"6X c #7F9079",
"7X c #779465",
"8X c #7D9B65",
"9X c #93B55F",
"0X c #C4C9BC",
"qX c #B6BDAF",
"wX c #A3AB9E",
"eX c #77807B",
"rX c #C3C9BB",
"tX c #B4BCAD",
"yX c #A7AEA1",
"uX c #9DA599",
"iX c #8E978D",
"pX c #B4BBAD",
"aX c #B5BCAE",
"sX c #B7BEB0",
"dX c #9EA69A",
"fX c #768079",
"gX c white",
/* pixels */
"    . X     o O         . +   @ # $ % % % % % % & * = - ; : % % ",
"    >   - o   >   > . , >   - < # $ % % % % % % 1 2 3 , 4 : % % ",
"        > >   5 6   5 7 8 9 0 q w e r r r r r r e t y u y i r r ",
"  - 5       p a s d d f g h j k l z x x x x x x c v b j n m x x ",
"  X >   X M N B V C Z A S D D F G H J J J J J J H K F D F L J J ",
"  p     M P I U Y T R E W c Q Q x J J J J J J J J x Q Q Q x J J ",
"  X , p N I ! ~ ^ / ( ) _ J J J J J J J J J J J J J J J J J J J ",
"  6 ` ' ] [ { } |  ...X.H J J J J J J J J J J J o.o.o.o.o.o.o.o.",
"    O.+.@.#.$.%.&.*.=.-.J J J J J J J J J J J ;.:.:.:.:.:.:.:.:.",
"    >.,.<.} 1.2.3.4.5.X.J J J J 6.7.8.8.8.8.7.9.0.0.0.0.0.0.0.0.",
"    q.w.e.r.t.y.u.i.p.J J J J a.s.0.d.d.d.d.d.0.0.0.0.0.0.0.0.0.",
"f.f.g.h.j.k.l.z.x.J J J J J J J c.v.0.0.0.0.0.0.0.0.0.0.0.0.0.0.",
"b.b.n.m.M.N.l.z.x.J J J J o.B.V.C.0.0.0.0.0.0.0.0.0.0.0.0.0.0.0.",
"Z.A.S.D.F.G.l.z.x.J J J J o.H.J.0.0.0.0.0.0.0.0.0.0.0.0.0.0.0.0.",
"K.K.L.P.I.G.l.z.x.J J J J o.U.v.0.0.0.0.0.0.0.0.0.0.0.0.0.0.0.0.",
"K.K.L.P.F.Y.T.R.E.x x J J o.U.v.0.0.0.0.0.0.0.0.0.0.0.0.0.0.0.0.",
"K.K.L.W.Q.!.~.^./.(.F ).J o.U.v.0.0.0.0.0.0.0.0.0.0.0.0.0.0.0.0.",
"K.K.L._.`.'.].[.{.}.|.-.J o.U.v.0.0.0.0.0.0.0.0.0.0.0.0.0.0.0.0.",
"K.K.L._. X.XXXoXOX% +XX.J o.U.v.0.0.0.0.0.0.0.0.0.0.0.0.0.0.0.0.",
"K.K.L._. X.XXXG.OX*.=.-.J a.U.v.0.0.0.0.0.0.0.0.0.0.0.0.0.0.0.0.",
"K.K.L._.@X_.1.#X$X%X&XX.z 6.H.v.0.0.0.0.0.0.0.0.0.0.0.0.0.0.0.0.",
"K.K.L.P.*X=X-X;X:Xi.i.J >Xd.,X0.0.0.0.0.0.0.0.0.0.0.0.0.0.0.0.0.",
"K.K.L.P.I.G.l.z.x.J J H 9.<X0.0.0.0.0.0.0.0.0.0.0.0.0.0.0.0.0.0.",
"K.K.L.P.I.G.l.z.x.J J H 9.0.0.0.0.0.0.0.0.0.0.0.0.0.0.0.0.0.0.0.",
"K.K.L.P.I.G.l.z.x.J J H 9.0.0.0.0.0.0.0.0.0.0.0.0.0.0.0.0.0.0.0.",
"K.K.L.P.I.G.l.z.x.J J H 9.0.0.0.0.0.0.0.0.0.0.0.0.0.0.0.0.0.0.0.",
"K.K.1X_.F.Y.T.R.E.x x x 9.0.0.0.0.0.0.0.0.0.0.0.0.0.0.0.0.0.0.0.",
"K.K.2X3X4X5X6X7X8XF 9Xa.9.0.0.0.0.0.0.0.0.0.0.0.0.0.0.0.0.0.0.0.",
"K.K.0XqXwX XXXeX{.}.|.X.V.0.0.0.0.0.0.0.0.0.0.0.0.0.0.0.0.0.0.0.",
"K.K.rXtXyXuXiXG.OX% +XX.V.0.0.0.0.0.0.0.0.0.0.0.0.0.0.0.0.0.0.0.",
"K.K.rXpXaXsXdXfXOX% +XX.V.0.0.0.0.0.0.0.0.0.0.0.0.0.0.0.0.0.0.0.",
"K.K.rXpXaXsXdXfXOX% +XX.V.0.0.0.0.0.0.0.0.0.0.0.0.0.0.0.0.0.0.0."
};
