/* XPM */
static char *_ba33a716f0b45959f44254470c47938imt7ymKpVTpIMO97[] = {
/* columns rows colors chars-per-pixel */
"32 32 69 1 ",
"  c #78A158",
". c #77A056",
"X c #93C8AB",
"o c #9CD5C5",
"O c #9BD4C3",
"+ c #9CD6C6",
"@ c #84B37D",
"# c #77A055",
"$ c #83B17A",
"% c #9BD5C4",
"& c #94CAAE",
"* c #78A157",
"= c #78A056",
"- c #9CD5C6",
"; c #9ABB61",
": c #9ABB60",
"> c #86B06D",
", c #80AC71",
"< c #80AD70",
"1 c #7FAC71",
"2 c #91B666",
"3 c #9BBB60",
"4 c #92B666",
"5 c #80AC70",
"6 c #85AF6D",
"7 c #A5C363",
"8 c #A6C363",
"9 c #80A758",
"0 c #759E55",
"q c #769F55",
"w c #749E55",
"e c #94B65E",
"r c #A6C464",
"t c #96B75F",
"y c #7FA658",
"u c #A4C263",
"i c #91B45E",
"p c #92B45E",
"a c #9EBD61",
"s c #A5C263",
"d c #9EBE62",
"f c #95B75F",
"g c #A3C163",
"h c #A3C263",
"j c #AEC867",
"k c #AFC968",
"l c #A6C364",
"z c #AAC666",
"x c #ABC666",
"c c #BED36F",
"v c #C1D570",
"b c #A9C565",
"n c #A2C162",
"m c #B5CD6B",
"M c #C2D571",
"N c #B6CD6B",
"B c #C0D470",
"V c #ADC867",
"C c #A9C566",
"Z c #A8C465",
"A c #B7CE6C",
"S c #C1D470",
"D c #A7C464",
"F c #A7C465",
"G c #B8CF6C",
"H c #ACC767",
"J c #BFD370",
"K c #BFD36F",
"L c white",
/* pixels */
"      .XoO+@#       #$+O%&*     ",
"      =XoO+@#       #$-O%&*     ",
";;;;;;:>,<123;;;;;;;341<56:;;;;;",
"777777890qwer7777777rtwq0y777777",
"uuuuuuutipiasuuuuuuuudipifuuuuuu",
"uuggguu7888suhggggghuu8887uuuuuu",
"uujkkluuuuuuuzkkkkkxuuuuuuuuuuuu",
"hucvvbguuuuunmMvvvMNnuuuuuhhhhhh",
"zzcBBVC7uuuZbASBBBSAbZuuu7zzzzzz",
"BBBBBBBVDFDABBBBBBBBBGDFDHBBBBBB",
"BBBBBBBJKKKBBBBBBBBBBBKKKJBBBBBB",
"BBBBBBBBBBBBBBBBBBBBBBBBBBBBBBBB",
"BBBBBBBBBBBBBBBBBBBBBBBBBBBBBBBB",
"BBBBBBBBBBBBBBBBBBBBBBBBBBBBBBBB",
"BBBBBBBBBBBBBBBBBBBBBBBBBBBBBBBB",
"BBBBBBBBBBBBBBBBBBBBBBBBBBBBBBBB",
"BBBBBBBBBBBBBBBBBBBBBBBBBBBBBBBB",
"BBBBBBBBBBBBBBBBBBBBBBBBBBBBBBBB",
"BBBBBBBBBBBBBBBBBBBBBBBBBBBBBBBB",
"BBBBBBBBBBBBBBBBBBBBBBBBBBBBBBBB",
"BBBBBBBBBBBBBBBBBBBBBBBBBBBBBBBB",
"BBBBBBBBBBBBBBBBBBBBBBBBBBBBBBBB",
"BBBBBBBBBBBBBBBBBBBBBBBBBBBBBBBB",
"BBBBBBBBBBBBBBBBBBBBBBBBBBBBBBBB",
"BBBBBBBBBBBBBBBBBBBBBBBBBBBBBBBB",
"BBBBBBBBBBBBBBBBBBBBBBBBBBBBBBBB",
"BBBBBBBBBBBBBBBBBBBBBBBBBBBBBBBB",
"BBBBBBBBBBBBBBBBBBBBBBBBBBBBBBBB",
"BBBBBBBBBBBBBBBBBBBBBBBBBBBBBBBB",
"BBBBBBBBBBBBBBBBBBBBBBBBBBBBBBBB",
"BBBBBBBBBBBBBBBBBBBBBBBBBBBBBBBB",
"BBBBBBBBBBBBBBBBBBBBBBBBBBBBBBBB"
};
