/* XPM */
static char *_973dd091a8548a28ce1f82cc7a30fd5mRvx9NvAG5yx5dRn[] = {
/* columns rows colors chars-per-pixel */
"32 32 179 2 ",
"   c #9BD4C3",
".  c #9CD6C6",
"X  c #87B684",
"o  c #779F54",
"O  c #78A158",
"+  c #8BBD93",
"@  c #9CD6C7",
"#  c #80AD70",
"$  c #7FAC71",
"%  c #8FB567",
"&  c #9BBB60",
"*  c #9ABB61",
"=  c #8CB369",
"-  c #7FAC6F",
";  c #85B37E",
":  c #9AD3C1",
">  c #769F55",
",  c #749E55",
"<  c #91B45D",
"1  c #A7C464",
"2  c #A5C363",
"3  c #8BAF5C",
"4  c #759E53",
"5  c #7CA869",
"6  c #9BD4C4",
"7  c #99D3C2",
"8  c #98D3C2",
"9  c #9AD3C2",
"0  c #92B45E",
"q  c #91B45E",
"w  c #9CBC61",
"e  c #A5C263",
"r  c #A4C263",
"t  c #9ABA60",
"y  c #90B565",
"u  c #8AB988",
"i  c #C6E1CE",
"p  c #CFE7D9",
"a  c #CEE7D8",
"s  c #D0E7D9",
"d  c #B4DDCD",
"f  c #A6C363",
"g  c #A6C464",
"h  c #9DBD61",
"j  c #769F54",
"k  c #7CA25B",
"l  c #EAEDDA",
"z  c #FCF9EF",
"x  c #FAF8EC",
"c  c #FDF9ED",
"v  c #C7E5D6",
"b  c #94D2C0",
"n  c #9FBE62",
"m  c #89AE5C",
"M  c #8CAF60",
"N  c #BDCFA6",
"B  c #C4D5B1",
"V  c #CCD3C0",
"C  c #D0D3C7",
"Z  c #C6DACC",
"A  c #BDE1D2",
"S  c #B2DCCC",
"D  c #9AD4C3",
"F  c #A3C263",
"G  c #A3C163",
"H  c #7AA356",
"J  c #739E53",
"K  c #8A9D7F",
"L  c #90998E",
"P  c #C7CBBE",
"I  c #FEFBEE",
"U  c #D9EBDD",
"Y  c #AAC666",
"T  c #A5C364",
"R  c #A2C062",
"E  c #7DA559",
"W  c #77A157",
"Q  c #899B7E",
"!  c #8D968C",
"~  c #B9BFB3",
"^  c #E5E6D9",
"/  c #D0E0D2",
"(  c #A7D9C8",
")  c #C0D470",
"_  c #ADC867",
"`  c #A7C465",
"'  c #ACC767",
"]  c #BFD470",
"[  c #AEC867",
"{  c #A6C364",
"}  c #78A157",
"|  c #788B70",
" . c #77807A",
".. c #889187",
"X. c #949D91",
"o. c #B5BBAE",
"O. c #E0EEE0",
"+. c #BFD370",
"@. c #BFD36F",
"#. c #B0CA69",
"$. c #879086",
"%. c #939C90",
"&. c #B5BAAE",
"*. c #E1EFE1",
"=. c #C1D570",
"-. c #B1CA69",
";. c #7EA65A",
":. c #79A258",
">. c #788C70",
",. c #778179",
"<. c #B4B9AD",
"1. c #E0EDDF",
"2. c #9DD5C4",
"3. c #BDD26F",
"4. c #BCD16E",
"5. c #B3CC6A",
"6. c #82A55F",
"7. c #779C5D",
"8. c #7B916F",
"9. c #7C857E",
"0. c #889188",
"q. c #B4BCB0",
"w. c #E4EEE1",
"e. c #C1D571",
"r. c #B7CE6C",
"t. c #85AB5B",
"y. c #77A256",
"u. c #789169",
"i. c #7E887F",
"p. c #AAB1A5",
"a. c #F4F4E8",
"s. c #F4F5E8",
"d. c #B6CE6B",
"f. c #85AA5B",
"g. c #77A156",
"h. c #78916A",
"j. c #77807B",
"k. c #7F8980",
"l. c #ABB2A6",
"z. c #F3F4E7",
"x. c #767F7A",
"c. c #7F897F",
"v. c #99BA60",
"b. c #81A261",
"n. c #779960",
"m. c #7C9171",
"M. c #7F8881",
"N. c #848E84",
"B. c #879087",
"V. c #969F93",
"C. c #AAB2A5",
"Z. c #7EA559",
"A. c #BED36F",
"S. c #BBD16E",
"D. c #82A45F",
"F. c #779B5E",
"G. c #7D867F",
"H. c #838D83",
"J. c #777F7A",
"K. c #B4CC6B",
"L. c #B2CB69",
"P. c #848D84",
"I. c #B5BCAF",
"U. c #B6CD6B",
"Y. c #A2C162",
"T. c #757E79",
"R. c #8A9389",
"E. c #C5CBBD",
"W. c #9BBB61",
"Q. c #9ABB60",
"!. c #82A360",
"~. c #779A5F",
"^. c #7B9170",
"/. c #8E988D",
"(. c #C4CABC",
"). c #959E92",
"_. c #9EA69A",
"`. c #C4C9BC",
"'. c white",
/* pixels */
"      . X o O O O O O O O O o + @                               ",
"      . X o O O O O O O O O o + @                               ",
"# # # $ % & * * * * * * * * & = $ # - ; :                       ",
"> > > , < 1 2 2 2 2 2 2 2 2 1 3 , > 4 5 6 . 7 8 8 8 9           ",
"0 0 0 q w e r r r r r r r r e t q 0 0 y X u i p a s d 7         ",
"f f f f e r r r r r r r r r r 2 f f g h j k l z x c v b 7       ",
"r r r r r r r r r r r r r r r r r r r n m M N B V C Z A S D     ",
"F F r r r r r r r F F F F r r r r r r r 2 G H J K L P I U 8     ",
"Y Y 2 r r r r r 2 Y Y Y Y T r r r r r r r R E W Q ! ~ ^ / (     ",
") ) _ 1 ` ` ` 1 ' ] ) ) ) [ 1 { r r r r r R E } |  ...X.o.O.    ",
") ) +.@.@.@.@.@.+.) ) ) ) +.) #.G r r r r R E } |  .$.%.&.*.    ",
") ) ) ) ) ) ) ) ) ) ) ) ) ) =.-.r r r r r R ;.:.>.,.$.%.<.1.2.2.",
") ) ) ) ) ) ) ) ) ) ) ) ) ) ) 3.4.5.F r r r h h 6.7.8.9.0.q.w.w.",
") ) ) ) ) ) ) ) ) ) ) ) ) ) ) ) e.r.F r r r e 2 t.y.u. .i.p.a.s.",
") ) ) ) ) ) ) ) ) ) ) ) ) ) ) ) =.d.F r r r r e f.g.h.j.k.l.z.z.",
") ) ) ) ) ) ) ) ) ) ) ) ) ) ) ) =.d.F r r r r e f.g.h.j.k.l.z.z.",
") ) ) ) ) ) ) ) ) ) ) ) ) ) ) ) =.d.F r r r r e f.g.h.j.k.l.z.z.",
") ) ) ) ) ) ) ) ) ) ) ) ) ) ) ) =.d.F r r r 2 f t.y.u.x.c.l.z.z.",
") ) ) ) ) ) ) ) ) ) ) ) ) ) ) ) =.d.F r r F * v.b.n.m.M.N.l.z.z.",
") ) ) ) ) ) ) ) ) ) ) ) ) ) ) ) =.d.F r r R E W |  .B.V.%.C.z.z.",
") ) ) ) ) ) ) ) ) ) ) ) ) ) ) ) =.d.F r r R E } |  .$.V.%.C.z.z.",
") ) ) ) ) ) ) ) ) ) ) ) ) ) ) ) =.d.F r r R E } |  .$.V.%.C.z.z.",
") ) ) ) ) ) ) ) ) ) ) ) ) ) ) ) =.d.r r r R Z.O |  .$.V.%.C.z.z.",
") ) ) ) ) ) ) ) ) ) ) ) ) ) ) ) ) A.S.r.r r w w D.F.8.G.H.l.z.z.",
") ) ) ) ) ) ) ) ) ) ) ) ) ) ) ) ) ) =.4.e r 2 f t.y.u.J.c.l.z.z.",
") ) ) ) ) ) ) ) ) ) ) ) ) ) ) ) ) ) ) S.e r r e f.g.h.j.k.l.z.z.",
") ) ) ) ) ) ) ) ) ) ) ) ) ) ) ) ) ) e.4.e r r e f.g.h.j.c.p.z.z.",
") ) ) ) ) ) ) ) ) ) ) ) ) ) ) ) ) 4.K.L.r r r e f.g.h. .P.I.z.z.",
") ) ) ) ) ) ) ) ) ) ) ) ) ) ) ) =.U.Y.F r r 2 f t.y.u.T.R.E.z.z.",
") ) ) ) ) ) ) ) ) ) ) ) ) ) ) ) =.d.F r r r W.Q.!.~.^.G./.(.z.z.",
") ) ) ) ) ) ) ) ) ) ) ) ) ) ) ) =.d.F r r R E } |  .$.)._.`.z.z.",
") ) ) ) ) ) ) ) ) ) ) ) ) ) ) ) =.d.F r r R E } |  .$.)._.`.z.z."
};
