/* XPM */
static char *result[] = {
/* columns rows colors chars-per-pixel */
"16 16 11 1 ",
"  c black",
". c #000100",
"X c #010100",
"o c #010101",
"O c #010201",
"+ c #020302",
"@ c #040504",
"# c #070806",
"$ c #090A08",
"% c #0A0B09",
"& c None",
/* pixels */
"&&&          &&&",
"&&&    XoOo  &&&",
"&&     @$%#+ &&&",
"      &&&&&&&   ",
"     &&&&&&&&   ",
"    &  &&&&&&   ",
"   &&  o&&&&&   ",
"  .&&&  &&&&&   ",
"  o&&&&&  &&&   ",
"  o&&&&&   &&   ",
"  o&&&&&&  &    ",
"   &&&&&&&&     ",
"   &&&&&&&      ",
"&&&           &&",
"&&&          &&&",
"&&&          &&&"
};
