/* XPM */
static char *result[] = {
/* columns rows colors chars-per-pixel */
"16 16 13 1 ",
"  c black",
". c #010101",
"X c #010201",
"o c #020202",
"O c #030302",
"+ c #040404",
"@ c #050504",
"# c gray2",
"$ c #060605",
"% c #060706",
"& c #080908",
"* c #090A08",
"= c None",
/* pixels */
"===          ===",
"===          ===",
"==           ===",
"   ==========   ",
"  ===========o  ",
"=============%. ",
"=============*. ",
"=============&X ",
"=== .+%@o.O#$===",
"===          ===",
"===         ====",
"   =============",
"   =============",
"                ",
"                ",
"                "
};
