/* XPM */
static char *result[] = {
/* columns rows colors chars-per-pixel */
"32 32 247 2 ",
"   c #F3F4E7",
".  c #F4F5E8",
"X  c #C8CDBF",
"o  c #B3BAAC",
"O  c #B5BCAE",
"+  c #B6BDAF",
"@  c #AAB1A4",
"#  c #7A847B",
"$  c #788379",
"%  c #789B5E",
"&  c #77A157",
"*  c #91B45E",
"=  c #A5C363",
"-  c #ACC767",
";  c #C0D470",
":  c #79837B",
">  c #90998E",
",  c #959E92",
"<  c #A7AFA2",
"1  c #B4BBAD",
"2  c #7A837B",
"3  c #A6ADA1",
"4  c #B1B8AA",
"5  c #B7BEB0",
"6  c #AAB2A5",
"7  c #B7BEAF",
"8  c #ABB3A5",
"9  c #9EA69A",
"0  c #979F94",
"q  c #C8CEC0",
"w  c #949D91",
"e  c #8F988D",
"r  c #ABB2A5",
"t  c #BAC0B3",
"y  c #A0A89B",
"u  c #9CA598",
"i  c #9AA397",
"p  c #A2AA9D",
"a  c #ADB4A7",
"s  c #B1B7AB",
"d  c #919A8E",
"f  c #97A093",
"g  c #79827C",
"h  c #78827A",
"j  c #779A5E",
"k  c #759F57",
"l  c #90B35E",
"z  c #959E91",
"x  c #A8B0A2",
"c  c #C9CEC0",
"v  c #B1B8AC",
"b  c #939C90",
"n  c #879187",
"m  c #859182",
"M  c #78906B",
"N  c #79916A",
"B  c #89AA60",
"V  c #8CB05D",
"C  c #9ABA60",
"Z  c #A4C263",
"A  c #879087",
"S  c #99A196",
"D  c #A5ADA0",
"F  c #BDC3B6",
"G  c #889187",
"H  c #767F79",
"J  c #778773",
"K  c #78A158",
"L  c #79A357",
"P  c #9DBD61",
"I  c #A7C464",
"U  c #A2C162",
"Y  c #929B8F",
"T  c #889288",
"R  c #77807A",
"E  c #788874",
"W  c #78A059",
"Q  c #79A258",
"!  c #9CBC61",
"~  c #A5C263",
"^  c #A9C565",
"/  c #ADC867",
"(  c #B3CC6A",
")  c #B1B8AB",
"_  c #889287",
"`  c #77817A",
"'  c #B4CC6B",
"]  c #C2D571",
"[  c #C1D470",
"{  c #B6BCB0",
"}  c #8C968B",
"|  c #B4CC6A",
" . c #C1D570",
".. c #9BA398",
"X. c #768079",
"o. c #C1D571",
"O. c #BED36F",
"+. c #BED26F",
"@. c #B2CB6A",
"#. c #BFD370",
"$. c #A3C163",
"%. c #9ABB61",
"&. c #79A15A",
"*. c #789F5A",
"=. c #798875",
"-. c #A6C364",
";. c #A6C464",
":. c #AFC968",
">. c #93B55F",
",. c #7CA458",
"<. c #7C9F5F",
"1. c #788675",
"2. c #798677",
"3. c #8D978B",
"4. c #919A8F",
"5. c #A6AEA1",
"6. c #9BA397",
"7. c #A3C162",
"8. c #76A057",
"9. c #B4BCAD",
"0. c #A4ACA0",
"q. c #8E978C",
"w. c #8B9588",
"e. c #798974",
"r. c #788972",
"t. c #80A25F",
"y. c #80A85A",
"u. c #95B75F",
"i. c #AAC666",
"p. c #78817B",
"a. c #778279",
"s. c #779B5D",
"d. c #76A156",
"f. c #92B55E",
"g. c #77A256",
"h. c #789C5D",
"j. c #778278",
"k. c #8F998D",
"l. c #939C91",
"z. c #8C958A",
"x. c #8B9489",
"c. c #7C8E74",
"v. c #778B6F",
"b. c #809E64",
"n. c #87AD5B",
"m. c #87AC5C",
"M. c #7C857E",
"N. c #757D7A",
"B. c #769265",
"V. c #77A255",
"C. c #77A156",
"Z. c #779366",
"A. c #767E7B",
"S. c #7D867F",
"D. c #969F93",
"F. c #BCC2B5",
"G. c #9DA699",
"H. c #98A195",
"J. c #99A197",
"K. c #86987D",
"L. c #779069",
"P. c #78906A",
"I. c #7F9177",
"U. c #8A9389",
"Y. c #F6F5E8",
"T. c #F7F6E9",
"R. c #AFB6A9",
"E. c #949D92",
"W. c #9BA498",
"Q. c #B9C0B2",
"!. c #929A91",
"~. c #747D77",
"^. c #767F7A",
"/. c #757E79",
"(. c #838C84",
"). c #D0E7D9",
"_. c #D0E8D9",
"`. c #C1CCBF",
"'. c #BBC0B4",
"]. c #AAB1A5",
"[. c #939D91",
"{. c #99A195",
"}. c #A9B0A3",
"|. c #A0A89C",
" X c #8F988E",
".X c #838D83",
"XX c #848D84",
"oX c #90998F",
"OX c #98A095",
"+X c #A3AB9E",
"@X c #9FA89B",
"#X c #98D3C2",
"$X c #97D3C1",
"%X c #DBEDDE",
"&X c #FFFCEF",
"*X c #CCD0C3",
"=X c #90998D",
"-X c #AFB7A9",
";X c #B9C0B1",
":X c #AEB5A7",
">X c #969F92",
",X c #B8BFB1",
"<X c #B0B7A9",
"1X c #9BD4C3",
"2X c #9AD4C3",
"3X c #C8E4D5",
"4X c #DFEEE0",
"5X c #C8D4C7",
"6X c #AEB4A8",
"7X c #A8B0A3",
"8X c #ACB4A6",
"9X c #ADB5A7",
"0X c #9DA599",
"qX c #AEB5A8",
"wX c #9EA79A",
"eX c #ABB3A6",
"rX c #ADB4A8",
"tX c #96D2C1",
"yX c #C1E2D3",
"uX c #FBF9EC",
"iX c #E4E5D9",
"pX c #979F93",
"aX c #97A094",
"sX c #B2B9AB",
"dX c #B7BDAF",
"fX c #EAEBDE",
"gX c #FAF8EB",
"hX c #BBE0D0",
"jX c #E9F1E4",
"kX c #D9E2D5",
"lX c #A4AC9F",
"zX c #A4AB9F",
"xX c #A6AEA2",
"cX c #BCC3B5",
"vX c #BFC5B7",
"bX c #C0C6B8",
"nX c #DEE7D9",
"mX c #E8F1E3",
"MX c #9CD4C3",
"NX c #ACDACA",
"BX c #EFF2E5",
"VX c #F2F3E6",
"CX c #F0F2E5",
"ZX c #99D3C2",
"AX c #ABDACA",
"SX c #F1F3E6",
"DX c white",
/* pixels */
"  . X o O + @ # $ % & * = - ; ; ; ; - = * & % $ : > , < 1 X .   ",
"  . X o O + @ # $ % & * = - ; ; ; ; - = * & % $ : > , < 1 X .   ",
"  . X o O + @ # $ % & * = - ; ; ; ; - = * & % $ 2 3 4 o o X .   ",
"  . X o O 5 6 # $ % & * = - ; ; ; ; - = * & % $ # 6 7 O o X .   ",
"  . X 1 8 9 0 : $ % & * = - ; ; ; ; - = * & % $ # @ + O o X .   ",
"  . q O < w e : $ % & * = - ; ; ; ; - = * & % $ # r 5 O o X .   ",
"  . t y u , > : $ % & * = - ; ; ; ; - = * & % $ : i p a 1 X .   ",
"  . s d , f > g h j k l = - ; ; ; ; - = l k j h g > z x O c .   ",
"  . v b e n m M N B V C Z - ; ; ; ; - Z C V B N M m A S D F .   ",
"  . v b G H J K L P I Z U - ; ; ; ; - U Z I P L K J H n Y s .   ",
"  . v b T R E W Q ! ~ ^ / ( ; ; ; ; ( / ^ ~ ! Q W E R T b v .   ",
"  . ) b _ ` E W Q ! Z ' ] [ ; ; ; ; [ ] ' Z ! Q W E ` _ b ) .   ",
"  . { i } R E W Q ! Z |  .; ; ; ; ; ;  .| Z ! Q W E R } i { .   ",
"  . X O ..X.E W Q ! Z |  .; ; ; ; ; ; o.| Z ! Q W E X...O X .   ",
"  . X O ..X.E W Q ! Z |  .; ; ; ; ; O.+.@.Z ! Q W E X...O X .   ",
"  . X O ..X.E W Q ! Z |  .; ; ; ; ; / Z ~ = ! Q W E X...O X .   ",
"  . X O ..X.E W Q ! Z ( ; #.; ; ; ; - $.$.$.%.&.*.=.` ..O X .   ",
"  . X O ..X.E W Q ! = -.;.:.; ; ; ; - = >.,.<.1.2.3.4.5.1 X .   ",
"  . X O 6.H E W Q ! = Z 7.- ; ; ; ; - = * 8.% $ : > , < 1 X .   ",
"  . X 9.0.q.w.e.r.t.y.u.= -.i.i.i.i.-.= * & % $ : > , < 1 X .   ",
"  . X 1 < , > p.a.s.d.* I = = = = = = I f.g.h.j.h k., < 1 X .   ",
"  . X 1 < w l.z.x.c.v.b.n.m.m.m.m.m.m.n.b.v.c.x.z.l.w < 1 X .   ",
"  . c O x w , , w M.N.B.V.C.C.C.C.C.C.V.Z.A.S., D., w x O c .   ",
"  . F.p G.w H.5.5...J.K.L.P.P.P.P.P.P.L.I.G U., , , , G.p F..   ",
"Y.T.R.3.b E.W.+ 5 5 Q.!.~.^.R R R R ^./.(.D., , , , , b 3.R.T.Y.",
")._.`.'.].[.{.x }.o + |. X} .XXXXX.X} oXOX+X@X, , , w ].'.`._.).",
"#X$X%X&X*X=Xb w , -X+ 5 ;X:X>XD., , a ,X7 5 <X, w b =X*X&X%X$X#X",
"1X2X3X4X5X6X].D.D.7Xa 8X9XD , D.0XG.qX+ O O 4 wXwXeXrX5X4X3X2X1X",
"1X1X2XtXyXuXiXpXw [.b b b [.w aXsXO 1 1 1 1 1 O dXfXgXyXtX2X1X1X",
"1X1X1X#XhXjXkX5.lX0.0.0.0.0.zXxXcXvXvXvXvXvXvXvXbXnXmXhX#X1X1X1X",
"1X1X1X1XMX1XNXBXVXVXVXVXVXVXVXVXVXVXVXVXVXVXVXVXCXNX1XMX1X1X1X1X",
"1X1X1X1X1XZXAXSX                                SXAXZX1X1X1X1X1X"
};
