/* XPM */
static char *result[] = {
/* columns rows colors chars-per-pixel */
"32 32 221 2 ",
"   c #9BD4C3",
".  c #9CD6C6",
"X  c #87B786",
"o  c #779F54",
"O  c #78A158",
"+  c #9AD4C3",
"@  c #9BD4C4",
"#  c #9DD6C8",
"$  c #87B787",
"%  c #769F54",
"&  c #99D3C2",
"*  c #B6DECE",
"=  c #DAEBDD",
"-  c #D8EADC",
";  c #D9EADC",
":  c #D6E9D9",
">  c #92BB8B",
",  c #80AF77",
"<  c #8EB56A",
"1  c #97B85F",
"2  c #97B860",
"3  c #94D1C0",
"4  c #C2E3D4",
"5  c #FCF9EC",
"6  c #F9F8EC",
"7  c #FAF8ED",
"8  c #F7F6E9",
"9  c #8EAF71",
"0  c #719B51",
"q  c #91B35D",
"w  c #A7C464",
"e  c #A5C363",
"r  c #A4C263",
"t  c #C5DACC",
"y  c #CBCEC2",
"u  c #C8CFBE",
"i  c #BED0AA",
"p  c #BCCFA7",
"a  c #94B56B",
"s  c #89AE5B",
"d  c #99BA60",
"f  c #A5C263",
"g  c #A8C465",
"h  c #B0CA69",
"j  c #98D3C2",
"k  c #DBECDE",
"l  c #FEFBEE",
"z  c #CCCFC3",
"x  c #90998E",
"c  c #8D9C85",
"v  c #759E55",
"b  c #759F54",
"n  c #9CBC60",
"m  c #A6C464",
"M  c #A2C162",
"N  c #ACC767",
"B  c #C1D571",
"V  c #C1D570",
"C  c #ABDACA",
"Z  c #D1E1D3",
"A  c #E6E7DA",
"S  c #BEC4B7",
"D  c #8E968C",
"F  c #8B9A84",
"G  c #79A159",
"H  c #79A258",
"J  c #9CBC61",
"K  c #A9C565",
"L  c #C0D470",
"P  c #F1F3E6",
"I  c #F2F4E7",
"U  c #B2B9AD",
"Y  c #969F93",
"T  c #8A9489",
"R  c #78817B",
"E  c #798874",
"W  c #78A059",
"Q  c #B3CC6A",
"!  c #BFD470",
"~  c #F3F4E7",
"^  c #F4F5E8",
"/  c #B1B8AC",
"(  c #939C90",
")  c #889288",
"_  c #77807A",
"`  c #788874",
"'  c #B4CC6A",
"]  c #77817A",
"[  c #889187",
"{  c #929B8F",
"}  c #B1B7AB",
"|  c #778079",
" . c #939C91",
".. c #A7AFA1",
"X. c #B4CD6B",
"o. c #C2D571",
"O. c #C1D470",
"+. c #768079",
"@. c #9BA498",
"#. c #B7BEAF",
"$. c #C9CEC0",
"%. c #AFC968",
"&. c #B8CF6C",
"*. c #BAD06D",
"=. c #9BA398",
"-. c #B5BCAE",
";. c #C8CDBF",
":. c #B1B8AB",
">. c #889287",
",. c #A3C162",
"<. c #B3BAAD",
"1. c #8A9389",
"2. c #A3C163",
"3. c #BED36F",
"4. c #BDD26F",
"5. c #C6CBBD",
"6. c #B2B9AB",
"7. c #99A196",
"8. c #B6BDAE",
"9. c #9AA397",
"0. c #757F78",
"q. c #778773",
"w. c #B4BBAD",
"e. c #ADB4A7",
"r. c #A3AB9F",
"t. c #9BA596",
"y. c #798C71",
"u. c #788C6F",
"i. c #83A55F",
"p. c #86AC5B",
"a. c #85AB5B",
"s. c #84AA5B",
"d. c #8FB25E",
"f. c #B3BAAC",
"g. c #B6BDAF",
"h. c #BAC0B2",
"j. c #ACB3A7",
"k. c #79827C",
"l. c #778179",
"z. c #779B5D",
"x. c #77A256",
"c. c #77A156",
"v. c #75A056",
"b. c #85AB5A",
"n. c #A6C363",
"m. c #91B45E",
"M. c #75A155",
"N. c #AFB6A9",
"B. c #A7AFA2",
"V. c #A1A99C",
"C. c #868F85",
"Z. c #848E84",
"A. c #7A936C",
"S. c #789466",
"D. c #789467",
"F. c #779367",
"G. c #809D64",
"H. c #92B55E",
"J. c #86A662",
"K. c #779366",
"L. c #C8CDC0",
"P. c #949D91",
"I. c #959E92",
"U. c #7D867F",
"Y. c #77807B",
"T. c #777F7C",
"R. c #778A70",
"E. c #77A157",
"W. c #777F7B",
"Q. c #C4C9BC",
"!. c #AEB5A8",
"~. c #A4AC9F",
"^. c #828B82",
"/. c #7D877E",
"(. c #7E877F",
"). c #7C8D75",
"_. c #789B5E",
"`. c #789C5D",
"'. c #B2B8AC",
"]. c #8C958A",
"[. c #788379",
"{. c #778278",
"}. c #97A094",
"|. c #8D968C",
" X c #78827A",
".X c #79837B",
"XX c #7A837B",
"oX c #7A847B",
"OX c #868F86",
"+X c #C0C6B9",
"@X c #AAB2A5",
"#X c #B0B7A9",
"$X c #B0B7AA",
"%X c #A6ADA1",
"&X c #8F988D",
"*X c #929B90",
"=X c #AAB1A5",
"-X c #AAB1A4",
";X c #ACB4A6",
":X c #AFB7A9",
">X c #AEB6A8",
",X c #9AA396",
"<X c #8F988C",
"1X c #929C90",
"2X c #ACB3A6",
"3X c #98A194",
"4X c #B7BDAF",
"5X c #99A195",
"6X c #8E988C",
"7X c #CBCFC2",
"8X c #A8B0A3",
"9X c #B2BAAC",
"0X c #B1B8AA",
"qX c #C6CBBE",
"wX c #ECEDE0",
"eX c #B3BBAD",
"rX c #D5E5D7",
"tX c #C8CEC0",
"yX c #ABDAC9",
"uX c #F1F4E7",
"iX c white",
/* pixels */
"                    . X o O O O O O O o X .                     ",
"          + + + + @ # $ % O O O O O O % $ # @ + + + +           ",
"      & * = - ; : > , < 1 2 2 2 2 2 2 1 < , > : ; - = * &       ",
"    & 3 4 5 6 7 8 9 0 q w e r r r r e w q 0 9 8 7 6 5 4 3 &     ",
"    * 4 t y u i p a s d f g h h h h g f d s a p i u y t 4 *     ",
"& j k l z x c v b n m r M N B V V B N M r m n b v c x z l k j & ",
"C C Z A S D F G H J e w K h L L L L h K w e J H G F D S A Z C C ",
"P I U Y T R E W H J r Q L ! L L L L ! L Q r J H W E R T Y U I P ",
"~ ^ / ( ) _ ` W H J r ' V L L L L L L V ' r J H W ` _ ) ( / ^ ~ ",
"~ ^ / ( ) _ ` W H J r ' V L L L L L L V ' r J H W ` _ ) ( / ^ ~ ",
"~ ^ / ( ) _ ` W H J r ' V L L L L L L V ' r J H W ` ] [ { } ^ ~ ",
"~ ^ / ( ) _ ` W H J r ' V L L L L L L V ' r J H W ` |  ...S ^ ~ ",
"~ ^ / ( ) _ ` W H J r X.o.O.L L L L O.o.X.r J H W ` +.@.#.$.^ ~ ",
"~ ^ / ( ) _ ` W H J r %.&.*.L L L L *.&.%.r J H W ` +.=.-.;.^ ~ ",
"~ ^ :.( >._ ` W H J e r ,.N O.L L O.N ,.r e J H W ` +.=.-.;.^ ~ ",
"~ ^ <.Y 1._ ` W H J e r 2.N 3.4.4.3.N 2.r e J H W ` +.=.-.;.^ ~ ",
"~ ^ 5.6.7.+.` W H J e r r f w w w w f r r e J H W ` +.=.-.;.^ ~ ",
"~ ^ ;.8.9.0.q.W H J e f f r r r r r r r r e J H W q.0.9.-.;.^ ~ ",
"~ ^ ;.w.e.r.t.y.u.i.p.a.s.d.r r r r r e 2 a.i.u.y.t.r.e.w.;.^ ~ ",
"~ ^ ;.f.g.h.j.k.l.z.x.c.v.b.m n.n.n.n.w m.M.z.l.k.j.h.g.f.;.^ ~ ",
"~ ^ ;.w.N.B.V.C.Z.A.S.D.F.G.m.m.m.m.m.H.J.K.A.Z.C.V.B.N.w.;.^ ~ ",
"~ ^ L.-.B.( P.Y I.U._ Y.T.R.E.E.E.E.E.x.K.W.U.I.Y P.( B.-.L.^ ~ ",
"~ ^ Q.!.~.P.I.I.P.^././.(.)._._._._._.`.A.U.^.P.I.I.P.~.!.Q.^ ~ ",
"~ ^ '.( I.I.I.I.I.P.P.P.I.].[.[.[.[.[.{.Z.I.P.I.I.I.I.I.( '.^ ~ ",
"P I U I.Y I.I.I.I.Y Y Y }.|. X.XXXoXoX.XOX}.Y Y Y I.I.Y I.U I P ",
"C C Z A +X( I.I.Y @X#XN.$X%X&X*XB.=X-X-X;X:XN.N.>X,X{ +XA Z C C ",
"& j k l z <X1XP.I.:Xg.g.#.2XP.3Xf.4Xg.g.g.g.g.g.-.5X6Xz l k j & ",
"    * 4 t 7XQ.8XB.9X-.-.-.0XB.8Xw.-.-.-.-.-.-.-.g.qX7Xt 4 *     ",
"    & 3 4 l wXg.w.f.f.f.f.eXw.w.f.f.f.f.f.f.f.f.-.wXl 4 3 &     ",
"      & * k rXtX;.;.;.;.;.;.;.;.;.;.;.;.;.;.;.;.tXrXk * &       ",
"          j yXuX^ ^ ^ ^ ^ ^ ^ ^ ^ ^ ^ ^ ^ ^ ^ ^ uXyXj           ",
"          & C P ~ ~ ~ ~ ~ ~ ~ ~ ~ ~ ~ ~ ~ ~ ~ ~ P C &           "
};
