/* XPM */
static char *_cbb256c009a4c7c9a25f9b3bd13a938StxP6Oz9ltRX1WXe[] = {
/* columns rows colors chars-per-pixel */
"32 32 109 2 ",
"   c #767F7A",
".  c #749D53",
"X  c #779B5D",
"o  c #799E5D",
"O  c #77A156",
"+  c #7AA257",
"@  c #77A158",
"#  c #79A259",
"$  c #788C6F",
"%  c #779366",
"&  c #789467",
"*  c #7A936C",
"=  c #788774",
"-  c #778A70",
";  c #77807A",
":  c #7C867D",
">  c #7D8C78",
",  c #7D9174",
"<  c #7BA662",
"1  c #83A55F",
"2  c #85AB5B",
"3  c #8BAF5D",
"4  c #8DB15D",
"5  c #92B45E",
"6  c #97B85F",
"7  c #809D64",
"8  c #95B762",
"9  c #97B860",
"0  c #9CBC61",
"q  c #91B36F",
"w  c #82AF76",
"e  c #8EAF70",
"r  c #85B275",
"t  c #8AB573",
"y  c #82B079",
"u  c #A0BF62",
"i  c #A4C263",
"p  c #AAC666",
"a  c #ADC867",
"s  c #AFC968",
"d  c #B4CC6B",
"f  c #B8CF6C",
"g  c #BCD26E",
"h  c #BFD470",
"j  c #C0D470",
"k  c #7F8980",
"l  c #848D84",
"z  c #879186",
"x  c #889187",
"c  c #8F9E87",
"v  c #8C958B",
"b  c #8F988D",
"n  c #929B8F",
"m  c #959E92",
"M  c #92A18A",
"N  c #86B686",
"B  c #97A094",
"V  c #9AA396",
"C  c #9DA599",
"Z  c #9FA89B",
"A  c #8BBE95",
"S  c #A2AA9D",
"D  c #A6AEA1",
"F  c #ABB3A5",
"G  c #AFB6A9",
"H  c #B1B7AB",
"J  c #B4BBAD",
"K  c #B6BEB0",
"L  c #B8BEB2",
"P  c #8DC099",
"I  c #92C5A2",
"U  c #95CBAF",
"Y  c #95CBB0",
"T  c #98CFB9",
"R  c #98D0BA",
"E  c #BBC2B5",
"W  c #C1C7B9",
"Q  c #C8CDBF",
"!  c #96D2C1",
"~  c #9BD4C3",
"^  c #9DD6C8",
"/  c #9ED8CB",
"(  c #A3D7C6",
")  c #A6D8C8",
"_  c #AADAC9",
"`  c #CACFC3",
"'  c #D2D6C9",
"]  c #D8DCCF",
"[  c #C3DED0",
"{  c #DAE3C9",
"}  c #DCE5CD",
"|  c #C2E2D3",
" . c #C3E2D3",
".. c #D5E6D8",
"X. c #D7EADB",
"o. c #D8EADC",
"O. c #E1E4D5",
"+. c #E3E4D8",
"@. c #E4E5D9",
"#. c #EBECDF",
"$. c #E3EFE1",
"%. c #EFEFE2",
"&. c #ECF2E5",
"*. c #F3F4E7",
"=. c #F5F4E7",
"-. c #F7F7EA",
";. c #F8F7EB",
":. c #FBF8EB",
">. c #FBF9EC",
/* pixels */
"~ ~ ~ ~ ~ ~ ~ ~ ~ ~ ~ ~ ~ ~ ^ T < + # # # # # # # U ~ ~ ~ I + # ",
"~ ~ ~ ~ ~ ~ ~ ~ ~ ~ ~ ^ ^ ^ ~ R < O # # # # # @ # Y ~ ^ ^ I O # ",
"~ ~ ~ ~ ~ ~ ~ ~ ~ ~ ~ P w y y r 8 6 9 9 9 9 9 9 9 r y y y t 6 9 ",
"~ ~ ~ ~ ~ ~ ~ ~ ~ ^ / N . . . + i i i i i i i i i + . . . 2 i i ",
"~ ~ ~ ~ _ | | | | I A t 3 3 3 4 i i i i i i i i i 5 3 3 3 5 i i ",
"~ ~ ~ ! | :.;.;.=.e . 5 i i i i i i i i i i i i i i i i i i i i ",
"~ ~ ) _ [ +.O.} { q + 5 i i p p p p p p p p p p p i i i i i p p ",
"~ ~ X.-.` m M # # 0 i i i a j h h h h h h h h h g p i i i a j h ",
"~ ~ X.-.` m c # # 0 i i i a j j j j j j j j j j h p i i i a j j ",
"$.$.E D m : > # # 0 i d g g j j j j j j j j j j j g g g g g j j ",
"-.-.H n z ; = # # 0 i d j j j j j j j j j j j j j j j j j j j j ",
"*.-.H m x ; = # # 0 i d j j j j j j j j j j j j j j j j j j j j ",
"*.-.H n x ; = # # 0 i d j j j j j j j j j j j j j j j j j j j j ",
"*.-.L C b ; = # # 0 i s f g j j j j g f f f f f f f f f f f f f ",
"*.-.Q J V   = # # 0 i i i a j j j j a i i i i i i i i i i i i i ",
"*.-.Q J C : > o o 9 i i i a g g g g a i i u u u u i i i i i i i ",
"*.-.Q H H H D = = o + 5 i i i i i i i i 5 # + + + 0 i i i i i i ",
"*.-.Q H J K F ; ; X O 5 i i i i i i i i 5 O # + # 0 i i i i i i ",
"*.-.Q H F C C v v > - 7 2 2 2 2 2 2 2 2 7 - - - $ 1 2 2 2 2 2 2 ",
"*.-.` J D m m B m :   % O O O O O O O O %   ; ; ; X O O O O O O ",
"*.-.E D Z m m m m x l , & & & & & & & & , l l l l * & & & & & & ",
"-.-.H b m m m m m m m l   ; ; ; ; ; ;   l B m m m : ; ; ; ; ; ; ",
"$.$.E D C m m m m V C b l l : : : : : : x m m m m l : : : k l l ",
"~ ~ X.-.` n m m m G J J J F m m m m m m m m m m m m m m m C J H ",
"~ ~ X.-.` m B m B G J J J F m m m m m m m m m m m m m m m C J J ",
"~ ~ ) _ [ @.] H G J J J J H G F B m m m m m V G G G H S m B V V ",
"~ ~ ~ ! | :.#.J J H H H H H J H V m m m m m V J J J J S m m m m ",
"~ ~ ~ ~ _ | | ] ] ] ] ] ] ] ] ' C m m m C D F J J J J F D S m m ",
"~ ~ ~ ~ ~ ! _ -.;.;.;.;.;.;.:.%.C n n n S J J H H H H J J F n n ",
"~ ~ ~ ~ ~ ~ ) X.o.o.o.o.o.o.o...K H H H E ` Q Q Q Q Q Q ` W H H ",
"~ ~ ~ ~ ~ ~ ~ ~ ~ ~ ~ ~ ~ ~ ~ ( &.-.-.-.-.-.-.-.-.-.-.-.-.-.-.-.",
"~ ~ ~ ~ ~ ~ ~ ~ ~ ~ ~ ~ ~ ~ ~ ( &.=.*.*.*.*.*.*.*.*.=.*.*.*.*.*."
};
