/* XPM */
static char *result[] = {
/* columns rows colors chars-per-pixel */
"32 32 139 2 ",
"   c #78A158",
".  c #79A35E",
"X  c #8BBDBC",
"o  c #8CBFC2",
"O  c #79A25E",
"+  c #8BBEBD",
"@  c #8CBFC3",
"#  c #97B860",
"$  c #95B761",
"%  c #7FAB77",
"&  c #7EAA78",
"*  c #A5C363",
"=  c #A3C163",
"-  c #78A155",
";  c #769F54",
":  c #A4C263",
">  c #8CB05D",
",  c #8BAF5D",
"<  c #A3C263",
"1  c #A9C565",
"2  c #BFD470",
"3  c #BED36F",
"4  c #A5C364",
"5  c #C0D470",
"6  c #BFD36F",
"7  c #A6C364",
"8  c #A5C263",
"9  c #BBD16E",
"0  c #C1D470",
"q  c #C1D570",
"w  c #B8CF6C",
"e  c #A0BF62",
"r  c #BCD16E",
"t  c #BDD26F",
"y  c #BED26F",
"u  c #7CA459",
"i  c #7EA65A",
"p  c #A2C062",
"a  c #A6C464",
"s  c #A7C464",
"d  c #A8C565",
"f  c #7AA358",
"g  c #A2C162",
"h  c #788B70",
"j  c #798D6F",
"k  c #85A95C",
"l  c #87AC5C",
"z  c #A2C163",
"x  c #ACC767",
"c  c #85AB5B",
"v  c #767F79",
"b  c #768177",
"n  c #779F58",
"m  c #79A357",
"M  c #A6C363",
"N  c #77A156",
"B  c #929B90",
"V  c #919B8E",
"C  c #799469",
"Z  c #799566",
"A  c #90B25F",
"S  c #91B45E",
"D  c #92B55F",
"F  c #789467",
"G  c #B7BEB0",
"H  c #B3BAAD",
"J  c #7A837D",
"K  c #778278",
"L  c #779F59",
"P  c #77A157",
"I  c #778279",
"U  c #79A358",
"Y  c #77807A",
"T  c #B5BCAE",
"R  c #B2B9AC",
"E  c #868F86",
"W  c #838E82",
"Q  c #799A60",
"!  c #789B5E",
"~  c #789A60",
"^  c #7D887D",
"/  c #7A9D5E",
"(  c #9ABA61",
")  c #9CBC61",
"_  c #838D84",
"`  c #B0B7AA",
"'  c #7B867C",
"]  c #788379",
"[  c #7A847A",
"{  c #939C90",
"}  c #79847A",
"|  c #788577",
" . c #79A05A",
".. c #79A258",
"X. c #B2B9AB",
"o. c #7D877E",
"O. c #7A847B",
"+. c #79837B",
"@. c #7A847C",
"#. c #939D91",
"$. c #949D91",
"%. c #7B857D",
"&. c #7A857A",
"*. c #789F5B",
"=. c #78A059",
"-. c #B4BBAD",
";. c #AAB2A5",
":. c #AAB1A4",
">. c #A8B0A3",
",. c #919A8F",
"<. c #90998E",
"1. c #959E92",
"2. c #969F93",
"3. c #A9B0A3",
"4. c #A7AFA2",
"5. c #7B8A76",
"6. c #788874",
"7. c #B6BDAF",
"8. c #97A094",
"9. c #969E92",
"0. c #B3BAAC",
"q. c #7A837C",
"w. c #768079",
"e. c #969F92",
"r. c #A3AB9E",
"t. c #A2AA9D",
"y. c #A6AEA1",
"u. c #9CA499",
"i. c #9BA398",
"p. c #919A8E",
"a. c #929B8F",
"s. c #B2BAAC",
"d. c #B1B8AC",
"f. c #B3B9AD",
"g. c #C6CCBE",
"h. c #C8CDBF",
"j. c #F4F5E8",
"k. c #F3F4E7",
"l. c white",
/* pixels */
"              . X o o X .                 . X o o X .           ",
"              O + @ @ + O                 O + @ @ + O           ",
"# # # # # # # $ % & & % $ # # # # # # # # $ % & & % $ # # # # # ",
"* * * * * * * = - ; ; - = * * * * * * * * = - ; ; - = * * * * * ",
": : : : : : : = > , , > = : : : : : : : : = > , , > = : : : : : ",
"< < < < < < : : * * * * : : < < < < < < : : * * * * : < < < < < ",
"1 1 1 1 1 1 : : : : : : : : 1 1 1 1 1 1 : : : : : : 1 1 1 1 1 1 ",
"2 2 2 2 2 3 4 : : : : : : 4 3 2 2 2 2 3 4 : : : : 4 3 2 2 2 2 2 ",
"5 5 5 5 5 6 7 8 8 8 8 8 8 7 6 5 5 5 5 6 7 8 8 8 8 7 6 5 5 5 5 5 ",
"5 5 5 5 5 5 9 9 9 9 9 9 9 9 5 5 5 5 5 5 9 9 9 9 9 9 5 5 5 5 5 5 ",
"5 5 5 5 5 5 0 0 0 0 0 0 0 0 5 5 5 5 5 5 0 0 0 0 0 0 5 5 5 5 5 5 ",
"5 5 5 5 5 5 5 5 5 5 5 5 5 5 5 5 5 5 5 5 5 5 5 5 5 5 5 5 5 5 5 5 ",
"q q q q 5 5 5 5 5 5 5 5 5 5 5 5 5 5 5 5 5 5 5 5 5 5 5 5 5 5 q q ",
"w w w w 5 5 5 5 5 5 5 5 5 5 5 5 5 5 5 5 5 5 5 5 5 5 5 5 5 5 w w ",
": : : 4 6 5 5 5 5 5 5 5 5 5 5 5 5 5 5 5 5 5 5 5 5 5 5 5 5 6 4 : ",
"e e : 4 r t t t t t t t t y 5 5 5 5 5 5 y t t t t t t t t r 4 : ",
"u i p : a s s s s s s s s d 6 5 5 5 5 6 d s s s s s s s s a : : ",
"  f g : : : : : : : : : : 4 6 5 5 5 5 6 4 : : : : : : : : : : 8 ",
"h j k l z : : : : z l l z : x x x x x x : z l l z : : : : z l c ",
"v b n m = M M M M = m m = * < = = = = < * = m m = M M M M = m N ",
"B V C Z A S S S S A Z Z A D = : : : : = D A Z Z A S S S S A Z F ",
"G H J K L P P P P L I I L U z * * * * z U L I I L P P P P L K Y ",
"T R E W Q ! ! ! ! ~ ^ ^ ~ / ( ) ) ) ) ( / ~ ^ ^ ~ ! ! ! ! Q W _ ",
"T T H ` ' ] ] ] ] [ { { } |  ......... .| } { { [ ] ] ] ] ' ` H ",
"T T T X.o.O.O.O.+.@.#.$.%.&.*.=.=.=.=.*.&.%.$.#.@.+.+.+.O.o.X.T ",
"T T T -.;.:.:.>.,.<.1.2.3.4.5.6.6.6.6.5.4.3.2.1.<.<.<.,.>.;.-.T ",
"7.7.7.7.G G G T 8.9.$.2.-.0.q.w.w.w.w.q.0.-.2.$.9.e.e.8.T G 7.7.",
"r.r.r.r.r.r.r.t.2.2.y.>.-.-.u.i.i.i.i.u.-.-.>.y.2.1.1.2.t.r.r.r.",
"p.p.p.p.p.p.p.p.a.$.s.-.0.0.T T T T T T 0.0.-.s.$.a.a.a.p.p.p.p.",
"d.d.d.d.d.d.d.d.d.f.g.h.h.h.h.h.h.h.h.h.h.h.h.g.f.d.d.d.d.d.d.d.",
"j.j.j.j.j.j.j.j.j.j.j.j.j.j.j.j.j.j.j.j.j.j.j.j.j.j.j.j.j.j.j.j.",
"k.k.k.k.k.k.k.k.k.k.k.k.k.k.k.k.k.k.k.k.k.k.k.k.k.k.k.k.k.k.k.k."
};
