/* XPM */
static char *d244ed115fd84dc0ca46b9fce4d29216XopbOXUx860cgVQa[] = {
/* columns rows colors chars-per-pixel */
"32 32 107 2 ",
"   c #767F7A",
".  c #759E53",
"X  c #799E5D",
"o  c #77A156",
"O  c #7AA357",
"+  c #79A259",
"@  c #778A6F",
"#  c #779464",
"$  c #789467",
"%  c #7A936A",
"&  c #778674",
"*  c #788774",
"=  c #778A70",
"-  c #798A72",
";  c #77807A",
":  c #7C857D",
">  c #7E8A7C",
",  c #7D9174",
"<  c #7BA662",
"1  c #80A75A",
"2  c #85AB5B",
"3  c #8AAF5C",
"4  c #8DB15D",
"5  c #93B55E",
"6  c #97B85F",
"7  c #809D64",
"8  c #828F7F",
"9  c #809673",
"0  c #81907B",
"q  c #81A161",
"w  c #8BB46E",
"e  c #95B762",
"r  c #97B860",
"t  c #9BBB61",
"y  c #91B36F",
"u  c #82AF76",
"i  c #8EAF70",
"p  c #84B176",
"a  c #8BB675",
"s  c #83B078",
"d  c #A0BF62",
"f  c #A4C263",
"g  c #A9C565",
"h  c #B4CC6A",
"j  c #B8CF6C",
"k  c #BCD26F",
"l  c #BFD470",
"z  c #C0D470",
"x  c #848D84",
"c  c #879186",
"v  c #889187",
"b  c #8F9E87",
"n  c #8C958B",
"m  c #8F988D",
"M  c #919A8F",
"N  c #959E92",
"B  c #92A18A",
"V  c #86B686",
"C  c #97A094",
"Z  c #9BA397",
"A  c #9DA699",
"S  c #9FA89B",
"D  c #8CBE95",
"F  c #A3AB9E",
"G  c #A6AEA1",
"H  c #ABB2A5",
"J  c #AFB6A9",
"K  c #B1B7AB",
"L  c #B4BBAD",
"P  c #B7BEB0",
"I  c #B8BFB1",
"U  c #8DC099",
"Y  c #96C5A0",
"T  c #98CFB9",
"R  c #98D0BA",
"E  c #BCC3B6",
"W  c #C8CDBF",
"Q  c #96D2C1",
"!  c #9BD4C3",
"~  c #9DD6C8",
"^  c #9ED8CB",
"/  c #A6D8C8",
"(  c #ABDACA",
")  c #B6DECE",
"_  c #C9CEC0",
"`  c #CED2C5",
"'  c #D8DCCE",
"]  c #C3DED0",
"[  c #D9DDD0",
"{  c #DAE3C9",
"}  c #DCE5CD",
"|  c #C3E2D3",
" . c #C2E3D3",
".. c #D3E1D3",
"X. c #D7EADB",
"o. c #D8EADC",
"O. c #E3E5D7",
"+. c #E3E4D8",
"@. c #E4E5D9",
"#. c #EBECDE",
"$. c #E3EFE1",
"%. c #F3F4E7",
"&. c #F5F4E7",
"*. c #F4F5E8",
"=. c #F8F7EA",
"-. c #FBF8EB",
";. c #FBF9EC",
/* pixels */
"! ! ! ~ D . + + + + + + + + o < T ! ! ! ! ! ! ! ! ! ! ! ! ! ! ! ",
"! ! ! ~ D . + + + + + + + + o < R ~ ! ! ! ! ! ! ! ! ! ! ! ! ! ! ",
"s s s s w 6 r r r r r r r r 6 e p s s u U ~ ! ! ! ! ! ! ! ! ! ! ",
". . . . 3 g f f f f f f f f f f o . . . V ^ ! Q Q Q Q Q ! ! ! ! ",
"3 3 3 3 6 f f f f f f f f f f f 4 3 3 3 a D Y  . . . .( Q ! ! ! ",
"f f f f f f f f f f f f f f f f f f f g 5 . i &.=.=.-. .Q ! ! ! ",
"f f f f f g g g g g g g g g f f f f f f 6 O y { } O.+.] ( / ! ! ",
"f f f f h z l l l l l l z j f f f f f f f f t + + B N _ *.X.! ! ",
"f f f f h z z z z z z z z j f f f f f f f f t + + b N _ *.X.~ ~ ",
"k k k k k z z z z z z z z k k j f f f f f f t + + - : N G E $.$.",
"z z z z z z z z z z z z z z z k g f f f f f t + + * ; c M K *.*.",
"z z z z z z z z z z z z z z z k g f f f f f t + + * ; n N L *.%.",
"z z z z z z z z z z z z z z z k g f f f f f t + + * ; v M K *.%.",
"j j j j j j j j j j j j j j j j f f f f f f t + + * ; m A I *.%.",
"f f f f f f f f f f f f f f f f f f f f f f t + + *   Z L W *.%.",
"d d f f f f f f f f d d d f f f f f f f f f r X X > : A L W *.%.",
"O O r f f f f f f 2 + O + 3 f f f f f f 5 O X * * G K L L W *.%.",
"+ o r f f f f f f 1 o + o 2 f f f f f g 5 o X ; : H P L L W *.%.",
"= = q 2 2 2 2 2 2 % = = = % 2 2 2 2 2 2 7 = - n n Z A H L W *.%.",
"    # o o o o o o &   ;   @ o o o o o o #   : N N N N G L _ *.%.",
"N N 9 # $ $ $ $ $ 8 x x x 0 $ $ $ $ $ $ , x v N N N N S G E *.%.",
"P I n   ; ; ; ; ; M C N C n ; ; ; ; ;   x N N N N N N N m K *.*.",
"L L N x x x x : > M N N N m : : : : x x m A Z Z Z N N A G E $.$.",
"L L L L L L J N N N N N N N N N N N H L L L L L L Z M _ *.X.~ ~ ",
"L L L L L L J N N N N N N N N N N N H L L L L L L A N _ *.X.! ! ",
"L L L L H Z Z N N N N N N A J J J J L L L L L L L [ @.] ( / ! ! ",
"L L L P G N N N N N N N N A L L L L L L L L L L L #.;. .Q ! ! ! ",
"F F F F A N N N N N N S G H L L L L ` ' ' ' ' ' '  . .( Q ! ! ! ",
"M M M M M M M M M M M G L L L L L L O.;.=.=.=.=.*.( Q Q ! ! ! ! ",
"L L L L L L L L L L K E _ W W W W W ..o.o.o.o.o.X./ ! ! ! ! ! ! ",
"*.*.*.*.*.*.*.*.*.*.*.*.*.*.*.*.*.*.) Q ! ! ! ! ! ! ! ! ! ! ! ! ",
"%.%.%.%.%.%.%.%.%.%.%.%.%.%.%.%.%.&.) Q ! ! ! ! ! ! ! ! ! ! ! ! "
};
