/* XPM */
static char *result[] = {
/* columns rows colors chars-per-pixel */
"32 32 87 1 ",
"  c #F3F4E7",
". c #F4F5E8",
"X c #C8CDBF",
"o c #B3BAAC",
"O c #B5BCAE",
"+ c #B6BDAF",
"@ c #AAB1A4",
"# c #7A847B",
"$ c #788379",
"% c #789B5E",
"& c #77A157",
"* c #91B45E",
"= c #A5C363",
"- c #ACC767",
"; c #C0D470",
": c #79837B",
"> c #90998E",
", c #959E92",
"< c #A7AFA2",
"1 c #B4BBAD",
"2 c #919A8F",
"3 c #969F93",
"4 c #A8B0A3",
"5 c #AEC867",
"6 c #A6C464",
"7 c #93B55F",
"8 c #79A258",
"9 c #7A9D5E",
"0 c #788577",
"q c #7A857A",
"w c #BFD36F",
"e c #BFD470",
"r c #B2CB6A",
"t c #A2C062",
"y c #9ABA61",
"u c #79A05A",
"i c #789F5B",
"p c #7B8A76",
"a c #7A837C",
"s c #9CA499",
"d c #C6CCBE",
"f c #B2BAAC",
"g c #A6AEA1",
"h c #92B45F",
"j c #C1D570",
"k c #B4CC6A",
"l c #A4C263",
"z c #9CBC61",
"x c #78A059",
"c c #788874",
"v c #768079",
"b c #9BA398",
"n c #B3B9AD",
"m c #949D91",
"M c #969F92",
"N c #76A057",
"B c #A0BD65",
"V c #B1B8AC",
"C c #929B8F",
"Z c #8E988C",
"A c #798479",
"S c #78A257",
"D c #A2BF66",
"F c #C3D671",
"G c #9AA297",
"H c #B3BBAC",
"J c #939C90",
"K c #899388",
"L c #79827B",
"P c #798975",
"I c #789E5B",
"U c #A1C062",
"Y c #B3CB6A",
"T c #77807A",
"R c #899389",
"E c #889288",
"W c #B3CC6A",
"Q c #A3C163",
"! c #A3C263",
"~ c #A2C163",
"^ c #78817A",
"/ c #9BA498",
"( c #92B55F",
") c #79A358",
"_ c #A5ADA0",
"` c #8A9489",
"' c white",
/* pixels */
" .XoO+@#$%&*=-;;;;-=*&%$:>,<1X. ",
" .XoO+@#$%&*=-;;;;-=*&%$:2341X. ",
" .XoO+@#$%&*=-;;;;-=*&%$#411oX. ",
" .Xo114#$%&*=-;;;;567890q<o1oX. ",
" .X1432:$%&*=-;;;;wertyuipasOX. ",
" .dfg,>:$%&h65;;;;;jklz8xcvbOX. ",
" .nm3M>:$%NBjw;;;;;jklz8xcvbOX. ",
" .VCmmZA09SDF;;;;;;jklz8xcvGHd. ",
" .VJKLPIuyUYj;;;;;;jklz8xcTR,n. ",
" .VJETcx8zlkj;;;;;weWlz8xcTEJV. ",
" .VJETcx8zlkj;;;;;5===z8xcTEJV. ",
" .n,RTcx8zlkj;;;;;-Ql=z8xcTR,n. ",
" .dHGvcx8zlkj;;;;;-Ql=z8xcvGHd. ",
" .XObvcx8zlWew;;;;-!Q~yuIP^/OX. ",
" .XObvcx8z===5;;;;-=()90AZJg1X. ",
" .XO/^PIuy~Q!-;;;;-=*&%$:>,<1X. ",
" .X1gJZA09)(=-;;;;-=*&%$:>,<1X. ",
" .X1<,>:$%&*=-;;;;-=*&%$:>,<1X. ",
" .X1<,>:$%&*=-;;;;-=*&%$:>,<1X. ",
" .X1<,>:$%&*=-;;;;-=*&%$:>,<1X. ",
" .X1<,>:$%&*=-;;;;-=*&%$:>,<1X. ",
" .dfg,>:$%&h65;;;;-=*&%$:>,<1X. ",
" .nm3M>:$%NBjw;;;;-=*&%$:>,<1X. ",
" .VCmmZA09SDF;;;;;567890AZJ_fd. ",
" .VJKLPIuyUYj;;;;;wertyuIPL`,n. ",
" .VJETcx8zlkj;;;;;;jklz8xcTEJV. ",
" .VJETcx8zlkj;;;;;;jklz8xcTEJV. ",
" .n,RTcx8zlWew;;;;;jklz8xcTR,n. ",
" .dHGvcx8z===5;;;;;jklz8xcvGHd. ",
" .XOsapiuy~Q!-;;;;weWlz8xcvbOX. ",
" .Xo1o<q09)(=-;;;;5===z8xcvbOX. ",
" .XoO+@#$%&*=-;;;;-Ql=z8xcvbOX. "
};
