/* XPM */
static char *result[] = {
/* columns rows colors chars-per-pixel */
"32 32 190 2 ",
"   c #9BD4C3",
".  c #9AD3C0",
"X  c #7EAA6C",
"o  c #77A056",
"O  c #78A158",
"+  c #9AD4C3",
"@  c #9BD5C4",
"#  c #9AD3C1",
"$  c #99D3C2",
"%  c #B6DECE",
"&  c #DCECDF",
"*  c #C9E0CA",
"=  c #85B27B",
"-  c #83B178",
";  c #93B764",
":  c #97B85F",
">  c #97B860",
",  c #94D1C0",
"<  c #C2E3D4",
"1  c #FFFCF1",
"2  c #E2E9D0",
"3  c #7AA259",
"4  c #78A055",
"5  c #9DBC61",
"6  c #A6C464",
"7  c #A5C363",
"8  c #A4C263",
"9  c #C0D4C7",
"0  c #BFC2B9",
"q  c #B1BCA6",
"w  c #7AA25B",
"e  c #79A258",
"r  c #9CBC61",
"t  c #A8C465",
"y  c #B0CA69",
"u  c #98D3C2",
"i  c #DBECDE",
"p  c #FFFCEF",
"a  c #BFC3B8",
"s  c #707A74",
"d  c #758571",
"f  c #78A059",
"g  c #A2C162",
"h  c #ACC767",
"j  c #C1D571",
"k  c #C1D570",
"l  c #ABDACA",
"z  c #D1E1D3",
"x  c #E7E8DB",
"c  c #B4BAAF",
"v  c #757E78",
"b  c #788874",
"n  c #A7C464",
"m  c #A9C565",
"M  c #C0D470",
"N  c #F1F3E6",
"B  c #F2F4E7",
"V  c #B2B9AD",
"C  c #969F93",
"Z  c #8A9389",
"A  c #77807A",
"S  c #B3CC6A",
"D  c #BFD470",
"F  c #F3F4E7",
"G  c #F4F5E8",
"H  c #B2B8AC",
"J  c #949D91",
"K  c #899288",
"L  c #B4CC6A",
"P  c #C4C9BC",
"I  c #AFB6A9",
"U  c #97A095",
"Y  c #768079",
"T  c #C8CDC0",
"R  c #B6BDAF",
"E  c #9BA398",
"W  c #B4CD6B",
"Q  c #C2D571",
"!  c #C1D470",
"~  c #9DBD61",
"^  c #79A357",
"/  c #778773",
"(  c #757F78",
")  c #C8CDBF",
"_  c #B5BCAE",
"`  c #A5C263",
"'  c #ABC666",
"]  c #B5CD6B",
"[  c #A9C468",
"{  c #8AAF5C",
"}  c #88A95F",
"|  c #79906B",
" . c #788F6C",
".. c #859182",
"X. c #879187",
"o. c #A2AA9D",
"O. c #9AA397",
"+. c #C4D671",
"@. c #A1BE66",
"#. c #749F56",
"$. c #779A5E",
"%. c #78827A",
"&. c #79827C",
"*. c #90998E",
"=. c #A8AFA2",
"-. c #B4BBAD",
";. c #9EA79B",
":. c #7F8980",
">. c #7F8D7C",
",. c #789763",
"<. c #799962",
"1. c #91B260",
"2. c #9EBE62",
"3. c #BAD06D",
"4. c #9CBB63",
"5. c #76A057",
"6. c #789B5E",
"7. c #788379",
"8. c #79837B",
"9. c #959E92",
"0. c #A7AFA2",
"q. c #79827B",
"w. c #788279",
"e. c #91B45E",
"r. c #77A157",
"t. c #C9CEC0",
"y. c #A8B0A2",
"u. c #90B35E",
"i. c #A4C262",
"p. c #BEC4B7",
"a. c #A5ADA0",
"s. c #9FA89B",
"d. c #98B861",
"f. c #B2CB69",
"g. c #B1B7AB",
"h. c #919A8E",
"j. c #779B5E",
"k. c #759F56",
"l. c #B1B8AC",
"z. c #929C90",
"x. c #939C90",
"c. c #8B9689",
"v. c #798874",
"b. c #788973",
"n. c #7FA15F",
"m. c #7EA659",
"M. c #A4C167",
"N. c #C2D671",
"B. c #AAC665",
"V. c #7FA759",
"C. c #8F988D",
"Z. c #A1AA9D",
"A. c #AEB6A8",
"S. c #78817B",
"D. c #789F5A",
"F. c #79A159",
"G. c #9BBB61",
"H. c #A3C162",
"J. c #899388",
"K. c #B2B9AC",
"L. c #889288",
"P. c #929B8F",
"I. c #879186",
"U. c #768672",
"Y. c #77817A",
"T. c #889187",
"R. c #949F8F",
"E. c #79906D",
"W. c #78906B",
"Q. c #8BAF5C",
"!. c #99BA60",
"~. c #778079",
"^. c #939C91",
"/. c #A7AFA1",
"(. c #B7BEAF",
"). c #B9BFB1",
"_. c #ACB3A6",
"`. c #7A837D",
"'. c #759F57",
"]. c #747E77",
"[. c #B3BAAC",
"{. c #AAB1A4",
"}. c #7A847B",
"|. c #879482",
" X c #899289",
".X c #A3AA9E",
"XX c #7A837C",
"oX c #AAB2A5",
"OX c #B7BEB0",
"+X c white",
/* pixels */
"                . X o O O O O O O O O O O o X .                 ",
"          + + @ # X o O O O O O O O O O O o X # @ + +           ",
"      $ % & * = - ; : > > > > > > > > > > : ; - = * & % $       ",
"    $ , < 1 2 3 4 5 6 7 7 7 8 8 8 8 7 7 7 6 5 4 3 2 1 < , $     ",
"    % < 9 0 q w e r 7 8 8 t y y y y t 8 8 7 r e w q 0 9 < %     ",
"$ u i p a s d f e r 7 8 g h j k k j h g 8 7 r e f d s a p i u $ ",
"l l z x c v b f e r 7 n m y M M M M y m n 7 r e f b v c x z l l ",
"N B V C Z A b f e r 8 S M D M M M M D M S 8 r e f b A Z C V B N ",
"F G H J K A b f e r 8 L k M M M M M M k L 8 r e f b A K J H G F ",
"F G P I U Y b f e r 8 L k M M M M M M k L 8 r e f b Y U I P G F ",
"F G T R E Y b f e r 8 W Q ! M M M M M k W 7 ~ ^ O / ( E R T G F ",
"F G ) _ E Y b f e r ` ' y ] M M M M M Q [ { } |  ...X.o._ ) G F ",
"F G ) _ O.( / O ^ ~ 6 8 g h M M M M ! +.@.#.$.%.&.*.C =.-.) G F ",
"F G ) _ ;.:.>.,.<.1.> 2.8 h M M M M 3.3.4.5.6.7.8.*.9.0.-.) G F ",
"F G ) -.0.9.*.q.w.6.5.e.7 h M M M M h 8 e.r.6.7.8.*.9.0.-.) G F ",
"F G ) -.0.9.*.8.7.6.r.e.7 h M M M M h 7 e.r.6.7.8.*.9.0.-.) G F ",
"F G ) -.0.9.*.8.7.6.r.e.7 h M M M M h 7 e.r.6.7.8.*.9.0.-.) G F ",
"F G ) -.0.9.*.8.7.6.r.e.7 h M M M M h 7 e.r.6.7.8.*.9.0.-.) G F ",
"F G ) -.0.9.*.8.7.6.r.e.7 h M M M M h 7 e.r.6.7.8.*.9.0.-.) G F ",
"F G t._ y.9.*.8.7.6.r.u.i.h M M M M h 7 e.r.6.7.8.*.9.0.-.) G F ",
"F G p.a.s.9.*.8.7.6.5.d.f.] M M M M h 7 e.r.6.7.8.*.9.0.-.) G F ",
"F G g.h.9.C *.q.%.j.k.@.+.! M M M M h 8 u.5.j.%.q.*.9.y._ T G F ",
"F G l.z.x.*.c.v.b.n.m.M.N.M M M M M y B.> V.n.b.v.c.C.Z.A.P G F ",
"F G l.x.K S.v.D.F.G.H.S k M M M M M D M S H.G.F.D.v.S.J.J K.G F ",
"F G l.x.L.A b f e r 8 S M D M M M M M k L 8 r e f b A L.x.l.G F ",
"F G l.x.L.A b f e r 7 n m y M M M M M k L 8 r e f b A L.x.l.G F ",
"F G g.P.I.( U.O ^ ~ 6 8 g h M M M M ! Q W 8 r e f b Y.T.P.g.G F ",
"F G p.a.o.E R.E.W.} Q.!.8 h M M M M ] y ' ` r e f b ~.^./.p.G F ",
"F G t.-.(.)._.`.%.$.'.u.7 h M M M M h g 8 6 ~ ^ O U.].O.(.t.G F ",
"F G ) [._ R {.}.7.6.r.e.7 h M M M M h 8 2.> 1.<.,.|. X.X_ ) G F ",
"F G ) [._ R {.}.7.6.r.e.7 h M M M M h 7 e.5.6.w.XXoXOX_ [.) G F ",
"F G ) [._ R {.}.7.6.r.e.7 h M M M M h 7 e.r.6.7.}.{.R _ [.) G F "
};
