/* XPM */
static char *result[] = {
/* columns rows colors chars-per-pixel */
"32 32 9 1 ",
"  c #9BD4C3",
". c #F3F4E7",
"X c #B5BCAE",
"o c #78827A",
"O c #78A158",
"+ c #A4C263",
"@ c #C0D470",
"# c #959E92",
"$ c white",
/* pixels */
"  ..XXXXooOO++@@++++OOooXXXXXX..",
"  ..XXXXooOO++@@++++OOooXXXXXX..",
"..XXXXXXooOO++@@++++++OOoo##OOOO",
"..XXXXXXooOO++@@++++++OOoo##OOOO",
"OOOOXXooOO++++@@@@++++++OOOO++++",
"OOOOXXooOO++++@@@@++++++OOOO++++",
"++++OOOO++++++@@@@@@++++++++++++",
"++++OOOO++++++@@@@@@++++++++++++",
"++++++++++++@@@@@@@@@@++++++@@@@",
"++++++++++++@@@@@@@@@@++++++@@@@",
"@@@@++++++@@@@@@@@@@@@@@@@@@@@@@",
"@@@@++++++@@@@@@@@@@@@@@@@@@@@@@",
"@@@@@@@@@@@@@@@@@@@@@@@@@@@@@@@@",
"@@@@@@@@@@@@@@@@@@@@@@@@@@@@@@@@",
"++++++@@@@@@@@@@@@@@@@@@@@@@@@@@",
"++++++@@@@@@@@@@@@@@@@@@@@@@@@@@",
"++++++++@@@@@@@@@@@@@@@@@@@@@@@@",
"++++++++@@@@@@@@@@@@@@@@@@@@@@@@",
"OOOO++++++@@@@@@@@@@@@@@@@@@@@@@",
"OOOO++++++@@@@@@@@@@@@@@@@@@@@@@",
"ooooOO++++++@@@@@@@@@@@@@@@@@@@@",
"ooooOO++++++@@@@@@@@@@@@@@@@@@@@",
"####ooOO++++@@@@@@@@@@@@@@@@@@@@",
"####ooOO++++@@@@@@@@@@@@@@@@@@@@",
"######ooOO++++@@@@@@@@@@@@@@@@@@",
"######ooOO++++@@@@@@@@@@@@@@@@@@",
"####XXXXooOO++@@@@@@@@@@@@@@@@@@",
"####XXXXooOO++@@@@@@@@@@@@@@@@@@",
"##XXXXXXooOO++@@@@@@@@@@@@@@@@@@",
"##XXXXXXooOO++@@@@@@@@@@@@@@@@@@",
"..######ooOO++++@@@@@@@@@@@@@@@@",
"..######ooOO++++@@@@@@@@@@@@@@@@"
};
