/* XPM */
static char *result[] = {
/* columns rows colors chars-per-pixel */
"32 32 9 1 ",
"  c #F3F4E7",
". c #B5BCAE",
"X c #78827A",
"o c #78A158",
"O c #A4C263",
"+ c #C0D470",
"@ c #959E92",
"# c #9BD4C3",
"$ c white",
/* pixels */
"  ......XXooOO++++OOooXX......  ",
"  ......XXooOO++++OOooXX......  ",
"oooo..XXooOOOO++++OOOOooXX@@oooo",
"oooo..XXooOOOO++++OOOOooXX@@oooo",
"OOOOooooOOOOOO++++OOOOOOooooOOOO",
"OOOOooooOOOOOO++++OOOOOOooooOOOO",
"OOOOOOOOOOOO++++++++OOOOOOOOOOOO",
"OOOOOOOOOOOO++++++++OOOOOOOOOOOO",
"++++OOOOOO++++++++++++OOOOOO++++",
"++++OOOOOO++++++++++++OOOOOO++++",
"++++++++++++++++++++++++++++++++",
"++++++++++++++++++++++++++++++++",
"++++++++++++++++++++++++++++OOOO",
"++++++++++++++++++++++++++++OOOO",
"++++++++++++++++++++++++OOOOoooo",
"++++++++++++++++++++++++OOOOoooo",
"++++++++++++++++++++++OOOOOOXXXX",
"++++++++++++++++++++++OOOOOOXXXX",
"++++++++++++++++++++OOOOOOoo@@@@",
"++++++++++++++++++++OOOOOOoo@@@@",
"++++++++++++++++++++OOOOooXX@@@@",
"++++++++++++++++++++OOOOooXX@@@@",
"++++++++++++++++++OOOOooXX@@@@@@",
"++++++++++++++++++OOOOooXX@@@@@@",
"++++++++++++++++++OOOOooXX..@@@@",
"++++++++++++++++++OOOOooXX..@@@@",
"++++++++++++++++OOOOooXX....@@@@",
"++++++++++++++++OOOOooXX....@@@@",
"++++++++++++++++OOOOooXX..@@@@  ",
"++++++++++++++++OOOOooXX..@@@@  ",
"++++++++++++++++OOOOooXX@@@@  ##",
"++++++++++++++++OOOOooXX@@@@  ##"
};
