/* XPM */
static char *result[] = {
/* columns rows colors chars-per-pixel */
"32 32 9 1 ",
"  c #C0D470",
". c #A4C263",
"X c #78A158",
"o c #78827A",
"O c #B5BCAE",
"+ c #F3F4E7",
"@ c #959E92",
"# c #9BD4C3",
"$ c white",
/* pixels */
"                ....XXooOOOOOO++",
"                ....XXooOOOOOO++",
"                ......XXoo@@XXXX",
"                ......XXoo@@XXXX",
"                  ......XXXX....",
"                  ......XXXX....",
"                    ............",
"                    ............",
"                      ......    ",
"                      ......    ",
"                                ",
"                                ",
"......                      ....",
"......                      ....",
"........                ....XXXX",
"........                ....XXXX",
"XXXX......            ......oooo",
"XXXX......            ......oooo",
"ooooXX......        ......XX@@@@",
"ooooXX......        ......XX@@@@",
"@@@@ooXX....        ....XXoo@@@@",
"@@@@ooXX....        ....XXoo@@@@",
"@@@@@@ooXX....    ....XXoo@@@@@@",
"@@@@@@ooXX....    ....XXoo@@@@@@",
"@@@@OOOOooXX..    ....XXooOO@@@@",
"@@@@OOOOooXX..    ....XXooOO@@@@",
"@@OOOOOOooXX..    ..XXooOOOO@@@@",
"@@OOOOOOooXX..    ..XXooOOOO@@@@",
"++@@@@@@ooXX..    ..XXooOO@@@@++",
"++@@@@@@ooXX..    ..XXooOO@@@@++",
"##++OOOOooXX..    ..XXoo@@@@####",
"##++OOOOooXX..    ..XXoo@@@@####"
};
